<?xml version="1.0" encoding="utf-8"?>
<!-- Generator: Adobe Illustrator 19.2.1, SVG Export Plug-In . SVG Version: 6.00 Build 0)  -->
<svg version="1.1" id="Layer_1" xmlns="http://www.w3.org/2000/svg" xmlns:xlink="http://www.w3.org/1999/xlink" x="0px" y="0px"
	 viewBox="0 0 761.4 213.8" style="enable-background:new 0 0 761.4 213.8;" xml:space="preserve">
<style type="text/css">
	.st0{fill:#FFFFFF;}
	.st1{fill:#AA3F24;}
	.st2{fill:#1E6767;}
	.st3{fill:#E66924;}
	.st4{fill:#5FC3CE;}
	.st5{fill:#231F20;}
	.st6{fill:#FFE8B0;}
	.st7{fill:#533215;}
	.st8{fill:#D1D2D3;}
	.st9{fill:#EAEAEA;}
	.st10{fill:#FEC358;}
</style>
<g>
	<path class="st0" d="M79.8,162.6c0.1-0.8,0.1-1.6,0.1-2.4c0-5.9-2.2-10.2-5.6-13.5c2.2,0,4-1.8,4-4v-4.5v-17.5v-4.5
		c0-2.2-1.8-4-4-4H59.2c-1.7,0-3.1,1-3.7,2.5c-4.1-2.7-9.3-4.1-15.5-4.1c-5.6,0-11.6,2-16.1,5.4c-5.7,4.3-8.8,10.5-8.8,17.5
		c0,0.8,0,1.6,0.1,2.3c-0.1,0.7-0.1,1.5-0.1,2.2c0,5.7,1.8,10.1,4.6,13.5h-1.8c-2.2,0-4,1.8-4,4v4.5v17.6v4.5c0,2.2,1.8,4,4,4h15.4
		c1.9,0,3.4-1.3,3.9-3c3.6,2.3,8.8,4.4,15.5,4.4c3.9,0,11.3-0.6,17.8-4.8c6.2-4.1,9.5-10.2,9.5-17.8C79.9,164,79.9,163.3,79.8,162.6
		z"/>
	<path class="st0" d="M741.9,142.1h-2.5V142v-21.4v-4.5c0-2.2-1.8-4-4-4h-13.1c-1.8,0-3.3,1.2-3.8,2.8c-3-2-7.7-3.9-15.2-3.9
		c-12.7,0-23.6,9-28.4,21.8c-0.8-14-10-20.8-28.2-20.8h-28.5c-2.2,0-4,1.8-4,4v4.5v7v4.5c0,2.2,1.8,4,4,4h0.9v25.8h-0.9
		c-0.8,0-1.5,0.2-2.1,0.6v-2.9c0-2.2-1.8-4-4-4h-5.9c-0.2,0-0.4,0-0.6,0c-0.5-2.1-1.5-4.1-2.9-5.9c2.9-2.9,4.6-6.8,4.6-11.2
		c0-0.9,0-1.8-0.1-2.7c0.1-0.6,0.1-1.2,0.1-1.8c0-15.1-9-22.1-28.4-22.1h-28.6c-2.2,0-4,1.8-4,4v4.5v7v4.5c0,2.2,1.8,4,4,4h0.9v25.8
		h-0.9c-0.6,0-1.3,0.2-1.8,0.4c0-0.7,0.1-1.5,0.1-2.2c0-0.6,0-1.2-0.1-1.8c0.1-0.9,0.1-1.8,0.1-2.7c-0.3-16-11.7-26.9-28.4-27.1
		c-9.7,0-19.8,4.8-24.8,13.8v-6.5v-4.5c0-2.2-1.8-4-4-4c-6.4,0-10.2,1.6-12.9,4c-0.7-1.1-2-1.9-3.4-1.9h-16.5c-2.2,0-4,1.8-4,4v4.5
		v6.9v1.4c-0.2-1-0.5-1.9-0.7-2.6c-3.2-9.4-13-15.4-24.8-15.4c-16.3,0-27.6,11.1-27.6,26.9c0,0.8,0,1.6,0.1,2.3
		c0,0.7-0.1,1.4-0.1,2.2c0,0.8,0,1.6,0.1,2.4c-0.5-0.2-1-0.3-1.5-0.3h-1.1v-25.7h1.1c2.2,0,4-1.8,4-4v-4.5v-7.1v-4.5
		c0-2.2-1.8-4-4-4h-28.6c-1.2,0-2.3,0.5-3,1.4c-0.7-0.9-1.8-1.4-3-1.4h-28.5c-2.2,0-4,1.8-4,4v4.5v7.1v4.5c0,2.2,1.8,4,4,4h0.8v25.7
		h-0.8c-1.5,0-2.7,0.8-3.4,1.9c-0.7-1.1-1.9-1.9-3.4-1.9H330v-6.2v-4.5c0-10.6-3.5-23.3-19.9-23.3c-4.1,0-7.8,1.2-11.1,3.7
		c-0.7-1.3-2-2.1-3.5-2.1h-18.7c-1.2,0-2.2,0.5-2.9,1.3c-0.7-0.8-1.8-1.3-2.9-1.3h-21.4c-1.8,0-3.2,1.1-3.8,2.7
		c-0.6-1.6-2.1-2.7-3.8-2.7h-16.3c-1.8,0-3.4,1.2-3.8,2.9l0,0.1c-0.5-1.7-2-3-3.9-3h-23.6c-2.2,0-4,1.8-4,4v4.5v6.9v1.2
		c-1.3-9.7-9-19.1-27.6-19.1c-6.6,0-13.7,2.3-21.2,6.8c-1.6,1-2.4,3-1.7,4.8l0.4,1c-0.6,1-0.8,2.3-0.4,3.5l3,8.3
		c-1.1,1.2-2.1,2.5-2.8,4c-0.2-15.9-10.1-26.5-24.7-26.5c-3.7,0-6.8,1-9.1,2.1c-0.7-0.9-1.9-1.4-3.1-1.4h-3.7
		c2.5-0.4,3.6-2.4,4.6-4.2c0.7-1.3,1.6-2.8,2.8-3.8c1.2,0,2.4,0,3.6,0h0.3c1.2,0,2.3,0,3.6,0c1.2,1,2,2.5,2.8,3.8
		c1,1.8,2.2,3.9,4.8,4.2c0.9,0.1,2.6,0,4.2-1.6c2.4-2.6,4.3-5.6,5.6-9c1.4-0.4,2.9-0.8,4.4-1.3c2.1-0.6,3.2-2.8,2.7-4.9
		c-0.4-1.3-0.9-3-1.5-4.8l5.7,5.7c1.8,1.8,4.8,1.8,6.6,0l6.9-6.9l8.5,8.5c1.2,1.2,2.8,1.9,4.5,1.9s3.3-0.7,4.5-1.9
		c1.2-1.2,1.9-2.8,1.9-4.5s-0.7-3.3-1.9-4.5l-0.7-0.7l31-31c1-1,1.4-2.4,1.1-3.8l-4.5-18.2c-0.4-1.4-1.5-2.6-2.9-2.9l-18.2-4.5
		c-1.4-0.3-2.8,0.1-3.8,1.1l-31,31l-0.1-0.1c9.2-9.3,9.7-23.2,1.3-41.4c-4.6-9.9-14.5-21.4-35.7-19.8c-10.4-1.3-19.2,0.3-26.1,4.5
		c-2.7-5-8-6.3-12.6-6.4c-0.9,0-1.8,0.3-2.5,0.8c-0.1,0-0.2,0-0.2,0c-4.3-0.4-9.1,1.6-14.6,6.2c-0.9,0.7-1.4,1.8-1.4,2.9
		c-0.1,3.8-0.1,7.6,1.2,10.8c-0.5,1-0.6,2.3-0.1,3.4c1.8,4.2,7.5,8,13.5,8.7c-3.2,14.9,2,26.1,6.7,30.1c2.7,2.3,6,4.3,9.9,5.7
		c-5.2,4.7-10.5,11.1-11.4,15.3c-0.5,2.3,0.2,3.8,0.9,4.7c3.2,4.3,7.4,2.1,11.8-0.2c0.1-0.1,0.3-0.1,0.4-0.2
		c-1.7,4.5-2.9,8-3.6,10.6c-0.6,2.1,0.6,4.2,2.7,4.9c1.5,0.5,3,0.9,4.4,1.3c1.3,3.3,3.1,6.3,5.6,9c1,1,2,1.5,2.9,1.6H82.8
		c-2.2,0-4,1.8-4,4v4.5v7.2v4.5c0,2.1,1.6,3.8,3.7,4V180c-2.1,0.2-3.7,1.9-3.7,4v4.5v7v4.5c0,2.2,1.8,4,4,4h26.3c2.2,0,4-1.8,4-4
		v-4.5v-7v-1.6c0.8,0.1,1.7,0.1,2.7,0.1c10.4,0,18.4-5.9,22-15.2c1.3,8.1,8,15.9,21.1,15.9c3.3,0,7.3-0.9,10.8-3.2
		c0.8,1,1.9,1.5,3.2,1.5h18.8c2.2,0,4-1.8,4-4v-4.5v-6.7v-4.5c0-2.2-1.8-4-4-4h-1.3v-8.6v-3c0.5,1.6,2,2.8,3.8,2.8h0.8l9.1,29.7
		c0.5,1.7,2.1,2.8,3.8,2.8h18.1c1.7,0,3.3-1.1,3.8-2.8l2.4-7.6l2.3,7.6c0.5,1.7,2.1,2.8,3.8,2.8H257c1.7,0,3.3-1.1,3.8-2.8l9.4-29.7
		h0.7c1.2,0,2.2-0.5,2.9-1.3c0.7,0.7,1.6,1.2,2.6,1.3v8.5c-2.1,0.2-3.7,1.9-3.7,4v4.5v7v4.5c0,2.2,1.8,4,4,4h27.1
		c0.8,0,1.5-0.2,2.1-0.6c0.6,0.4,1.3,0.6,2.1,0.6h22.2c1.4,0,2.7-0.8,3.4-1.9c0.7,1.1,2,1.9,3.4,1.9h28.5c1.2,0,2.3-0.5,3-1.4
		c0.7,0.9,1.8,1.4,3,1.4H400c2.2,0,4-1.8,4-4v-4.5v-5c4.6,10.3,14.9,15.1,24.7,15.1c10.6,0,18.4-2.7,25.3-8.6
		c0.2-0.2,0.4-0.4,0.6-0.6v3.6c0,2.2,1.8,4,4,4h24.9c2.2,0,4-1.8,4-4v-4.5v-7V166c0-2.2-1.8-4-4-4H483v-0.5c0-5.5,3-5.8,8.4-5.8
		c0.2,0,0.5,0,0.7-0.1c0,0.8,0,1.5,0.1,2.3c0,0.6-0.1,1.3-0.1,1.9c-0.1,7.6,2.4,14.2,7.3,19.1c5.2,5.3,12.9,8.3,21.3,8.3
		c8.3,0,15.7-2.8,20.8-8c2.1-2.1,3.7-4.6,4.9-7.3v5.6v4.5c0,2.2,1.8,4,4,4h28.4c2.2,0,4-1.8,4-4v-1.3c3.6,4.1,9.2,6.3,16.5,6.3
		c7.2,0,12.4-3.1,15-8.7v3.6c0,2.2,1.8,4,4,4h28.3c2.2,0,4-1.8,4-4v-4.5v-7.1v-4.5c0-2.2-1.8-4-4-4h-1.4v-1.1h2.7
		c11.5,0,20.4-4.4,24.5-11.5c0,0.1,0,0.2,0,0.3c0,0.7-0.1,1.5-0.1,2.2c0,20.2,13.3,34.9,31.6,34.9c4.9,0,9.5-1.4,13-3.6l0.3,0.6
		c0.7,1.4,2.1,2.2,3.6,2.2h17.6c2.2,0,4-1.8,4-4v-4.5V164c2-0.2,3.5-1.9,3.5-4v-4.5v-4.9v-4.5C745.9,143.9,744.1,142.1,741.9,142.1z
		 M135.4,103.2C135.4,103.2,135.3,103.3,135.4,103.2C135.3,103.2,135.3,103.2,135.4,103.2C135.3,103.2,135.3,103.2,135.4,103.2z
		 M110.8,163.1c-0.6-0.2-1.9-1.9-2.3-4.9c0.3-1.9,0.9-3.2,1.5-3.9c0.3-0.3,0.5-0.4,0.6-0.4c0.6,0.2,1.8,2,2.2,4.8
		C112.4,161.7,111.2,163.1,110.8,163.1z M303.9,162c0,0-0.1,0-0.1,0h-2.3v-4c0-1.6,0.2-4.2,1.5-4.2c0.3,0,0.5,0,0.5,0
		c0.3,0.5,0.4,2.2,0.4,3.2L303.9,162z M372.6,161.9h-1.2c-1.2,0-2.3,0.5-3,1.4c-0.7-0.9-1.8-1.4-3-1.4h-1.5v-0.8h8.7V161.9z
		 M372.6,137h-8.7v-0.8h1.5c1.2,0,2.3-0.5,3-1.4c0.7,0.9,1.8,1.4,3,1.4h1.2V137z M458.4,162c-2.1,0.1-3.9,1.8-3.9,4v3
		c-0.1-0.1-0.1-0.1-0.2-0.2l-1.3-1.5c0.4-0.4,0.8-0.9,1-1.5c1.2-3.3,1.4-7,1.2-10.3c0.1-1.3,0.1-2.5,0-3.8c0.7,1,1.8,1.7,3.1,1.8
		V162z M520.6,163.4c-0.5,0-1.9-1.7-2.4-5.6c0.4-3.1,1.4-4.9,2-5.4c0.8,0.3,1.9,2.1,2.2,5.6C522.1,161.6,521,163.2,520.6,163.4z
		 M577.4,161.9v-0.7c0.2,0.1,0.2,0.1,0.2,0.1c0.1,0.1,0.2,0.3,0.2,0.6H577.4z M577.4,138.5V136h0.4c1.9,0,2.9,0.4,3.4,1.2
		C580.7,137.9,579.6,138.4,577.4,138.5z M645.2,138.8V136h0.4c1.9,0,3,0.5,3.6,1.4C648.4,138.3,647.1,138.8,645.2,138.8z
		 M712.7,142.1c-2.2,0-4,1.8-4,4v4.5v4.9v3.9c-4.2-0.6-6.5-4.9-7-9.8c0.7-5.9,4-10.4,7.9-10.4c2.1,0,3.7,1,4.8,2.8H712.7z"/>
</g>
<path class="st1" d="M17.9,182.1v-22.2h16.4c0,7.4,7.4,8.6,11.1,8.8c3.1,0,7.5-0.7,7.5-4.4c0-6.9-33.8-4-33.8-26.4
	c0-13,12.3-18.9,20.9-18.9c7.4,0,14.9,2.4,18.4,9l0.9-7.4h15.1v22.1H58.4c0-6.5-5.1-10.2-11.3-10.2c-2.5,0-6.1,1.6-6.1,4.7
	c0,9.1,34.8,6.9,34.8,27.6c0,13.7-12.8,18.6-23.3,18.6c-8.9,0-15-4.1-18.4-8.1l-1,6.8H17.9z"/>
<path class="st1" d="M82.8,188.5h3.7v-38.7h-3.7v-11.7H103l1.5,3.1c1.7-1.2,5.4-3.8,10.6-3.8c13.7,0,20.7,10.5,20.7,23
	c0,14-8.7,22.6-20,22.6c-7.3,0-10.8-2.9-11.4-3.4v8.9h4.7V200H82.8V188.5z M110.6,149.8c-3.4,0-6.6,4.3-6.2,11.3
	c0,6,3,10.5,6.3,10.5c3.7,0,6.2-4.3,6.2-11C117,155.3,114.5,149.8,110.6,149.8z"/>
<path class="st1" d="M143.4,141.8c3.5-2.1,11.1-6.2,19.2-6.2c10.5,0,23.8,4,23.8,18.1v17.1h5.3v11.3h-18.8l-2.1-4
	c-3.3,4.5-8.7,5.6-11.9,5.6c-8.4,0-17.3-4.5-17.3-14.7c0-9.9,8.4-16.2,18.3-16.2c5.2,0,8.3,2.5,8.7,3.1v-3.1c0-4-3.6-4.9-8.4-4.9
	c-5.2,0-9.8,2.2-13.1,4L143.4,141.8z M168.6,169.4v-3.3c-0.3-0.4-1.5-2.5-5.2-2.5c-3.5,0-5.1,1.9-5.1,4.7c0,2.5,2,4.1,4.7,4.1
	C165.6,172.3,167.8,170.7,168.6,169.4z"/>
<path class="st1" d="M219.2,168.6c0.3-3.6,1-12,3.6-20.7l2.8-9.8h16.3l3.3,11.4c2.1,6.8,3.4,16,3.8,19.1h0.2
	c0.3-2.8,1.1-9.2,2.4-13.9l1.5-5.2h-3.6v-11.4h21.4v11.4h-3.6L257,182.1h-18.5l-6.1-19.9l-6.3,19.9H208l-9.9-32.5h-3.8v-11.4h23.6
	v11.4h-3l1.9,6.4c1.2,4.2,2,10.1,2.2,12.7H219.2z"/>
<path class="st1" d="M303.8,182.1h-27.1v-11.5h3.7v-21h-3.7v-11.4h18.7l2,5.5c3-4.1,7-7,12.6-7c13.6,0,15.9,10.1,15.9,19.3v14.7h4.1
	v11.5h-22.2v-24c0-3,0.3-8.2-4.9-8.2c-4.5,0-5.5,4.4-5.5,8.2v12.5h6.3V182.1z"/>
<path class="st1" d="M336.9,120.6h28.5v11.6h-5.5v13.3h16.7v-13.3h-5.2v-11.6H400v11.6h-5.1v38.2h5.1v11.6h-28.6v-11.6h5.2v-13.3
	h-16.7v13.3h5.5v11.6h-28.5v-11.6h4.8v-38.2h-4.8V120.6z"/>
<path class="st1" d="M451.3,176c-6.5,5.6-13.5,7.6-22.7,7.6c-10.9,0-23.2-6.9-23.2-23.8c0-14.4,10.4-22.9,23.6-22.9
	c10.5,0,18.5,5.4,21,12.7c1.1,3.1,2,9.8,0.2,14.9h-27.7c0.5,2.4,1.7,7.2,9.1,7.2c3,0,7.6-0.3,12.3-4.2L451.3,176z M422.8,155.8h13.3
	c-0.1-3.3-0.9-7-6.5-7C424.3,148.7,423,153.6,422.8,155.8z"/>
<path class="st1" d="M483.4,182.1h-24.9v-11.5h3.9v-21h-3.8v-11.4h16.5l2.6,5.6c2.3-4.2,4.6-7.8,13.6-7.8v15.8
	c-7.9,0-12.4,2-12.4,9.8v9.1h4.4V182.1z"/>
<path class="st1" d="M496.1,159.9c0.1-14.7,12-22.9,24.1-22.9c13.9,0.2,24.2,8.5,24.4,23.2c0.2,14.6-10.6,22.9-24,22.9
	C508.1,183.2,495.9,175.5,496.1,159.9z M526.6,160.3c0-6.6-2.3-11.7-6.4-11.8c-3.4,0-6.1,5.1-6.1,11.5c0,7.2,2.8,12,6.5,12
	C524.4,171.9,526.6,166.8,526.6,160.3z"/>
<path class="st2" d="M550.4,120.6h28.6c20.4,0,24.4,8.1,24.4,18.1c0,6.9-5.5,11.7-12.7,12.7c6.1,0.9,11.5,6.2,11.5,12.5
	c0,3.8,0.5,6,2.1,6c1.3,0,2-1.1,2-2.8v-2.9h5.9v4.8c0,7.3-3.1,14.1-12.8,14.1c-11.5,0-17.1-6.1-17.1-16.4c0-8-1-9.9-8.8-9.9v13.6
	h5.4v11.6h-28.4v-11.6h4.9v-38.3h-4.9V120.6z M573.4,132V147h4c5.1,0,8.4-2.5,8.4-7.1c0-5.2-2.9-7.8-8-7.8H573.4z"/>
<path class="st2" d="M618.2,120.6h28.5c20.4,0,24.3,8.8,24.3,18.8c0,11.6-10.5,17.4-23.1,17.4h-6.7v13.6h5.4v11.6h-28.3v-11.6h4.9
	v-38.3h-4.9V120.6z M641.2,132v15.3h4c5.1,0,8.6-2.6,8.6-7.3c0-5.2-3.1-8-8.2-8H641.2z"/>
<path class="st2" d="M718.1,176.5c-1.9,3.3-7.4,6.3-14.2,6.3c-15.4,0-27.6-12-27.6-30.9c0-19.2,13.3-32.3,27-32.3
	c12.7,0,15.7,6,17.1,7.4l1.8-6.3h13.1v25.9h-15.7c-0.3-7.1-4.8-11.2-10-11.2c-7.1,0-12,7.7-12,16.5c0,9,4.4,16.2,12,16.2
	c5,0,7.1-2,8.4-4.3v-3.7h-5.4v-9.4h29.2v9.4h-3.5v22h-17.6L718.1,176.5z"/>
<path class="st3" d="M17.9,177.5v-22.2h16.4c0,7.4,7.4,8.6,11.1,8.8c3.1,0,7.5-0.7,7.5-4.4c0-6.9-33.8-4-33.8-26.4
	c0-13,12.3-18.9,20.9-18.9c7.4,0,14.9,2.4,18.4,9l0.9-7.4h15.1v22.1H58.4c0-6.5-5.1-10.2-11.3-10.2c-2.5,0-6.1,1.6-6.1,4.7
	c0,9.1,34.8,6.9,34.8,27.6c0,13.7-12.8,18.6-23.3,18.6c-8.9,0-15-4.1-18.4-8.1l-1,6.8H17.9z"/>
<path class="st3" d="M82.8,183.9h3.7v-38.7h-3.7v-11.7H103l1.5,3.1c1.7-1.2,5.4-3.8,10.6-3.8c13.7,0,20.7,10.5,20.7,23
	c0,14-8.7,22.6-20,22.6c-7.3,0-10.8-2.9-11.4-3.4v8.9h4.7v11.5H82.8V183.9z M110.6,145.3c-3.4,0-6.6,4.3-6.2,11.3
	c0,6,3,10.5,6.3,10.5c3.7,0,6.2-4.3,6.2-11C117,150.8,114.5,145.3,110.6,145.3z"/>
<path class="st3" d="M143.4,137.3c3.5-2.1,11.1-6.2,19.2-6.2c10.5,0,23.8,4,23.8,18.1v17.1h5.3v11.3h-18.8l-2.1-4
	c-3.3,4.5-8.7,5.6-11.9,5.6c-8.4,0-17.3-4.5-17.3-14.7c0-9.9,8.4-16.2,18.3-16.2c5.2,0,8.3,2.5,8.7,3.1v-3.1c0-4-3.6-4.9-8.4-4.9
	c-5.2,0-9.8,2.2-13.1,4L143.4,137.3z M168.6,164.9v-3.3c-0.3-0.4-1.5-2.5-5.2-2.5c-3.5,0-5.1,1.9-5.1,4.7c0,2.5,2,4.1,4.7,4.1
	C165.6,167.8,167.8,166.2,168.6,164.9z"/>
<path class="st3" d="M219.2,164.1c0.3-3.6,1-12,3.6-20.7l2.8-9.8h16.3l3.3,11.4c2.1,6.8,3.4,16,3.8,19.1h0.2
	c0.3-2.8,1.1-9.2,2.4-13.9l1.5-5.2h-3.6v-11.4h21.4V145h-3.6L257,177.5h-18.5l-6.1-19.9l-6.3,19.9H208L198,145h-3.8v-11.4h23.6V145
	h-3l1.9,6.4c1.2,4.2,2,10.1,2.2,12.7H219.2z"/>
<path class="st3" d="M303.8,177.5h-27.1V166h3.7v-21h-3.7v-11.4h18.7l2,5.5c3-4.1,7-7,12.6-7c13.6,0,15.9,10.1,15.9,19.3V166h4.1
	v11.5h-22.2v-24c0-3,0.3-8.2-4.9-8.2c-4.5,0-5.5,4.4-5.5,8.2V166h6.3V177.5z"/>
<path class="st3" d="M336.9,116.1h28.5v11.6h-5.5V141h16.7v-13.3h-5.2v-11.6H400v11.6h-5.1v38.2h5.1v11.6h-28.6v-11.6h5.2v-13.3
	h-16.7v13.3h5.5v11.6h-28.5v-11.6h4.8v-38.2h-4.8V116.1z"/>
<path class="st3" d="M451.3,171.5c-6.5,5.6-13.5,7.6-22.7,7.6c-10.9,0-23.2-6.9-23.2-23.8c0-14.4,10.4-22.9,23.6-22.9
	c10.5,0,18.5,5.4,21,12.7c1.1,3.1,2,9.8,0.2,14.9h-27.7c0.5,2.4,1.7,7.2,9.1,7.2c3,0,7.6-0.3,12.3-4.2L451.3,171.5z M422.8,151.2
	h13.3c-0.1-3.3-0.9-7-6.5-7C424.3,144.2,423,149,422.8,151.2z"/>
<path class="st3" d="M483.4,177.5h-24.9V166h3.9v-21h-3.8v-11.4h16.5l2.6,5.6c2.3-4.2,4.6-7.8,13.6-7.8v15.8c-7.9,0-12.4,2-12.4,9.8
	v9.1h4.4V177.5z"/>
<path class="st3" d="M496.1,155.4c0.1-14.7,12-22.9,24.1-22.9c13.9,0.2,24.2,8.5,24.4,23.2c0.2,14.6-10.6,22.9-24,22.9
	C508.1,178.7,495.9,170.9,496.1,155.4z M526.6,155.7c0-6.6-2.3-11.7-6.4-11.8c-3.4,0-6.1,5.1-6.1,11.5c0,7.2,2.8,12,6.5,12
	C524.4,167.4,526.6,162.3,526.6,155.7z"/>
<path class="st4" d="M550.4,116.1h28.6c20.4,0,24.4,8.1,24.4,18.1c0,6.9-5.5,11.7-12.7,12.7c6.1,0.9,11.5,6.2,11.5,12.5
	c0,3.8,0.5,6,2.1,6c1.3,0,2-1.1,2-2.8v-2.9h5.9v4.8c0,7.3-3.1,14.1-12.8,14.1c-11.5,0-17.1-6.1-17.1-16.4c0-8-1-9.9-8.8-9.9v13.6
	h5.4v11.6h-28.4v-11.6h4.9v-38.3h-4.9V116.1z M573.4,127.5v14.9h4c5.1,0,8.4-2.5,8.4-7.1c0-5.2-2.9-7.8-8-7.8H573.4z"/>
<path class="st4" d="M618.2,116.1h28.5c20.4,0,24.3,8.8,24.3,18.8c0,11.6-10.5,17.4-23.1,17.4h-6.7v13.6h5.4v11.6h-28.3v-11.6h4.9
	v-38.3h-4.9V116.1z M641.2,127.5v15.3h4c5.1,0,8.6-2.6,8.6-7.3c0-5.2-3.1-8-8.2-8H641.2z"/>
<path class="st4" d="M718.1,172c-1.9,3.3-7.4,6.3-14.2,6.3c-15.4,0-27.6-12-27.6-30.9c0-19.2,13.3-32.3,27-32.3
	c12.7,0,15.7,6,17.1,7.4l1.8-6.3h13.1V142h-15.7c-0.3-7.1-4.8-11.2-10-11.2c-7.1,0-12,7.7-12,16.5c0,9,4.4,16.2,12,16.2
	c5,0,7.1-2,8.4-4.3v-3.7h-5.4v-9.4h29.2v9.4h-3.5v22h-17.6L718.1,172z"/>
<path class="st5" d="M91.4,25.7c0-2,5-4.4,10-4.9c5-0.5,29.9-7.6,40.9,16.3c11.7,25.3,2.2,34.7-1.8,38.1c-4,3.5-13.9,7.9-26,6.4
	C112.1,81.6,90.7,71.3,91.4,25.7z"/>
<path class="st5" d="M127.8,25.7c0-2-5-4.4-10-4.9c-5-0.5-30.7-8.4-42.3,15.2c-9.8,20-2.6,34.1,1.4,37.5c4,3.5,10.7,6.9,22.3,8
	C101.6,81.6,128.5,71.3,127.8,25.7z"/>
<path class="st5" d="M82.1,29.2c0-5-0.5-11.3-10.5-11.6c1.1,1.7,1.7,2.8,2.4,3.9c-3.8-4.7-9.2-4.5-17.1,2.1
	c-0.3,6.8,0,13.8,8.9,12.9c-2.6,1.6-5.8,0.5-8.1-0.4C60.2,42.2,77.9,49.5,82.1,29.2z"/>
<path class="st6" d="M100.3,91.2c-18.2,6.6-21.4,11.5-23.6,8.7c-2.2-2.9,9.3-15.3,15.8-19.1c3.1-1.8,7.1-1.5,9.3,1.4
	S103.8,90,100.3,91.2z"/>
<path class="st6" d="M118.9,91.2c18.2,6.6,21.4,11.5,23.6,8.7c2.2-2.9-9.3-15.3-15.8-19.1c-3.1-1.8-7.1-1.5-9.3,1.4
	S115.5,90,118.9,91.2z"/>
<path class="st6" d="M128.7,102.6c-5.6-23.8-5.6-26.7-18.1-26.8v0c0,0-0.1,0-0.1,0c-0.1,0-0.1,0-0.2,0c-0.1,0-0.1,0-0.2,0
	c0,0-0.1,0-0.1,0v0c-12.5,0.1-12.5,3-18.1,26.8c-1.6,6.7-0.4,15.6,5.8,22.3c2.4,2.6,2.7-8.8,12.5-9c9.8,0.1,10.1,11.6,12.5,9
	C129.2,118.2,130.3,109.3,128.7,102.6z"/>
<path class="st4" d="M110.6,117.3c5.9,0,12.3,0,24.1-3.7C131.8,103,121,78.2,121,78.2c-4.4-0.5-7.8-0.1-10.6,1
	c-2.7-1.1-6.2-1.5-10.6-1c0,0-10.8,24.9-13.7,35.4c11.8,3.7,18.2,3.7,24.1,3.7c0,0,0,0,0,0c0.1,0,0.1,0,0.2,0
	S110.5,117.3,110.6,117.3C110.6,117.3,110.6,117.3,110.6,117.3z"/>
<path class="st6" d="M142.8,52.2C139,32,128,25.1,109.9,24.9v0c-0.1,0-0.2,0-0.2,0c-0.1,0-0.2,0-0.2,0v0
	C91.2,25.1,80.3,32,76.5,52.2c-3,15.9,8.4,29.2,32.9,29.4v0c0.1,0,0.2,0,0.2,0c0.1,0,0.2,0,0.2,0v0
	C134.4,81.4,145.9,68.1,142.8,52.2z"/>
<circle class="st5" cx="91.7" cy="59.6" r="3.9"/>
<circle class="st5" cx="127.5" cy="59.6" r="3.9"/>
<path class="st5" d="M117.5,22.5c4,1.5,5.8,9.4,2.5,15.4S98.6,55.7,75.8,51.7c0.8-9.2,3-21.9,16.3-26.5S115,21.6,117.5,22.5z"/>
<path class="st5" d="M117.7,24.1c0.5,4.8,3.3,26.9,26.6,29.1C142.6,43.1,138.3,21.5,117.7,24.1z"/>
<path class="st4" d="M73,46.1c-0.4,0-0.9-0.1-1.3-0.2c-2.1-0.7-3.2-3-2.4-5.1c2.7-7.8,8.3-15,9.4-16.4c1.4-1.7,3.9-2,5.6-0.6
	c1.7,1.4,2,3.9,0.6,5.6c-2.6,3.3-6.3,8.9-8.1,14C76.2,45.1,74.7,46.1,73,46.1z"/>
<path class="st7" d="M169.5,87.6l-23,23c-0.3,0.3-0.7,0.3-1,0l-6.1-6.1c-0.3-0.3-0.3-0.7,0-1l23-23c0.3-0.3,0.7-0.3,1,0l6.1,6.1
	C169.8,86.9,169.8,87.3,169.5,87.6z"/>
<g>
	<path class="st8" d="M201.1,70.4c0.1,0.5-0.1,1.3-0.5,1.7l-34.1,34.1c-0.4,0.4-1,0.4-1.4,0l-21.3-21.3c-0.4-0.4-0.4-1,0-1.4
		l34.1-34.1c0.4-0.4,1.1-0.6,1.7-0.5l16.3,4c0.5,0.1,1.1,0.7,1.2,1.2L201.1,70.4z"/>
</g>
<g>
	<path class="st9" d="M188.6,63.4c0.1,0.5-0.1,1.3-0.5,1.7l-31,31c-0.4,0.4-1,0.4-1.4,0l-8.3-8.3c-0.4-0.4-0.4-1,0-1.4l31-31
		c0.4-0.4,1.1-0.6,1.7-0.5l5.9,1.4c0.5,0.1,1.1,0.7,1.2,1.2L188.6,63.4z"/>
</g>
<path class="st10" d="M141.3,78.9l29.7,29.7c0.9,0.9,0.9,2.5,0,3.4l0,0c-0.9,0.9-2.5,0.9-3.4,0l-29.7-29.7c-0.9-0.9-0.9-2.5,0-3.4v0
	C138.8,78,140.4,78,141.3,78.9z"/>
</svg>
