<?xml version="1.0" encoding="utf-8"?>
<!-- Generator: Adobe Illustrator 19.2.1, SVG Export Plug-In . SVG Version: 6.00 Build 0)  -->
<svg version="1.1" id="Layer_1" xmlns="http://www.w3.org/2000/svg" xmlns:xlink="http://www.w3.org/1999/xlink" x="0px" y="0px"
	 viewBox="0 0 612 792" style="enable-background:new 0 0 612 792;" xml:space="preserve">
<style type="text/css">
	.st0{fill:none;}
	.st1{fill:#FEC358;}
	.st2{fill:#E66924;}
	.st3{fill:#99D8E2;}
	.st4{fill:#5FC3CE;}
	.st5{fill:#F8E260;}
	.st6{fill:#533215;}
	.st7{fill:#D1D2D3;}
	.st8{fill:#EAEAEA;}
	.st9{fill:#3D2313;}
	.st10{fill:#FFCD81;}
	.st11{fill:#682110;}
	.st12{fill:#231F20;}
	.st13{fill:#FFE8B0;}
	.st14{fill:#9E9E9E;}
	.st15{fill:#737373;}
	.st16{fill:#FFFEF0;}
	.st17{fill:#FFFFFF;}
	.st18{fill:#4D4D4D;}
	.st19{fill:#AB4B25;}
	.st20{fill:#969696;}
	.st21{fill:#B7B7B8;}
	.st22{fill:#919191;}
	.st23{fill:#1E6767;}
	.st24{fill:#309FA5;}
	.st25{fill:#82351A;}
	.st26{fill:#CD5827;}
	.st27{fill:#F59261;}
	.st28{fill:#9B6727;}
	.st29{fill:#E19C29;}
	.st30{fill:#FEEDA4;}
	.st31{fill:#D2EDF3;}
	.st32{fill:#FFE781;}
	.st33{fill:#AAA887;}
	.st34{fill:#D4D3B0;}
	.st35{fill:#ECEAC3;}
	.st36{fill:#5B7132;}
	.st37{fill:#69883A;}
	.st38{fill:#78A340;}
	.st39{opacity:0.5;}
	.st40{fill:#95C93F;}
	.st41{fill:#76A440;}
	.st42{opacity:0.3;fill:#95C93F;}
	.st43{fill:#EC6D24;}
	.st44{fill:#F6905D;}
	.st45{fill:#FBC6AF;}
	.st46{fill:#FCEFCB;}
	.st47{fill:#E5C195;}
	.st48{fill:#BBBDBF;}
	.st49{fill:#6E6F71;}
</style>
<g>
	<rect x="-9.8" y="106" class="st0" width="73.5" height="73.5"/>
	<g>
		<g>
			<path class="st1" d="M59.8,142.8c0,18.2-12.7,33-33.2,33c-11.2,0-37.6-8.3-28.1-11.4c11-3.7,26.2-13.3,26.2-21.6
				c0-7.2-15.2-16.7-28.2-19.3c-10.7-2.2,17.7-13.7,30.1-13.7C47.1,109.8,59.8,124.5,59.8,142.8z"/>
			<g>
				<path class="st1" d="M14.9,126.8c-6.2,3.3-10.2,7.3-11.1,8.1s-2.4,2.2-0.4,3.3c2.1,1.1,11.6,3.6,19.5,7.3
					C28.3,147.9,22.5,122.8,14.9,126.8z"/>
				<path class="st1" d="M14.9,158.7c-6.2-3.3-10.2-7.3-11.1-8.1s-2.4-2.2-0.4-3.3c2.1-1.1,11.6-3.6,19.5-7.3
					C28.3,137.6,22.5,162.7,14.9,158.7z"/>
			</g>
		</g>
		<g>
			<path class="st2" d="M53.8,142.8c0,10.1-6.3,18.4-16.5,18.4c-5.6,0-18.6-4.6-14-6.4c5.5-2,13-7.4,13-12c0-4-7.5-9.3-14-10.8
				c-5.3-1.2,8.8-7.6,14.9-7.6C47.5,124.4,53.8,132.6,53.8,142.8z"/>
			<g>
				<path class="st2" d="M35.2,147.9c-2.7-1.7-6.9-4.3-7.3-4.7c-0.4-0.4-1-1-0.2-1.6c1.5-1,4.7-3.1,8.3-4.4
					C38.5,136.4,38.5,150,35.2,147.9z"/>
			</g>
		</g>
	</g>
</g>
<g>
	<rect x="-89.8" y="106" class="st0" width="73.5" height="73.5"/>
	<g>
		<g>
			<path class="st3" d="M-20.2,142.8c0,18.2-12.7,33-33.2,33c-11.2,0-37.6-8.3-28.1-11.4c11-3.7,26.2-13.3,26.2-21.6
				c0-7.2-15.2-16.7-28.2-19.3c-10.7-2.2,17.7-13.7,30.1-13.7C-32.9,109.8-20.2,124.5-20.2,142.8z"/>
			<g>
				<path class="st3" d="M-65.1,126.8c-6.2,3.3-10.2,7.3-11.1,8.1s-2.4,2.2-0.4,3.3c2.1,1.1,11.6,3.6,19.5,7.3
					C-51.7,147.9-57.5,122.8-65.1,126.8z"/>
				<path class="st3" d="M-65.1,158.7c-6.2-3.3-10.2-7.3-11.1-8.1s-2.4-2.2-0.4-3.3c2.1-1.1,11.6-3.6,19.5-7.3
					C-51.7,137.6-57.5,162.7-65.1,158.7z"/>
			</g>
		</g>
		<g>
			<path class="st4" d="M-26.2,142.8c0,10.1-6.3,18.4-16.5,18.4c-5.6,0-18.6-4.6-14-6.4c5.5-2,13-7.4,13-12c0-4-7.5-9.3-14-10.8
				c-5.3-1.2,8.8-7.6,14.9-7.6C-32.5,124.4-26.2,132.6-26.2,142.8z"/>
			<g>
				<path class="st4" d="M-44.8,147.9c-2.7-1.7-6.9-4.3-7.3-4.7c-0.4-0.4-1-1-0.2-1.6c1.5-1,4.7-3.1,8.3-4.4
					C-41.5,136.4-41.5,150-44.8,147.9z"/>
			</g>
		</g>
	</g>
</g>
<g>
	<rect x="-89.8" y="182.5" class="st0" width="73.5" height="73.5"/>
	<g>
		<g>
			<path class="st5" d="M-20.2,219.2c0,18.2-12.7,33-33.2,33c-11.2,0-37.6-8.3-28.1-11.4c11-3.7,26.2-13.3,26.2-21.6
				c0-7.2-15.2-16.7-28.2-19.3c-10.7-2.2,17.7-13.7,30.1-13.7C-32.9,186.3-20.2,201-20.2,219.2z"/>
			<g>
				<path class="st5" d="M-65.1,203.3c-6.2,3.3-10.2,7.3-11.1,8.1s-2.4,2.2-0.4,3.3c2.1,1.1,11.6,3.6,19.5,7.3
					C-51.7,224.4-57.5,199.3-65.1,203.3z"/>
				<path class="st5" d="M-65.1,235.2c-6.2-3.3-10.2-7.3-11.1-8.1s-2.4-2.2-0.4-3.3c2.1-1.1,11.6-3.6,19.5-7.3
					C-51.7,214.1-57.5,239.2-65.1,235.2z"/>
			</g>
		</g>
		<g>
			<path class="st1" d="M-26.2,219.2c0,10.1-6.3,18.4-16.5,18.4c-5.6,0-18.6-4.6-14-6.4c5.5-2,13-7.4,13-12c0-4-7.5-9.3-14-10.8
				c-5.3-1.2,8.8-7.6,14.9-7.6C-32.5,200.9-26.2,209.1-26.2,219.2z"/>
			<g>
				<path class="st1" d="M-44.8,224.4c-2.7-1.7-6.9-4.3-7.3-4.7c-0.4-0.4-1-1-0.2-1.6c1.5-1,4.7-3.1,8.3-4.4
					C-41.5,212.9-41.5,226.5-44.8,224.4z"/>
			</g>
		</g>
	</g>
</g>
<g>
	<rect x="65.5" y="105.9" class="st0" width="73.5" height="73.5"/>
	<g>
		<path class="st1" d="M84.2,124.9l-5-5c-0.6-0.6-0.6-1.6,0-2.2l5-5c0.6-0.6,1.6-0.6,2.2,0l5,5c0.6,0.6,0.6,1.6,0,2.2l-5,5
			C85.8,125.6,84.8,125.6,84.2,124.9z"/>
		<path class="st2" d="M105.9,170.7l-26.5-26.5c-0.7-0.7-0.7-1.9,0-2.7l26.5-26.5c0.7-0.7,1.9-0.7,2.7,0l26.5,26.5
			c0.7,0.7,0.7,1.9,0,2.7l-26.5,26.5C107.9,171.4,106.7,171.4,105.9,170.7z"/>
		<path class="st2" d="M72.9,171.6l-3.7-3.7c-0.7-0.7-0.7-1.9,0-2.6l3.7-3.7c0.7-0.7,1.9-0.7,2.6,0l3.7,3.7c0.7,0.7,0.7,1.9,0,2.6
			l-3.7,3.7C74.8,172.3,73.7,172.3,72.9,171.6z"/>
		<path class="st1" d="M93.2,172.6l-13-13c-0.6-0.6-0.6-1.6,0-2.2l13-13c0.6-0.6,1.6-0.6,2.2,0l13,13c0.6,0.6,0.6,1.6,0,2.2l-13,13
			C94.8,173.2,93.8,173.2,93.2,172.6z"/>
	</g>
</g>
<g>
	<rect x="143" y="105.9" class="st0" width="73.5" height="73.5"/>
	<g>
		<path class="st3" d="M161.7,124.9l-5-5c-0.6-0.6-0.6-1.6,0-2.2l5-5c0.6-0.6,1.6-0.6,2.2,0l5,5c0.6,0.6,0.6,1.6,0,2.2l-5,5
			C163.3,125.6,162.3,125.6,161.7,124.9z"/>
		<path class="st4" d="M183.4,170.7l-26.5-26.5c-0.7-0.7-0.7-1.9,0-2.7l26.5-26.5c0.7-0.7,1.9-0.7,2.7,0l26.5,26.5
			c0.7,0.7,0.7,1.9,0,2.7l-26.5,26.5C185.4,171.4,184.2,171.4,183.4,170.7z"/>
		<path class="st4" d="M150.4,171.6l-3.7-3.7c-0.7-0.7-0.7-1.9,0-2.6l3.7-3.7c0.7-0.7,1.9-0.7,2.6,0l3.7,3.7c0.7,0.7,0.7,1.9,0,2.6
			l-3.7,3.7C152.3,172.3,151.2,172.3,150.4,171.6z"/>
		<path class="st3" d="M170.7,172.6l-13-13c-0.6-0.6-0.6-1.6,0-2.2l13-13c0.6-0.6,1.6-0.6,2.2,0l13,13c0.6,0.6,0.6,1.6,0,2.2l-13,13
			C172.3,173.2,171.3,173.2,170.7,172.6z"/>
	</g>
</g>
<g>
	<rect x="219.9" y="105.9" class="st0" width="73.5" height="73.5"/>
	<g>
		<path class="st5" d="M238.6,124.9l-5-5c-0.6-0.6-0.6-1.6,0-2.2l5-5c0.6-0.6,1.6-0.6,2.2,0l5,5c0.6,0.6,0.6,1.6,0,2.2l-5,5
			C240.2,125.6,239.2,125.6,238.6,124.9z"/>
		<path class="st1" d="M260.4,170.7l-26.5-26.5c-0.7-0.7-0.7-1.9,0-2.7l26.5-26.5c0.7-0.7,1.9-0.7,2.7,0l26.5,26.5
			c0.7,0.7,0.7,1.9,0,2.7l-26.5,26.5C262.3,171.4,261.1,171.4,260.4,170.7z"/>
		<path class="st1" d="M227.4,171.6l-3.7-3.7c-0.7-0.7-0.7-1.9,0-2.6l3.7-3.7c0.7-0.7,1.9-0.7,2.6,0l3.7,3.7c0.7,0.7,0.7,1.9,0,2.6
			l-3.7,3.7C229.2,172.3,228.1,172.3,227.4,171.6z"/>
		<path class="st5" d="M247.7,172.6l-13-13c-0.6-0.6-0.6-1.6,0-2.2l13-13c0.6-0.6,1.6-0.6,2.2,0l13,13c0.6,0.6,0.6,1.6,0,2.2l-13,13
			C249.2,173.2,248.3,173.2,247.7,172.6z"/>
	</g>
</g>
<g>
	<rect x="381.2" y="26" class="st0" width="73.5" height="73.5"/>
	<g>
		<path class="st6" d="M418.2,69.6l-23,23c-0.3,0.3-0.7,0.3-1,0l-6.1-6.1c-0.3-0.3-0.3-0.7,0-1l23-23c0.3-0.3,0.7-0.3,1,0l6.1,6.1
			C418.5,68.9,418.5,69.3,418.2,69.6z"/>
		<g>
			<path class="st7" d="M449.8,52.4c0.1,0.5-0.1,1.3-0.5,1.7l-34.1,34.1c-0.4,0.4-1,0.4-1.4,0l-21.3-21.3c-0.4-0.4-0.4-1,0-1.4
				l34.1-34.1c0.4-0.4,1.1-0.6,1.7-0.5l16.3,4c0.5,0.1,1.1,0.7,1.2,1.2L449.8,52.4z"/>
		</g>
		<g>
			<path class="st8" d="M437.3,45.4c0.1,0.5-0.1,1.3-0.5,1.7l-31,31c-0.4,0.4-1,0.4-1.4,0l-8.3-8.3c-0.4-0.4-0.4-1,0-1.4l31-31
				c0.4-0.4,1.1-0.6,1.7-0.5l5.9,1.4c0.5,0.1,1.1,0.7,1.2,1.2L437.3,45.4z"/>
		</g>
		<path class="st1" d="M390,60.9l29.7,29.7c0.9,0.9,0.9,2.5,0,3.4v0c-0.9,0.9-2.5,0.9-3.4,0l-29.7-29.7c-0.9-0.9-0.9-2.5,0-3.4v0
			C387.5,60,389,60,390,60.9z"/>
	</g>
</g>
<g>
	<rect x="215.3" y="29.5" class="st0" width="73.5" height="73.5"/>
	<g>
		<path class="st9" d="M262.9,37.7c0-1.4-1.2-3.6-5-5.4c-3.8-1.9-17-4.4-27,9c-8.8,11.8-1.8,21.1-1.8,35.8
			c2.3,1.8,16.3,0.3,20.8-0.5C251.6,76.5,263.4,70.7,262.9,37.7z"/>
		<path class="st9" d="M241.5,37.7c0-1.4,8.8,0.2,12.6-1.6c3.8-1.9,10.3-6.7,19.4,5.2c8.9,11.7,1.8,21.1,1.8,35.8
			c-2.3,1.8-16.3,0.3-20.8-0.5C252.8,76.5,241,70.7,241.5,37.7z"/>
		<g>
			<path class="st10" d="M246.8,73.2c-2.1-1.9-5.7-1.9-8.5-0.5c-1.7,0.9-3.7,2.3-5.7,3.9c0.8,2.5,1.3,4.6,3.8,6.1
				c1.9,0.2,6.2-2.1,9.5-3.2C249,78.4,248.9,75,246.8,73.2z"/>
		</g>
		<path class="st10" d="M257.1,79.2c12.4,4.4,13.3,6.6,14.8,4.7c1.5-1.9-5.1-9.1-9.5-11.6c-2.1-1.2-4.8-1-6.3,0.9
			C254.7,75.1,254.8,78.4,257.1,79.2z"/>
		<g>
			<path class="st11" d="M252.2,68C252.2,68,252.2,68,252.2,68c-8.6,0-8.6,1.8-12.3,17.8c-1,4.4-0.3,10.4,3.9,14.8
				c1.6,1.7,1.8-5.9,8.4-5.9c0,0,0,0,0.1,0V68z"/>
			<path class="st11" d="M251.9,68C251.9,68,251.9,68,251.9,68c8.6,0,8.6,1.8,12.3,17.8c1,4.4,0.3,10.4-3.9,14.8
				c-1.6,1.7-1.8-5.9-8.4-5.9c0,0,0,0-0.1,0V68z"/>
		</g>
		<g>
			<g>
				<g>
					<path class="st12" d="M244,70.2l-5.5,15.9c-0.2,0.5,0.1,1,0.7,1.1c0,0,9.5,1.6,12.9,1.6C255.6,88.9,261.9,68.6,244,70.2z"/>
				</g>
				<g>
					<path class="st12" d="M260.1,70.2l5.5,15.9c0.2,0.5-0.1,1-0.7,1.1c0,0-9.5,1.6-12.9,1.6C248.5,88.9,242.1,68.6,260.1,70.2z"/>
				</g>
			</g>
		</g>
		<g>
			<path class="st10" d="M252.2,34.9c-12.2,0-19.6,4.6-22.2,18.1c-2,10.6,5.7,19.5,22.2,19.5V34.9z"/>
			<path class="st10" d="M251.9,34.9c12.2,0,19.6,4.6,22.2,18.1c2,10.6-5.7,19.5-22.2,19.5V34.9z"/>
		</g>
		<g>
			<circle class="st12" cx="240.2" cy="58" r="2.6"/>
			<circle class="st12" cx="263.9" cy="58" r="2.6"/>
		</g>
		<path class="st9" d="M259.9,35.3c0,2.9-1.3,12.1-7.5,17.5c1.2-3.1,1.2-5.6,1.2-6.2c-6.2,7.3-20.8,9.4-24.7,8.9
			C229.9,49.1,234.2,27.4,259.9,35.3z"/>
		<path class="st9" d="M258.4,33.9c0,2.8,2,13.9,8.5,18.7c-0.5-1-1.2-4.3-1.2-5.9c2.5,5.3,6.5,7.9,9.3,8.8
			C275.7,48.3,268.9,33.1,258.4,33.9z"/>
		<g>
			<path class="st2" d="M274.9,91.6c1.7-3.6,4.7-7,4.7-7c0.7-0.8,0.4-1.6-0.7-1.8l-16.2-2.2c-1.1-0.1-2.4,0.5-2.8,1.5l-1.8,3.9
				c-0.5,1-0.2,2.4,0.6,3.2l12,11.1c0.8,0.7,1.6,0.5,1.8-0.6C272.5,99.8,273.2,95.2,274.9,91.6z"/>
		</g>
		<g>
			<path class="st2" d="M225.5,68.4c-0.7,1.4-1.1,1.9-1.1,1.9c-0.7,0.8-0.4,1.6,0.7,1.8l4.1,0.6c1.1,0.1,2.3-0.4,2.7-1.2
				s0.1-2.1-0.8-2.9l-3.1-2.8c-0.8-0.7-1.6-0.5-1.8,0.6C226.3,66.3,226.2,67,225.5,68.4z"/>
		</g>
		
			<rect x="249.7" y="57.5" transform="matrix(0.4202 -0.9074 0.9074 0.4202 72.842 275.101)" class="st12" width="4" height="46.2"/>
		<polygon class="st7" points="272.6,90.4 226.4,69 226.5,68.7 272.7,90.1 		"/>
		<polygon class="st7" points="273,89.5 226.8,68.1 226.9,67.8 273.1,89.2 		"/>
		<polygon class="st7" points="272.2,91.5 226,70.1 226.1,69.8 272.3,91.2 		"/>
		<path class="st10" d="M239.6,78.8c-3.7-7.8-3.8-9.5-5.3-9.4s-3.9,6.4-2.5,10.5c0.5,1.5,2.7,3,4.2,2.9S241,81.7,239.6,78.8z"/>
		<path class="st10" d="M264,80.9c4.6,4.5,7,6.9,8,6.4c1-0.5,0.5-5.1-1.6-7.7c-0.8-0.9-2.3-1.8-3.3-1.3
			C266.1,78.8,262.4,79.2,264,80.9z"/>
	</g>
</g>
<g>
	<rect x="297" y="29" class="st0" width="73.5" height="73.5"/>
	<g>
		<path class="st12" d="M326.5,35.4c0-1.3,3.3-2.9,6.7-3.3c3.3-0.3,19.8-5.1,27.2,10.8c7.8,16.8,1.4,23-1.2,25.3
			c-2.7,2.3-9.2,5.2-17.2,4.2C340.2,72.4,326,65.6,326.5,35.4z"/>
		<path class="st12" d="M350.6,35.4c0-1.3-3.3-2.9-6.7-3.3c-3.3-0.3-20.4-5.6-28.1,10.1c-6.5,13.2-1.8,22.6,0.9,24.9
			c2.7,2.3,7.1,4.6,14.8,5.3C333.2,72.4,351.1,65.6,350.6,35.4z"/>
		<path class="st12" d="M320.2,37.7c0-3.3-0.3-7.5-7-7.7c0.7,1.1,1.1,1.8,1.6,2.6c-2.5-3.1-6.1-3-11.3,1.4c-0.2,4.5,0,9.2,5.9,8.5
			c-1.7,1-3.8,0.3-5.4-0.3C305.8,46.3,317.5,51.1,320.2,37.7z"/>
		<g>
			<path class="st13" d="M332.4,78.8c-12.1,4.4-14.2,7.7-15.6,5.8c-1.4-1.9,6.2-10.2,10.5-12.6c2.1-1.2,4.7-1,6.2,0.9
				C334.8,74.8,334.7,78,332.4,78.8z"/>
			<path class="st13" d="M344.7,78.8c12.1,4.4,14.2,7.7,15.6,5.8c1.4-1.9-6.2-10.2-10.5-12.6c-2.1-1.2-4.7-1-6.2,0.9
				C342.3,74.8,342.5,78,344.7,78.8z"/>
		</g>
		<g>
			<path class="st13" d="M339.2,68.6C339.2,68.6,339.2,68.6,339.2,68.6c-8.6,0-8.6,1.8-12.3,17.8c-1,4.4-0.3,10.4,3.9,14.8
				c1.6,1.7,1.8-5.9,8.4-5.9c0,0,0,0,0.1,0V68.6z"/>
			<path class="st13" d="M338.9,68.6C338.9,68.6,338.9,68.6,338.9,68.6c8.6,0,8.6,1.8,12.3,17.8c1,4.4,0.3,10.4-3.9,14.8
				c-1.6,1.7-1.8-5.9-8.4-5.9c0,0,0,0-0.1,0V68.6z"/>
		</g>
		<g>
			<g>
				<g>
					<path class="st4" d="M332,70.2l-8.7,22.6c-0.2,0.5,0.1,1,0.6,1.1c0,0,11.3,2.3,15.3,2.3C343.2,96.2,353,67.9,332,70.2z"/>
				</g>
				<g>
					<path class="st4" d="M346.1,70.2l8.7,22.6c0.2,0.5-0.1,1-0.6,1.1c0,0-11.3,2.3-15.3,2.3C334.9,96.2,325.1,67.9,346.1,70.2z"/>
				</g>
			</g>
		</g>
		<g>
			<path class="st13" d="M338.7,34.8c-12.2,0-19.6,4.6-22.2,18.1c-2,10.6,5.7,19.5,22.2,19.5V34.8z"/>
			<path class="st13" d="M338.4,34.8c12.2,0,19.6,4.6,22.2,18.1c2,10.6-5.7,19.5-22.2,19.5V34.8z"/>
		</g>
		<g>
			<circle class="st12" cx="326.7" cy="57.9" r="2.6"/>
			<circle class="st12" cx="350.4" cy="57.9" r="2.6"/>
		</g>
		<path class="st12" d="M343.7,33.3c2.6,1,3.8,6.2,1.7,10.2c-2.2,4-14.2,11.8-29.3,9.1c0.5-6.1,2-14.6,10.8-17.6
			C335.7,32,342.1,32.6,343.7,33.3z"/>
		<path class="st12" d="M343.9,34.3c0.3,3.2,2.2,17.8,17.7,19.3C360.4,46.9,357.6,32.6,343.9,34.3z"/>
		<path class="st4" d="M314.2,47.3c-0.1,0-0.2,0-0.3-0.1c-0.5-0.2-0.8-0.8-0.6-1.3c1.7-4.9,5.3-9.5,6-10.4c0.3-0.4,1-0.5,1.4-0.2
			c0.4,0.3,0.5,1,0.2,1.4c-0.7,0.8-4,5.2-5.7,9.8C315,47,314.7,47.3,314.2,47.3z"/>
	</g>
</g>
<g>
	<rect x="66.2" y="184" class="st0" width="73.5" height="73.5"/>
	<g>
		<path class="st14" d="M138.3,228.3c-2-24.5-15.5-41.5-34.7-42.3v0c-0.2,0-0.5,0-0.7,0c-0.2,0-0.5,0-0.7,0v0
			c-19.2,0.8-32.7,17.9-34.7,42.3c-1.2,14.9,8.9,26.8,34.7,27.3v0c0.2,0,0.5,0,0.7,0c0.2,0,0.5,0,0.7,0v0
			C129.4,255.2,139.6,243.2,138.3,228.3z"/>
		<path class="st15" d="M138.3,228.3c-2-24.5-15.5-41.5-34.7-42.3v0c-0.2,0-0.5,0-0.7,0c-0.2,0-0.5,0-0.7,0v0
			c-0.6,0-1.2,0.1-1.8,0.1c15.8,1.7,26.8,17.6,28.6,40.2c1.1,14.2-7.7,25.6-30.2,26v0c-0.2,0-0.4,0-0.6,0c-0.2,0-0.4,0-0.6,0v0
			c-20.7-0.4-29.8-10.1-30.2-22.7c-0.6,14.3,9.7,25.6,34.8,26v0c0.2,0,0.5,0,0.7,0c0.2,0,0.5,0,0.7,0v0
			C129.4,255.2,139.6,243.2,138.3,228.3z"/>
		<path class="st7" d="M92.2,204.5c-5.1,7.1-7.2,10.9-10.6,8.5c-3.4-2.4-4.5-5.2,0.6-12.4c5.1-7.1,12-10.9,15.4-8.5
			C101,194.6,97.4,197.4,92.2,204.5z"/>
	</g>
</g>
<g>
	<rect x="-10" y="183.9" class="st0" width="73.5" height="73.5"/>
	<g>
		<g>
			<circle class="st16" cx="6.2" cy="238.4" r="14.5"/>
			<circle class="st16" cx="43.7" cy="210.8" r="18.1"/>
			<circle class="st16" cx="44" cy="235.3" r="17.8"/>
			<circle class="st16" cx="38" cy="197.1" r="11.4"/>
			<circle class="st16" cx="27.5" cy="241.1" r="14.5"/>
			<circle class="st16" cx="17.1" cy="211.5" r="24.6"/>
		</g>
		<path class="st17" d="M11.5,205.3c-4.5,6.3-6.4,9.6-9.7,7.2c-3.4-2.4-4.6-5.1-0.1-11.4s10.9-9.4,14.3-7S16,199,11.5,205.3z"/>
	</g>
</g>
<g>
	<rect x="-9.8" y="262.7" class="st0" width="73.5" height="73.5"/>
	<g>
		<g>
			<path class="st1" d="M27,335.2c-18.2,0-33-11.5-33-30.1c0-10.2,8.3-34.1,11.4-25.5c3.7,10,13.3,23.8,21.6,23.8
				c7.2,0,16.7-13.8,19.3-25.6c2.2-9.7,13.7,16.1,13.7,27.3C59.9,323.7,45.2,335.2,27,335.2z"/>
			<g>
				<path class="st1" d="M47.6,293.8c-3.3-10.3-9.4-19.7-10.2-20.8s-2.5-2.9-3.7-0.4s-5.1,17.4-9.1,26.7
					C21.8,305.7,50.7,303.3,47.6,293.8z"/>
				<path class="st1" d="M5.6,289.9c5-13.3,13-23.4,13.9-24.5s2.5-2.9,3.7-0.4s11.1,31.6,15.1,40.9C41.1,312.3,2.1,299.3,5.6,289.9z
					"/>
			</g>
		</g>
		<g>
			<path class="st2" d="M24.6,331c11.1,0,20-6.4,20-16.7c0-5.7-5-18.9-6.9-14.2c-2.2,5.6-8.1,13.2-13.1,13.2
				c-4.4,0-10.1-7.7-11.7-14.2c-1.3-5.4-8.3,8.9-8.3,15.2C4.6,324.6,13.6,331,24.6,331z"/>
			<g>
				<path class="st2" d="M33.1,308.1c-1.6-9.8-7.5-18.2-8.2-19.3c-0.7-1-1.8-2.7-3-0.3c-2,4.1-6,10-8.6,22.4
					C11.8,317.7,34.6,317.3,33.1,308.1z"/>
			</g>
		</g>
	</g>
</g>
<g>
	<rect x="141.9" y="183.7" class="st0" width="73.5" height="73.5"/>
	<g>
		<path class="st18" d="M212.4,253.4c0,0.6-0.5,1.3-1,1.3c-10.9,0-10.9-0.5-21.8-0.5c-10.9,0-10.9,0.4-21.8,0.4
			c-10.9,0-10.9-0.7-21.8-0.7c-0.5,0-1.5-0.1-1.5-0.6c0-10.4,1.2-10.4,1.2-20.9c0-10.4-0.8-10.4-0.8-20.9c0-10.4-0.1-10.4-0.1-20.9
			c0-0.6,0.1-1.7,0.6-2.1c0.9-0.8,1.1-0.6,2-1.4c0.4-0.4,1.4-0.5,1.9-0.5c14.8,0,14.8-0.1,29.5-0.1s14.8-0.4,29.5-0.4
			c0.5,0,0.7-0.3,1.2,0c0.7,0.5,1.3,1.6,2,2.1c0.5,0.3,1.5,1,1.5,1.5c0,10.6-1.1,10.6-1.1,21.2c0,10.6,0.7,10.6,0.7,21.2
			S212.4,242.9,212.4,253.4z"/>
		<polygon class="st15" points="209.5,239.4 210,246 212.5,254 211.6,255 185.3,254.3 169.6,254.6 145.1,254.4 144.3,252.6 
			147.9,239.4 163.3,229.3 		"/>
		<path class="st19" d="M185.3,200.6"/>
		<polygon class="st20" points="193.6,239 193,243.6 194,249 184.3,249 184,238.6 		"/>
		<polygon class="st15" points="148.8,186.5 145,188.6 144.6,217 145.3,226 145,244 144.3,252.6 147.6,253 163,217.6 152.6,190 		
			"/>
		<path class="st14" d="M209.6,238.5c0,1-0.8,1.8-1.8,1.8c-9.3-0.1-9.5-1.5-19.2-1.5c-9.9,0-9.9,0.3-19.8,0.3
			c-9.9,0-9.9,0.6-19.8,0.6c-0.7,0-1.2-0.5-1.2-1.2c0-8.3,0.7-8.3,0.7-16.5c0-8.3-0.5-8.3-0.5-16.5c0-8.3,0.7-10.3,0.6-18.7
			c10.1,0.2,10.1-0.1,20.1,0.1c9.9,0.2,10.2-0.6,20.1-0.6c4.6,0,10.2-0.2,19.3-0.2c1,0,1.4,2.5,1.4,3.5c0,8.4-0.8,8.3-0.8,16.5
			c0,8.1,1.2,8.1,1.2,16.2C209.9,230.3,209.6,230.3,209.6,238.5z"/>
		<polygon class="st21" points="184,238.6 184,229.3 185,219.3 194.3,219 193.3,228 193.6,239 		"/>
		<polygon class="st21" points="157,186.8 156.6,193.5 156.6,201.1 171.3,200.5 178.6,200.5 178.6,194.5 166,194.1 166.6,186.8 		
			"/>
		<polygon class="st21" points="152.1,230.6 152,234.1 156.1,235 		"/>
		<polygon class="st21" points="172,216.8 170.8,219.1 174.5,219.1 		"/>
		<polygon class="st21" points="161.6,202.5 160.5,204.8 164.1,204.8 		"/>
		<polygon class="st20" points="165.3,240.8 164.1,243.1 167.8,243.1 		"/>
		<polygon class="st21" points="197.1,192.1 192.8,193.1 196.3,194.3 		"/>
		<polygon class="st21" points="170.1,203.1 165.8,204.1 169.3,205.3 		"/>
		<polygon class="st20" points="156.5,248.1 152.1,249.1 155.6,250.3 		"/>
		<polygon class="st21" points="202.3,196.5 201.6,197.8 206.1,199.1 		"/>
		<polygon class="st20" points="177.1,247.1 176.5,248.5 181,249.8 		"/>
		<polygon class="st21" points="201.1,218.6 199.3,221 201.8,221 		"/>
		<polygon class="st20" points="207,249.6 205.1,252 207.6,252 		"/>
	</g>
</g>
<g>
	<rect x="296.7" y="184.2" class="st0" width="73.5" height="73.5"/>
	<g>
		<polygon class="st18" points="318.1,244.3 317.9,253 310.9,252.8 310.9,255.1 321.9,255.6 322.9,247 		"/>
		<polygon class="st18" points="344,245.1 344.6,253.7 337.6,254.1 337.8,256.4 348.8,256 348.8,243.3 		"/>
		<path class="st15" d="M366.4,241.3c0,1-4.3,9-5.3,9c-9.3-0.1-6-6.7-15.7-6.7c-9.9,0-9.9,0.3-19.8,0.3c-9.9,0-9.9,0.6-19.8,0.6
			c-0.7,0-1.2-0.5-1.2-1.2c0-8.3,0.7-5.3,0.7-13.5c0-8.3-3.7-10.7-4.4-18.7c1.2-3,6.5-4.3,9-7.3c2.8,0,5.6-0.6,15.6-0.4
			c9.9,0.2,10.2-0.6,20.1-0.6c4.6,0,10.2,0.3,19.3,0.3c1,0,1,5,1,6c0,8.4-0.4-0.4-0.4,7.8c0,8.1,1.2,5.1,1.2,13.2
			C366.8,238.1,366.4,233.1,366.4,241.3z"/>
		<path class="st14" d="M362.1,248.6c0,1-0.8,1.8-1.8,1.8c-9.3-0.1-9.5-1.5-19.2-1.5c-9.9,0-9.9,0.3-19.8,0.3
			c-9.9,0-9.9,0.6-19.8,0.6c-0.7,0-1.2-0.5-1.2-1.2c0-8.3,0.7-4.3,0.7-12.5c0-8.3-0.5-2.3-0.5-10.5c0-8.3,0.7-6.3,0.6-14.7
			c10.1,0.2,10.1-0.1,20.1,0.1c9.9,0.2,10.2-0.6,20.1-0.6c4.6,0,10.2-0.2,19.3-0.2c1,0,1.4,2.5,1.4,3.5c0,8.4-0.8,4.3-0.8,12.5
			c0,8.1,1.2,2.1,1.2,10.2C362.4,244.5,362.1,240.4,362.1,248.6z"/>
		<path class="st15" d="M349.8,203.1c0,0.4-4.5,5.2-4.9,5.2c-4.2,0-2.7-3.1-7.1-3.1c-4.5,0-4.5,0.1-9,0.1c-4.5,0-4.5,0.3-9,0.3
			c-0.3,0-0.5-0.2-0.5-0.5c0-3.8,0.3-2.4,0.3-6.2c0-3.8-1.7-4.9-2-8.5c0.5-1.4,5.5-3.1,6.6-4.5c1.3,0,2.5-0.3,7.1-0.2
			c4.5,0.1,4.6-0.3,9.2-0.3c2.1,0,4.6,0.1,8.8,0.2c0.5,0,0.5,2.3,0.5,2.7c0,3.8-0.2-0.2-0.2,3.6c0,3.7,0.5,2.3,0.5,6
			C349.9,201.7,349.8,199.4,349.8,203.1z"/>
		<path class="st14" d="M345.3,207.6c0,0.4-0.4,0.8-0.8,0.8c-4.2,0-4.3-0.7-8.7-0.7c-4.5,0-4.5,0.1-9,0.1c-4.5,0-4.5,0.3-9,0.3
			c-0.3,0-0.5-0.2-0.5-0.5c0-3.8,0.3-1.9,0.3-5.7c0-3.8-0.2-1-0.2-4.8c0-3.8,0.3-2.9,0.3-6.7c4.6,0.1,4.6,0,9.1,0
			c4.5,0.1,4.6-0.3,9.2-0.3c2.1,0,4.6-0.1,8.8-0.1c0.5,0,0.6,1.2,0.6,1.6c0,3.8-0.4,1.9-0.4,5.7c0,3.7,0.5,1,0.5,4.6
			C345.4,205.7,345.3,203.9,345.3,207.6z"/>
		<polygon class="st18" points="324.8,200.6 321.9,200.5 321.8,196.4 324.7,196.2 		"/>
		<polygon class="st21" points="348.6,220 347.8,224.6 314.5,224.7 312.9,220.1 		"/>
		<polygon class="st21" points="348.6,231.1 347.8,235.8 314.5,235.9 312.9,231.3 		"/>
		<polygon class="st18" points="341.6,200.6 338.7,200.5 338.6,196.4 341.5,196.2 		"/>
		<polygon class="st18" points="307.8,207.1 307.8,200 304.8,199.5 304.8,190.7 306.9,190.6 306.8,196.8 311.9,197 312.6,190.4 
			314.8,190.4 314.8,199.1 311.1,200 311.1,207 		"/>
		<polygon class="st18" points="355.4,207.1 355.4,200 352.4,199.5 352.4,190.7 354.6,190.6 354.4,196.8 359.6,197 360.3,190.4 
			362.4,190.4 362.4,199.1 358.8,200 358.8,207 		"/>
		<polygon class="st21" points="326.8,214.8 322.4,215.8 325.9,217 		"/>
		<polygon class="st21" points="350.4,243.6 346.1,244.6 349.6,245.8 		"/>
		<polygon class="st21" points="308.6,215.3 307.4,217.6 311.1,217.6 		"/>
		<polygon class="st21" points="315.1,240.3 313.9,242.6 317.6,242.6 		"/>
		<polygon class="st21" points="361.3,220.6 356.9,221.6 360.4,222.8 		"/>
		<polygon class="st21" points="304.9,221.6 304.3,223 308.8,224.3 		"/>
	</g>
</g>
<g>
	<rect x="219.2" y="184.1" class="st0" width="73.5" height="73.5"/>
	<g>
		<g>
			<polygon class="st18" points="240.6,244.4 240.4,253.1 233.4,252.9 233.4,255.3 244.4,255.8 245.4,243.1 			"/>
			<polygon class="st18" points="266.5,245.2 267.1,253.8 260.1,254.2 260.3,256.6 271.3,256.2 271.3,243.5 			"/>
			<path class="st15" d="M288.9,237.4c0,1-4.3,13-5.3,13c-9.3-0.1-6-10.7-15.7-10.7c-9.9,0-9.9,0.3-19.8,0.3
				c-9.9,0-9.9,0.6-19.8,0.6c-0.7,0-1.2-0.5-1.2-1.2c0-8.3,0.7-8.3,0.7-16.5c0-8.3-3.7-17.7-4.4-25.7c1.2-3,6.5-4.3,9-7.3
				c2.8,0,5.6-0.6,15.6-0.4c9.9,0.2,10.2-0.6,20.1-0.6c4.6,0,10.2,0.3,19.3,0.3c1,0,1,5,1,6c0,8.4-0.4,3.6-0.4,11.8
				c0,8.1,1.2,8.1,1.2,16.2C289.3,231.3,288.9,229.2,288.9,237.4z"/>
			<path class="st14" d="M284.6,248.8c0,1-0.8,1.8-1.8,1.8c-9.3-0.1-9.5-1.5-19.2-1.5c-9.9,0-9.9,0.3-19.8,0.3
				c-9.9,0-9.9,0.6-19.8,0.6c-0.7,0-1.2-0.5-1.2-1.2c0-8.3,0.7-8.3,0.7-16.5c0-8.3-0.5-8.3-0.5-16.5c0-8.3,0.7-10.3,0.6-18.7
				c10.1,0.2,10.1-0.1,20.1,0.1c9.9,0.2,10.2-0.6,20.1-0.6c4.6,0,10.2-0.2,19.3-0.2c1,0,1.4,2.5,1.4,3.5c0,8.4-0.8,8.3-0.8,16.5
				c0,8.1,1.2,8.1,1.2,16.2C284.9,240.6,284.6,240.6,284.6,248.8z"/>
			<polygon class="st18" points="242.2,215.9 237.8,215.7 237.6,209.4 242.1,209.1 			"/>
			<polygon class="st18" points="268.2,215.9 263.8,215.7 263.6,209.4 268.1,209.1 			"/>
			<polygon class="st18" points="253.8,192.9 253.8,188.4 250.8,187.9 250.8,185.4 260.8,185.1 260.8,187.6 255.8,188.4 
				255.8,192.8 			"/>
		</g>
		<polygon class="st21" points="229.4,213.9 225.1,214.9 228.6,216.1 		"/>
		<polygon class="st21" points="278.3,216.3 277.1,218.6 280.8,218.6 		"/>
		<polygon class="st21" points="245.8,227.9 244.6,230.3 248.3,230.3 		"/>
		<polygon class="st21" points="253.9,205.1 252.8,207.4 256.4,207.4 		"/>
		<polygon class="st22" points="265.9,191.8 264.8,194.1 268.4,194.1 		"/>
		<polygon class="st22" points="287.5,209.7 284.9,210.1 287.1,213.1 		"/>
		<polygon class="st21" points="249.8,239.6 245.4,240.6 248.9,241.8 		"/>
		<polygon class="st21" points="274.3,230.8 273.1,233.1 276.8,233.1 		"/>
		<polygon class="st21" points="276.4,202.6 272.1,203.6 275.6,204.8 		"/>
		<polygon class="st22" points="285.8,190.4 281.4,191.4 284.9,192.6 		"/>
		<polygon class="st22" points="288.3,236.5 285.4,237.1 287.7,237.9 		"/>
		<polygon class="st21" points="230.8,233.1 230.1,234.4 234.6,235.8 		"/>
		<polygon class="st21" points="226.8,198.1 226.1,199.4 230.6,200.8 		"/>
		<polygon class="st21" points="274.1,242.4 273.4,243.8 277.9,245.1 		"/>
		<polygon class="st22" points="245.8,191.1 245.1,192.4 249.6,193.8 		"/>
		<polygon class="st22" points="234.3,191.4 233.1,193.8 236.8,193.8 		"/>
	</g>
</g>
<polygon class="st4" points="137.5,453.8 135,454.2 137.2,457.2 "/>
<polygon class="st4" points="138.3,504.5 135.5,505.2 137.8,506 "/>
<g>
	<rect x="146.7" y="428.2" class="st0" width="73.5" height="73.5"/>
	<g>
		<polygon class="st23" points="168.1,488.3 167.9,497 160.9,496.8 160.9,499.1 171.9,499.6 172.9,491 		"/>
		<polygon class="st23" points="194,489.1 194.6,497.7 187.6,498.1 187.8,500.4 198.8,500 198.8,487.3 		"/>
		<path class="st24" d="M216.4,485.3c0,1-4.3,9-5.3,9c-9.3-0.1-6-6.7-15.7-6.7c-9.9,0-9.9,0.3-19.8,0.3c-9.9,0-9.9,0.6-19.8,0.6
			c-0.7,0-1.2-0.5-1.2-1.2c0-8.3,0.7-5.3,0.7-13.5c0-8.3-3.7-10.7-4.4-18.7c1.2-3,6.5-4.3,9-7.3c2.8,0,5.6-0.6,15.6-0.4
			c9.9,0.2,10.2-0.6,20.1-0.6c4.6,0,10.2,0.3,19.3,0.3c1,0,1,5,1,6c0,8.4-0.4-0.4-0.4,7.8c0,8.1,1.2,5.1,1.2,13.2
			C216.8,482.1,216.4,477.1,216.4,485.3z"/>
		<path class="st4" d="M212.1,492.6c0,1-0.8,1.8-1.8,1.8c-9.3-0.1-9.5-1.5-19.2-1.5c-9.9,0-9.9,0.3-19.8,0.3
			c-9.9,0-9.9,0.6-19.8,0.6c-0.7,0-1.2-0.5-1.2-1.2c0-8.3,0.7-4.3,0.7-12.5c0-8.3-0.5-2.3-0.5-10.5c0-8.3,0.7-6.3,0.6-14.7
			c10.1,0.2,10.1-0.1,20.1,0.1c9.9,0.2,10.2-0.6,20.1-0.6c4.6,0,10.2-0.2,19.3-0.2c1,0,1.4,2.5,1.4,3.5c0,8.4-0.8,4.3-0.8,12.5
			c0,8.1,1.2,2.1,1.2,10.2C212.4,488.5,212.1,484.4,212.1,492.6z"/>
		<path class="st24" d="M199.8,447.1c0,0.4-4.5,5.2-4.9,5.2c-4.2,0-2.7-3.1-7.1-3.1c-4.5,0-4.5,0.1-9,0.1c-4.5,0-4.5,0.3-9,0.3
			c-0.3,0-0.5-0.2-0.5-0.5c0-3.8,0.3-2.4,0.3-6.2c0-3.8-1.7-4.9-2-8.5c0.5-1.4,5.5-3.1,6.6-4.5c1.3,0,2.5-0.3,7.1-0.2
			c4.5,0.1,4.6-0.3,9.2-0.3c2.1,0,4.6,0.1,8.8,0.2c0.5,0,0.5,2.3,0.5,2.7c0,3.8-0.2-0.2-0.2,3.6c0,3.7,0.5,2.3,0.5,6
			C199.9,445.7,199.8,443.4,199.8,447.1z"/>
		<path class="st4" d="M195.3,451.6c0,0.4-0.4,0.8-0.8,0.8c-4.2,0-4.3-0.7-8.7-0.7c-4.5,0-4.5,0.1-9,0.1c-4.5,0-4.5,0.3-9,0.3
			c-0.3,0-0.5-0.2-0.5-0.5c0-3.8,0.3-1.9,0.3-5.7c0-3.8-0.2-1-0.2-4.8c0-3.8,0.3-2.9,0.3-6.7c4.6,0.1,4.6,0,9.1,0
			c4.5,0.1,4.6-0.3,9.2-0.3c2.1,0,4.6-0.1,8.8-0.1c0.5,0,0.6,1.2,0.6,1.6c0,3.8-0.4,1.9-0.4,5.7c0,3.7,0.5,1,0.5,4.6
			C195.4,449.7,195.3,447.9,195.3,451.6z"/>
		<polygon class="st23" points="174.8,444.6 171.9,444.5 171.8,440.4 174.7,440.2 		"/>
		<polygon class="st3" points="198.6,464 197.8,468.6 164.5,468.7 162.9,464.1 		"/>
		<polygon class="st3" points="198.6,475.1 197.8,479.8 164.5,479.9 162.9,475.3 		"/>
		<polygon class="st23" points="191.6,444.6 188.7,444.5 188.6,440.4 191.5,440.2 		"/>
		<polygon class="st23" points="157.8,451.1 157.8,444 154.8,443.5 154.8,434.7 156.9,434.6 156.8,440.8 161.9,441 162.6,434.4 
			164.8,434.4 164.8,443.1 161.1,444 161.1,451 		"/>
		<polygon class="st23" points="205.4,451.1 205.4,444 202.4,443.5 202.4,434.7 204.6,434.6 204.4,440.8 209.6,441 210.3,434.4 
			212.4,434.4 212.4,443.1 208.8,444 208.8,451 		"/>
		<polygon class="st3" points="176.8,458.8 172.4,459.8 175.9,461 		"/>
		<polygon class="st3" points="200.4,487.6 196.1,488.6 199.6,489.8 		"/>
		<polygon class="st3" points="158.6,459.3 157.4,461.6 161.1,461.6 		"/>
		<polygon class="st3" points="165.1,484.3 163.9,486.6 167.6,486.6 		"/>
		<polygon class="st3" points="211.3,464.6 206.9,465.6 210.4,466.8 		"/>
		<polygon class="st3" points="154.9,465.6 154.3,467 158.8,468.3 		"/>
	</g>
</g>
<g>
	<rect x="69.2" y="428.1" class="st0" width="73.5" height="73.5"/>
	<g>
		<g>
			<polygon class="st23" points="90.6,488.4 90.4,497.1 83.4,496.9 83.4,499.3 94.4,499.8 95.4,487.1 			"/>
			<polygon class="st23" points="116.5,489.2 117.1,497.8 110.1,498.2 110.3,500.6 121.3,500.2 121.3,487.5 			"/>
			<path class="st24" d="M138.9,481.4c0,1-4.3,13-5.3,13c-9.3-0.1-6-10.7-15.7-10.7c-9.9,0-9.9,0.3-19.8,0.3
				c-9.9,0-9.9,0.6-19.8,0.6c-0.7,0-1.2-0.5-1.2-1.2c0-8.3,0.7-8.3,0.7-16.5c0-8.3-3.7-17.7-4.4-25.7c1.2-3,6.5-4.3,9-7.3
				c2.8,0,5.6-0.6,15.6-0.4c9.9,0.2,10.2-0.6,20.1-0.6c4.6,0,10.2,0.3,19.3,0.3c1,0,1,5,1,6c0,8.4-0.4,3.6-0.4,11.8
				c0,8.1,1.2,8.1,1.2,16.2C139.3,475.3,138.9,473.2,138.9,481.4z"/>
			<path class="st4" d="M134.6,492.8c0,1-0.8,1.8-1.8,1.8c-9.3-0.1-9.5-1.5-19.2-1.5c-9.9,0-9.9,0.3-19.8,0.3
				c-9.9,0-9.9,0.6-19.8,0.6c-0.7,0-1.2-0.5-1.2-1.2c0-8.3,0.7-8.3,0.7-16.5c0-8.3-0.5-8.3-0.5-16.5c0-8.3,0.7-10.3,0.6-18.7
				c10.1,0.2,10.1-0.1,20.1,0.1c9.9,0.2,10.2-0.6,20.1-0.6c4.6,0,10.2-0.2,19.3-0.2c1,0,1.4,2.5,1.4,3.5c0,8.4-0.8,8.3-0.8,16.5
				c0,8.1,1.2,8.1,1.2,16.2C134.9,484.6,134.6,484.6,134.6,492.8z"/>
			<polygon class="st23" points="92.2,459.9 87.8,459.7 87.6,453.4 92.1,453.1 			"/>
			<polygon class="st23" points="118.2,459.9 113.8,459.7 113.6,453.4 118.1,453.1 			"/>
			<polygon class="st23" points="103.8,436.9 103.8,432.4 100.8,431.9 100.8,429.4 110.8,429.1 110.8,431.6 105.8,432.4 
				105.8,436.8 			"/>
		</g>
		<polygon class="st3" points="128.3,460.3 127.1,462.6 130.8,462.6 		"/>
		<polygon class="st3" points="95.8,471.9 94.6,474.3 98.3,474.3 		"/>
		<polygon class="st3" points="103.9,449.1 102.8,451.4 106.4,451.4 		"/>
		<polygon class="st4" points="115.9,435.8 114.8,438.1 118.4,438.1 		"/>
		<polygon class="st3" points="99.8,483.6 95.4,484.6 98.9,485.8 		"/>
		<polygon class="st3" points="124.3,474.8 123.1,477.1 126.8,477.1 		"/>
		<polygon class="st3" points="126.4,446.6 122.1,447.6 125.6,448.8 		"/>
		<polygon class="st4" points="135.8,434.4 131.4,435.4 134.9,436.6 		"/>
		<polygon class="st3" points="80.8,477.1 80.1,478.4 84.6,479.8 		"/>
		<polygon class="st3" points="76.8,442.1 76.1,443.4 80.6,444.8 		"/>
		<polygon class="st3" points="124.1,486.4 123.4,487.8 127.9,489.1 		"/>
		<polygon class="st4" points="95.8,435.1 95.1,436.4 99.6,437.8 		"/>
		<polygon class="st4" points="84.3,435.4 83.1,437.8 86.8,437.8 		"/>
	</g>
</g>
<g>
	<rect x="224.2" y="428.1" class="st0" width="73.5" height="73.5"/>
	<g>
		<g>
			<polygon class="st25" points="245.6,488.4 245.4,497.1 238.4,496.9 238.4,499.3 249.4,499.8 250.4,487.1 			"/>
			<polygon class="st25" points="271.5,489.2 272.1,497.8 265.1,498.2 265.3,500.6 276.3,500.2 276.3,487.5 			"/>
			<path class="st26" d="M293.9,481.4c0,1-4.3,13-5.3,13c-9.3-0.1-6-10.7-15.7-10.7c-9.9,0-9.9,0.3-19.8,0.3
				c-9.9,0-9.9,0.6-19.8,0.6c-0.7,0-1.2-0.5-1.2-1.2c0-8.3,0.7-8.3,0.7-16.5c0-8.3-3.7-17.7-4.4-25.7c1.2-3,6.5-4.3,9-7.3
				c2.8,0,5.6-0.6,15.6-0.4c9.9,0.2,10.2-0.6,20.1-0.6c4.6,0,10.2,0.3,19.3,0.3c1,0,1,5,1,6c0,8.4-0.4,3.6-0.4,11.8
				c0,8.1,1.2,8.1,1.2,16.2C294.3,475.3,293.9,473.2,293.9,481.4z"/>
			<path class="st2" d="M289.6,492.8c0,1-0.8,1.8-1.8,1.8c-9.3-0.1-9.5-1.5-19.2-1.5c-9.9,0-9.9,0.3-19.8,0.3
				c-9.9,0-9.9,0.6-19.8,0.6c-0.7,0-1.2-0.5-1.2-1.2c0-8.3,0.7-8.3,0.7-16.5c0-8.3-0.5-8.3-0.5-16.5c0-8.3,0.7-10.3,0.6-18.7
				c10.1,0.2,10.1-0.1,20.1,0.1c9.9,0.2,10.2-0.6,20.1-0.6c4.6,0,10.2-0.2,19.3-0.2c1,0,1.4,2.5,1.4,3.5c0,8.4-0.8,8.3-0.8,16.5
				c0,8.1,1.2,8.1,1.2,16.2C289.9,484.6,289.6,484.6,289.6,492.8z"/>
			<polygon class="st25" points="247.2,459.9 242.8,459.7 242.6,453.4 247.1,453.1 			"/>
			<polygon class="st25" points="273.2,459.9 268.8,459.7 268.6,453.4 273.1,453.1 			"/>
			<polygon class="st25" points="258.8,436.9 258.8,432.4 255.8,431.9 255.8,429.4 265.8,429.1 265.8,431.6 260.8,432.4 
				260.8,436.8 			"/>
		</g>
		<g>
			<polygon class="st27" points="283.3,460.3 282.1,462.6 285.8,462.6 			"/>
			<polygon class="st27" points="250.8,471.9 249.6,474.3 253.3,474.3 			"/>
			<polygon class="st27" points="258.9,449.1 257.8,451.4 261.4,451.4 			"/>
			<polygon class="st27" points="254.8,483.6 250.4,484.6 253.9,485.8 			"/>
			<polygon class="st27" points="279.3,474.8 278.1,477.1 281.8,477.1 			"/>
			<polygon class="st27" points="281.4,446.6 277.1,447.6 280.6,448.8 			"/>
			<polygon class="st27" points="235.8,477.1 235.1,478.4 239.6,479.8 			"/>
			<polygon class="st27" points="231.8,442.1 231.1,443.4 235.6,444.8 			"/>
			<polygon class="st27" points="279.1,486.4 278.4,487.8 282.9,489.1 			"/>
		</g>
		<g>
			<polygon class="st2" points="270.9,435.8 269.8,438.1 273.4,438.1 			"/>
			<polygon class="st2" points="292.5,453.7 289.9,454.1 292.1,457.1 			"/>
			<polygon class="st2" points="290.8,434.4 286.4,435.4 289.9,436.6 			"/>
			<polygon class="st2" points="293.3,480.5 290.4,481.1 292.7,481.9 			"/>
			<polygon class="st2" points="250.8,435.1 250.1,436.4 254.6,437.8 			"/>
			<polygon class="st2" points="239.3,435.4 238.1,437.8 241.8,437.8 			"/>
		</g>
	</g>
</g>
<g>
	<rect x="68.2" y="529.7" class="st0" width="73.5" height="73.5"/>
	<g>
		<polygon class="st28" points="89.6,589.8 89.4,598.5 82.4,598.3 82.4,600.6 93.4,601.1 94.4,592.5 		"/>
		<polygon class="st28" points="115.5,590.6 116.1,599.2 109.1,599.6 109.3,601.9 120.3,601.5 120.3,588.8 		"/>
		<path class="st29" d="M137.9,586.8c0,1-4.3,9-5.3,9c-9.3-0.1-6-6.7-15.7-6.7c-9.9,0-9.9,0.3-19.8,0.3c-9.9,0-9.9,0.6-19.8,0.6
			c-0.7,0-1.2-0.5-1.2-1.2c0-8.3,0.7-5.3,0.7-13.5c0-8.3-3.7-10.7-4.4-18.7c1.2-3,6.5-4.3,9-7.3c2.8,0,5.6-0.6,15.6-0.4
			c9.9,0.2,10.2-0.6,20.1-0.6c4.6,0,10.2,0.3,19.3,0.3c1,0,1,5,1,6c0,8.4-0.4-0.4-0.4,7.8c0,8.1,1.2,5.1,1.2,13.2
			C138.3,583.6,137.9,578.6,137.9,586.8z"/>
		<path class="st1" d="M133.6,594.1c0,1-0.8,1.8-1.8,1.8c-9.3-0.1-9.5-1.5-19.2-1.5c-9.9,0-9.9,0.3-19.8,0.3
			c-9.9,0-9.9,0.6-19.8,0.6c-0.7,0-1.2-0.5-1.2-1.2c0-8.3,0.7-4.3,0.7-12.5c0-8.3-0.5-2.3-0.5-10.5c0-8.3,0.7-6.3,0.6-14.7
			c10.1,0.2,10.1-0.1,20.1,0.1c9.9,0.2,10.2-0.6,20.1-0.6c4.6,0,10.2-0.2,19.3-0.2c1,0,1.4,2.5,1.4,3.5c0,8.4-0.8,4.3-0.8,12.5
			c0,8.1,1.2,2.1,1.2,10.2C133.9,590,133.6,585.9,133.6,594.1z"/>
		<path class="st29" d="M121.3,548.6c0,0.4-4.5,5.2-4.9,5.2c-4.2,0-2.7-3.1-7.1-3.1c-4.5,0-4.5,0.1-9,0.1c-4.5,0-4.5,0.3-9,0.3
			c-0.3,0-0.5-0.2-0.5-0.5c0-3.8,0.3-2.4,0.3-6.2c0-3.8-1.7-4.9-2-8.5c0.5-1.4,5.5-3.1,6.6-4.5c1.3,0,2.5-0.3,7.1-0.2
			c4.5,0.1,4.6-0.3,9.2-0.3c2.1,0,4.6,0.1,8.8,0.2c0.5,0,0.5,2.3,0.5,2.7c0,3.8-0.2-0.2-0.2,3.6c0,3.7,0.5,2.3,0.5,6
			C121.4,547.2,121.3,544.9,121.3,548.6z"/>
		<path class="st1" d="M116.8,553.1c0,0.4-0.4,0.8-0.8,0.8c-4.2,0-4.3-0.7-8.7-0.7c-4.5,0-4.5,0.1-9,0.1c-4.5,0-4.5,0.3-9,0.3
			c-0.3,0-0.5-0.2-0.5-0.5c0-3.8,0.3-1.9,0.3-5.7c0-3.8-0.2-1-0.2-4.8c0-3.8,0.3-2.9,0.3-6.7c4.6,0.1,4.6,0,9.1,0
			c4.5,0.1,4.6-0.3,9.2-0.3c2.1,0,4.6-0.1,8.8-0.1c0.5,0,0.6,1.2,0.6,1.6c0,3.8-0.4,1.9-0.4,5.7c0,3.7,0.5,1,0.5,4.6
			C116.9,551.2,116.8,549.4,116.8,553.1z"/>
		<polygon class="st28" points="96.3,546.1 93.4,546 93.3,541.9 96.2,541.7 		"/>
		<polygon class="st30" points="120.1,565.5 119.3,570.1 86,570.2 84.4,565.6 		"/>
		<polygon class="st30" points="120.1,576.6 119.3,581.3 86,581.4 84.4,576.8 		"/>
		<polygon class="st28" points="113.1,546.1 110.2,546 110.1,541.9 113,541.7 		"/>
		<polygon class="st28" points="79.3,552.6 79.3,545.5 76.3,545 76.3,536.2 78.4,536.1 78.3,542.3 83.4,542.5 84.1,535.9 
			86.3,535.9 86.3,544.6 82.6,545.5 82.6,552.5 		"/>
		<polygon class="st28" points="126.9,552.6 126.9,545.5 123.9,545 123.9,536.2 126.1,536.1 125.9,542.3 131.1,542.5 131.8,535.9 
			133.9,535.9 133.9,544.6 130.3,545.5 130.3,552.5 		"/>
		<polygon class="st30" points="98.3,560.3 93.9,561.3 97.4,562.5 		"/>
		<polygon class="st30" points="121.9,589.1 117.6,590.1 121.1,591.3 		"/>
		<polygon class="st30" points="80.1,560.8 78.9,563.1 82.6,563.1 		"/>
		<polygon class="st30" points="86.6,585.8 85.4,588.1 89.1,588.1 		"/>
		<polygon class="st30" points="132.8,566.1 128.4,567.1 131.9,568.3 		"/>
		<polygon class="st30" points="76.4,567.1 75.8,568.5 80.3,569.8 		"/>
	</g>
</g>
<g>
	<rect x="-9.3" y="529.6" class="st0" width="73.5" height="73.5"/>
	<g>
		<g>
			<polygon class="st28" points="12.1,589.9 11.9,598.6 4.9,598.4 4.9,600.8 15.9,601.3 16.9,588.6 			"/>
			<polygon class="st28" points="38,590.7 38.6,599.3 31.6,599.7 31.8,602.1 42.8,601.7 42.8,589 			"/>
			<path class="st29" d="M60.4,582.9c0,1-4.3,13-5.3,13c-9.3-0.1-6-10.7-15.7-10.7c-9.9,0-9.9,0.3-19.8,0.3c-9.9,0-9.9,0.6-19.8,0.6
				c-0.7,0-1.2-0.5-1.2-1.2c0-8.3,0.7-8.3,0.7-16.5c0-8.3-3.7-17.7-4.4-25.7c1.2-3,6.5-4.3,9-7.3c2.8,0,5.6-0.6,15.6-0.4
				c9.9,0.2,10.2-0.6,20.1-0.6c4.6,0,10.2,0.3,19.3,0.3c1,0,1,5,1,6c0,8.4-0.4,3.6-0.4,11.8c0,8.1,1.2,8.1,1.2,16.2
				C60.8,576.8,60.4,574.7,60.4,582.9z"/>
			<path class="st1" d="M56.1,594.3c0,1-0.8,1.8-1.8,1.8c-9.3-0.1-9.5-1.5-19.2-1.5c-9.9,0-9.9,0.3-19.8,0.3
				c-9.9,0-9.9,0.6-19.8,0.6c-0.7,0-1.2-0.5-1.2-1.2c0-8.3,0.7-8.3,0.7-16.5c0-8.3-0.5-8.3-0.5-16.5c0-8.3,0.7-10.3,0.6-18.7
				c10.1,0.2,10.1-0.1,20.1,0.1c9.9,0.2,10.2-0.6,20.1-0.6c4.6,0,10.2-0.2,19.3-0.2c1,0,1.4,2.5,1.4,3.5c0,8.4-0.8,8.3-0.8,16.5
				c0,8.1,1.2,8.1,1.2,16.2C56.4,586.1,56.1,586.1,56.1,594.3z"/>
			<polygon class="st28" points="13.7,561.4 9.3,561.2 9.1,554.9 13.6,554.6 			"/>
			<polygon class="st28" points="39.7,561.4 35.3,561.2 35.1,554.9 39.6,554.6 			"/>
			<polygon class="st28" points="25.3,538.4 25.3,533.9 22.3,533.4 22.3,530.9 32.3,530.6 32.3,533.1 27.3,533.9 27.3,538.3 			"/>
		</g>
		<g>
			<polygon class="st30" points="49.8,561.8 48.6,564.1 52.3,564.1 			"/>
			<polygon class="st30" points="17.3,573.4 16.1,575.8 19.8,575.8 			"/>
			<polygon class="st30" points="25.4,550.6 24.3,552.9 27.9,552.9 			"/>
			<polygon class="st30" points="21.3,585.1 16.9,586.1 20.4,587.3 			"/>
			<polygon class="st30" points="45.8,576.3 44.6,578.6 48.3,578.6 			"/>
			<polygon class="st30" points="47.9,548.1 43.6,549.1 47.1,550.3 			"/>
			<polygon class="st30" points="2.3,578.6 1.6,579.9 6.1,581.3 			"/>
			<polygon class="st30" points="-1.7,543.6 -2.4,544.9 2.1,546.3 			"/>
			<polygon class="st30" points="45.6,587.9 44.9,589.3 49.4,590.6 			"/>
		</g>
		<g>
			<polygon class="st1" points="37.4,537.3 36.3,539.6 39.9,539.6 			"/>
			<polygon class="st1" points="59,555.2 56.4,555.6 58.6,558.6 			"/>
			<polygon class="st1" points="57.3,535.9 52.9,536.9 56.4,538.1 			"/>
			<polygon class="st1" points="59.8,582 56.9,582.6 59.2,583.4 			"/>
			<polygon class="st1" points="17.3,536.6 16.6,537.9 21.1,539.3 			"/>
			<polygon class="st1" points="5.8,536.9 4.6,539.3 8.3,539.3 			"/>
		</g>
	</g>
</g>
<g>
	<rect x="219.2" y="263.9" class="st0" width="73.5" height="73.5"/>
	<g>
		<path class="st4" d="M288.9,319.6c0,1-4.3,13.8-5.3,13.8c-9.3-0.1-6-11.4-15.7-11.4c-9.9,0-9.9,0.3-19.8,0.3
			c-9.9,0-9.9,0.6-19.8,0.6c-0.7,0-1.2-0.6-1.2-1.3c0-8.8,0.7-8.8,0.7-17.6c0-8.8-3.7-18.9-4.4-27.4c1.2-3.2,6.5-4.6,9-7.8
			c2.8,0,5.6-0.6,15.6-0.5c9.9,0.2,10.2-0.7,20.1-0.6c4.6,0,10.2,0.3,19.3,0.4c1,0,1,5.3,1,6.4c0,8.9-0.4,3.9-0.4,12.6
			c0,8.6,1.2,8.6,1.2,17.2C289.3,313,288.9,310.9,288.9,319.6z"/>
		<path class="st3" d="M284.6,331.7c0,1-0.8,1.9-1.8,1.9c-9.3-0.1-9.5-1.6-19.2-1.6c-9.9,0-9.9,0.3-19.8,0.3
			c-9.9,0-9.9,0.6-19.8,0.6c-0.7,0-1.2-0.6-1.2-1.3c0-8.8,0.7-8.8,0.7-17.6c0-8.8-0.5-8.8-0.5-17.6c0-8.8,0.7-10.9,0.6-19.9
			c10.1,0.2,10.1-0.1,20.1,0.1c9.9,0.2,10.2-0.7,20.1-0.6c4.6,0,10.2-0.3,19.3-0.2c1,0,1.4,2.7,1.4,3.8c0,8.9-0.8,8.8-0.8,17.5
			c0,8.6,1.2,8.6,1.2,17.2C284.9,323,284.6,322.9,284.6,331.7z"/>
		<g>
			<polygon class="st4" points="245.5,299.9 237.8,299.8 237.6,297.8 245.3,297.7 			"/>
			<polygon class="st4" points="271,299.9 263.8,299.8 263.6,297.8 270.8,297.7 			"/>
		</g>
		
			<rect x="229.8" y="281.2" transform="matrix(0.6628 -0.7488 0.7488 0.6628 -131.367 271.7465)" class="st31" width="12.4" height="1"/>
		
			<rect x="226.5" y="287.4" transform="matrix(0.6633 -0.7483 0.7483 0.6633 -135.9842 273.4763)" class="st31" width="18.8" height="1"/>
		
			<rect x="228.3" y="324.6" transform="matrix(0.6633 -0.7483 0.7483 0.6633 -163.2822 287.3322)" class="st31" width="18.8" height="1"/>
		
			<rect x="265" y="310.1" transform="matrix(0.6582 -0.7529 0.7529 0.6582 -140.6037 311.5824)" class="st31" width="15.6" height="1"/>
		
			<rect x="260.5" y="314.7" transform="matrix(0.6649 -0.7469 0.7469 0.6649 -143.4312 310.5912)" class="st31" width="27.8" height="1"/>
	</g>
</g>
<g>
	<rect x="142.1" y="264" class="st0" width="73.5" height="73.5"/>
	<g>
		<g>
			<path class="st1" d="M163.1,269.6c0.2-0.5,0.9-0.9,1.5-0.9h43.3c0.6,0,0.7,0.4,0.4,0.8l-17.6,21.9c-0.3,0.4-0.2,1,0.2,1.3
				l16.4,9.3c0.5,0.3,0.5,0.7,0,1.1l-42.8,29.1c-0.5,0.3-0.7,0.1-0.5-0.4l7.8-21.1c0.2-0.5,0-1.2-0.5-1.4L150,297.7
				c-0.5-0.3-0.7-0.9-0.4-1.4L163.1,269.6z"/>
		</g>
		<path class="st32" d="M183.1,276.2h-34.2c-0.3,0-0.5-0.2-0.5-0.5s0.2-0.5,0.5-0.5h34.2c0.3,0,0.5,0.2,0.5,0.5
			S183.4,276.2,183.1,276.2z"/>
		<path class="st32" d="M188.3,280.5h-34.2c-0.3,0-0.5-0.2-0.5-0.5s0.2-0.5,0.5-0.5h34.2c0.3,0,0.5,0.2,0.5,0.5
			S188.6,280.5,188.3,280.5z"/>
		<path class="st32" d="M172.2,316h-17.1c-0.3,0-0.5-0.2-0.5-0.5s0.2-0.5,0.5-0.5h17.1c0.3,0,0.5,0.2,0.5,0.5S172.5,316,172.2,316z"
			/>
		<path class="st32" d="M177.3,320.2h-17.1c-0.3,0-0.5-0.2-0.5-0.5s0.2-0.5,0.5-0.5h17.1c0.3,0,0.5,0.2,0.5,0.5
			S177.6,320.2,177.3,320.2z"/>
	</g>
</g>
<g>
	<rect x="298.5" y="105.6" class="st0" width="73.5" height="73.5"/>
	<g>
		<path class="st17" d="M350.7,129.1v25c0,0-10.1,5.7-11.9,10.5c-1.8,4.8,0.4,6.2,2.6,5.3s13.2-8.3,13.2-11.4c0-3.1-0.4-25-0.4-25
			c4,4.4,7.9,7,10.1,7c2.2,0,1.8,0-1.3-2.2c-3.1-2.2-8.3-8.1-9.7-11.4C352.6,125.3,350.7,126.5,350.7,129.1z"/>
		<path class="st17" d="M333.5,116.9v13.5c0,0-7.8,4.4-9.1,8.1c-1.4,3.7,0.3,4.7,2,4.1c1.7-0.7,10.1-6.4,10.1-8.8
			s-0.3-13.5-0.3-13.5c3,3.4,6.1,5.4,7.8,5.4s1.4,0-1-1.7c-2.4-1.7-6.4-6.3-7.4-8.8C335,113.9,333.5,114.8,333.5,116.9z"/>
		<path class="st17" d="M312,147.5v10.1c0,0-5.8,3.3-6.8,6.1s0.3,3.5,1.5,3c1.3-0.5,7.6-4.8,7.6-6.6s-0.3-10.1-0.3-10.1
			c2.3,2.5,4.6,4,5.8,4c1.3,0,1,0-0.8-1.3s-4.8-4.7-5.6-6.6C313.2,145.3,312,146,312,147.5z"/>
	</g>
</g>
<g>
	<rect x="378.8" y="105.6" class="st0" width="73.5" height="73.5"/>
</g>
<g>
	<path class="st12" d="M431,129.1v25c0,0-10.1,5.7-11.9,10.5s0.4,6.2,2.6,5.3c2.2-0.9,13.2-8.3,13.2-11.4c0-3.1-0.4-25-0.4-25
		c4,4.4,7.9,7,10.1,7c2.2,0,1.8,0-1.3-2.2c-3.1-2.2-8.3-8.1-9.7-11.4C433,125.3,431,126.5,431,129.1z"/>
	<path class="st12" d="M413.8,116.9v13.5c0,0-7.8,4.4-9.1,8.1c-1.4,3.7,0.3,4.7,2,4.1c1.7-0.7,10.1-6.4,10.1-8.8s-0.3-13.5-0.3-13.5
		c3,3.4,6.1,5.4,7.8,5.4s1.4,0-1-1.7s-6.4-6.3-7.4-8.8C415.3,113.9,413.8,114.8,413.8,116.9z"/>
	<path class="st12" d="M392.4,147.5v10.1c0,0-5.8,3.3-6.8,6.1s0.3,3.5,1.5,3s7.6-4.8,7.6-6.6s-0.3-10.1-0.3-10.1
		c2.3,2.5,4.6,4,5.8,4c1.3,0,1,0-0.8-1.3s-4.8-4.7-5.6-6.6C393.5,145.3,392.4,146,392.4,147.5z"/>
</g>
<g>
	<rect x="66.1" y="262.7" class="st0" width="73.5" height="73.5"/>
	<g>
		<g>
			<path class="st2" d="M68.3,297.6c0,12.4,12.1,40.9,14.3,30.1c0.3-1.2,0.7-2.1,1.2-2.8c-3.5-4-8.5-18.3-8.5-25.7
				c0-16.9,12.4-27.3,27.6-27.3s27.6,10.4,27.6,27.3c0,6.8-3.7,20.2-6.8,23.9c0.7,0.6,1.3,1.4,1.8,2.7c3.3,9.4,12-16.9,12-28.1
				c0-20.5-15.5-33.2-34.6-33.2C83.8,264.4,68.3,277,68.3,297.6z"/>
			<path class="st5" d="M75.3,299.2c0,7.4,5.1,21.8,8.5,25.7c0.9-1.2,2.1-1.8,3.4-2.3c0.3-0.7,0.7-1.2,1.2-1.6
				c-2.6-3.6-6.1-14.4-6.1-20.1c0-13.5,9.2-21.8,20.6-21.8c11.4,0,20.6,8.3,20.6,21.8c0,5.3-2.6,15.5-4.9,18.7c0.8,0.4,1.5,1,2,2
				c1.2,0.3,2.2,0.7,3.1,1.5c3-3.7,6.8-17.1,6.8-23.9c0-16.9-12.4-27.3-27.6-27.3S75.3,282.3,75.3,299.2z"/>
			<g>
				<path class="st4" d="M82.3,300.8c0,5.7,3.5,16.5,6.1,20.1c0.8-0.7,1.8-1.1,2.8-1.6c0.5-1,1.2-1.6,2-2c-0.1-0.2-0.1-0.4-0.2-0.6
					c-0.1,0-0.1,0.1-0.2,0.1c-1.8-2.6-4.2-10.6-4.2-14.8c0-9.9,6.4-16,14.4-16c7.9,0,14.4,6.1,14.4,16c0,3.9-1.8,11.4-3.4,13.8
					c0,0,0,0,0,0c-0.1,0.2-0.1,0.5-0.2,0.7c1,0.3,1.9,0.8,2.4,2c0.1,0,0.2,0.1,0.4,0.1c0.8,0.2,1.5,0.4,2.2,0.8
					c2.2-3.2,4.9-13.5,4.9-18.7c0-13.5-9.2-21.8-20.6-21.8C91.5,279.1,82.3,287.4,82.3,300.8z"/>
			</g>
			<g>
				<circle class="st16" cx="74" cy="324.5" r="6.9"/>
				<circle class="st16" cx="90.3" cy="312.8" r="6.9"/>
				<circle class="st16" cx="92" cy="322.4" r="8.5"/>
				<circle class="st16" cx="84.1" cy="327.5" r="6.9"/>
				<circle class="st16" cx="79.2" cy="316.4" r="10.4"/>
			</g>
			<g>
				<circle class="st16" cx="131.8" cy="324.5" r="6.9"/>
				<circle class="st16" cx="115.5" cy="312.8" r="6.9"/>
				<circle class="st16" cx="113.8" cy="322.4" r="8.5"/>
				<circle class="st16" cx="121.7" cy="327.5" r="6.9"/>
				<circle class="st16" cx="126.6" cy="316.4" r="10.4"/>
			</g>
		</g>
		<path class="st17" d="M80.2,315.8c-2,2.7-2.7,4.3-5.1,2.5c-2.4-1.7-3.5-3.3-1.5-6c2-2.7,5.5-3.5,7.9-1.8
			C83.9,312.3,82.1,313.1,80.2,315.8z"/>
		<path class="st17" d="M118.1,315.6c-1.9,2.7-2.6,4.2-4.9,2.6c-2.3-1.6-3.3-3.1-1.4-5.8c1.9-2.7,5.4-3.6,7.6-1.9
			C121.7,312,120,312.9,118.1,315.6z"/>
	</g>
</g>
<g>
	<rect x="296.5" y="263.9" class="st0" width="73.5" height="73.5"/>
	<g>
		<path class="st8" d="M362.6,293.7c1,16.7-8.2,33.5,3,28.3c4.3-2,0.3,4.2-1.7,5.7c-14,10.7-32,8.7-40,6.3c-20-5.8-25-21.1-25-38
			c0-16.9,13.7-30.7,30.7-30.7S361.7,278.1,362.6,293.7z"/>
		<path class="st17" d="M327.5,292.4c0,7.7-7.4,12.7-14.5,12.7s-11.2-4.9-11.2-12.7c0-7.7,7.7-14,14.8-14S327.5,284.7,327.5,292.4z"
			/>
		<path class="st7" d="M332.4,310.1c1.7,2.6,0.3,5.9-2.2,7.4c-2.4,1.5-4.9,0.8-6.6-1.8c-1.7-2.6-0.4-6.4,2-7.9
			C328,306.3,330.7,307.5,332.4,310.1z"/>
		<path class="st17" d="M358.5,291.1c0-7.7-7.4-12.7-14.5-12.7s-11.2,4.9-11.2,12.7c0,7.7,7.7,14,14.8,14S358.5,298.8,358.5,291.1z"
			/>
		<g>
			<circle class="st14" cx="339" cy="293.1" r="1.6"/>
			<circle class="st14" cx="307.9" cy="293.1" r="1.6"/>
		</g>
	</g>
</g>
<g>
	<rect x="374.1" y="184" class="st0" width="73.5" height="73.5"/>
	<g>
		<path class="st33" d="M445.6,254c0,1.3-0.9,2.3-2,2.3c-10.5-0.1-10.7-2-21.7-2c-11.2,0-11.2,0.3-22.4,0.3
			c-11.2,0-11.2,0.8-22.4,0.8c-0.7,0-1.3-0.7-1.3-1.5c0-10.7,0.8-10.7,0.8-21.4c0-10.7-0.6-10.7-0.6-21.4c0-10.8,0.7-13.3,0.7-24.2
			c11.4,0.2,10.6-1.7,21.9-1.5c11.2,0.2,12.3,0.8,23.5,0.9c5.2,0.1,11.5-0.3,21.8-0.2c1.1,0,1.6,3.3,1.6,4.6
			c0,10.8-0.9,10.7-0.9,21.3c0,10.5,1.3,10.5,1.3,21C446,243.4,445.6,243.3,445.6,254z"/>
		<path class="st34" d="M444.6,254.1c0,1.2-0.9,2.1-1.9,2.1c-10.1-0.1-10.3-1.8-20.9-1.8c-10.8,0-10.8,0.3-21.6,0.3
			c-10.8,0-10.8,0.7-21.6,0.7c-0.7,0-1.3-0.6-1.3-1.4c0-9.9,0.8-9.9,0.8-19.8c0-9.9-0.5-9.9-0.5-19.8c0-9.9,0.7-12.3,0.7-22.3
			c11.1,0.2,11.4-3.3,22.3-3.1c10.8,0.2,11,4.9,21.3,1.7c5-1.5,10.8-2,21.3,0.7c1.1,0.3,1.5,3,1.5,4.2c0,10-0.9,9.9-0.9,19.7
			c0,9.7,1.3,9.7,1.3,19.4C445,244.4,444.6,244.3,444.6,254.1z"/>
		<path class="st35" d="M408.4,242c3.7-1.7,10.7-10,17.3-9.3c6.7,0.7,20.3,11.7,14,9C433.4,239,425.7,231,408.4,242z"/>
		<path class="st35" d="M382.4,229c3.4-1.5,9.9-9.3,16.1-8.7c6.2,0.6,18.9,10.8,13,8.4C405.6,226.2,398.5,218.8,382.4,229z"/>
		<path class="st35" d="M404.7,207.6c3-3.7,11.5-10,18.7-9.3s12.9,5.3,15.1,9C432.7,203.3,423.4,196.6,404.7,207.6z"/>
		<path class="st35" d="M412,217.5c-2.9,0.3-7.4,3-10,5.1c0.8,0.1,1.6,0.2,2.4,0.2c4.2-2.2,9.8-4.6,19.6,1.1
			C421,221.8,416.4,217.1,412,217.5z"/>
		<path class="st35" d="M389.7,199.1c-0.6,0-0.6,1,0,1C390.3,200.1,390.3,199.1,389.7,199.1z"/>
		<path class="st35" d="M383.4,199.6c-2.6,0-2.6,4,0,4C385.9,203.6,385.9,199.6,383.4,199.6z"/>
		<path class="st35" d="M393.7,209.1c-1.9,0-1.9,3,0,3C395.6,212.1,395.6,209.1,393.7,209.1z"/>
		<path class="st35" d="M391.7,236c-1.3,0-1.3,2,0,2C393,238,393,236,391.7,236z"/>
		<path class="st35" d="M385.7,246.5c-0.6,0-0.6,1,0,1C386.3,247.5,386.3,246.5,385.7,246.5z"/>
		<path class="st35" d="M399,234.8c-0.6,0-0.6,1,0,1C399.7,235.8,399.7,234.8,399,234.8z"/>
		<path class="st35" d="M429,224c-1.3,0-1.3,2,0,2C430.3,226,430.3,224,429,224z"/>
		<path class="st35" d="M422,212.3c-1.3,0-1.3,2,0,2C423.3,214.3,423.3,212.3,422,212.3z"/>
		<path class="st35" d="M412.7,212.3c-1.3,0-1.3,2,0,2C414,214.3,414,212.3,412.7,212.3z"/>
		<path class="st35" d="M416.7,209.6c-1.3,0-1.3,2,0,2C418,211.6,418,209.6,416.7,209.6z"/>
		<path class="st35" d="M433,191c-1.3,0-1.3,2,0,2C434.3,193,434.3,191,433,191z"/>
		<path class="st35" d="M441.4,195.6c-1.3,0-1.3,2,0,2C442.6,197.6,442.6,195.6,441.4,195.6z"/>
		<path class="st35" d="M437.7,220.8c-0.6,0-0.6,1,0,1C438.3,221.8,438.3,220.8,437.7,220.8z"/>
		<path class="st35" d="M433,213.5c-1.9,0-1.9,3,0,3C435,216.5,435,213.5,433,213.5z"/>
		<path class="st35" d="M423.4,245.6c-1.3,0-1.3,2,0,2C424.6,247.6,424.6,245.6,423.4,245.6z"/>
		<path class="st35" d="M410.7,246.3c-1.3,0-1.3,2,0,2C412,248.3,412,246.3,410.7,246.3z"/>
		<path class="st35" d="M438,244.8c-1.9,0-1.9,3,0,3C440,247.8,440,244.8,438,244.8z"/>
		<path class="st35" d="M432.7,241.3c-1.3,0-1.3,2,0,2C434,243.3,434,241.3,432.7,241.3z"/>
	</g>
</g>
<g>
	<rect x="374.5" y="261.5" class="st0" width="73.5" height="73.5"/>
	<g>
		<path class="st36" d="M446.7,320.7c-0.4-4.4-3-7.4-6.7-7.6v0c0,0-0.1,0-0.1,0c0,0-0.1,0-0.1,0v0c-3.7,0.1-6.3,3.2-6.7,7.6
			c-0.2,2.7,1.7,4.8,6.7,4.9v0c0,0,0.1,0,0.1,0c0,0,0.1,0,0.1,0v0C445,325.5,447,323.3,446.7,320.7z"/>
		<path class="st37" d="M389.7,320.7c-0.4-4.4-3-7.4-6.7-7.6v0c0,0-0.1,0-0.1,0c0,0-0.1,0-0.1,0v0c-3.7,0.1-6.3,3.2-6.7,7.6
			c-0.2,2.7,1.7,4.8,6.7,4.9v0c0,0,0.1,0,0.1,0c0,0,0.1,0,0.1,0v0C388,325.5,390,323.3,389.7,320.7z"/>
		<path class="st38" d="M446.7,301.9c-2-22.7-15.5-38.5-34.7-39.3v0c-0.2,0-0.5,0-0.7,0c-0.2,0-0.5,0-0.7,0v0
			c-19.2,0.8-32.7,16.6-34.7,39.3c-1.2,13.8,8.9,24.9,34.7,25.3v0c0.2,0,0.5,0,0.7,0c0.2,0,0.5,0,0.7,0v0
			C437.7,326.8,447.9,315.7,446.7,301.9z"/>
		<path class="st37" d="M446.7,301.9c-2-22.7-15.5-38.5-34.7-39.3v0c-0.2,0-0.5,0-0.7,0c-0.2,0-0.5,0-0.7,0v0
			c-0.6,0-1.2,0.1-1.8,0.1c15.8,1.6,26.8,16.4,28.6,37.3c1.1,13.1-7.7,23.7-30.2,24.1v0c-0.2,0-0.4,0-0.6,0c-0.2,0-0.4,0-0.6,0v0
			c-20.7-0.4-29.8-9.4-30.2-21.1c-0.6,13.3,9.7,23.8,34.8,24.2v0c0.2,0,0.5,0,0.7,0c0.2,0,0.5,0,0.7,0v0
			C437.7,326.8,447.9,315.7,446.7,301.9z"/>
		<g class="st39">
			<path class="st40" d="M411.1,285.1c-4.5,0-7.7-0.9-7.9-0.9l-0.1,0L403,284c-3.5-3.8-9.3-11.4-10.4-15.7l1-0.3
				c1,3.9,6.5,11.3,10.1,15.2c1.1,0.3,8.3,1.9,16.1-0.3c8.9-7.3,9.8-13.4,9.8-13.5l1,0.1c0,0.3-0.9,6.6-10.2,14.2l-0.2,0.1
				C416.8,284.8,413.7,285.1,411.1,285.1z"/>
			<path class="st40" d="M414.9,310.4c-11.5,0-22.6-2.6-23.3-2.7l-0.1,0l-0.1-0.1c-6-5-11.2-11.5-12.8-16.3l0.9-0.3
				c1.6,4.6,6.5,10.9,12.4,15.8c1.9,0.4,26.3,5.8,39.2,0c9.1-5.9,12.7-12.3,12.8-12.4l0.9,0.5c-0.2,0.3-3.8,6.7-13.2,12.8
				C426.9,309.7,420.8,310.4,414.9,310.4z"/>
			<path class="st40" d="M431.2,306.2c-3.6-11.4-12.2-23.1-12.3-23.2l0.8-0.6c0.1,0.1,8.7,11.9,12.4,23.5L431.2,306.2z"/>
			<path class="st40" d="M391.8,307.4l-0.9-0.5c1.4-2.4,2.7-5.5,4.2-8.8c2.5-5.7,5.1-11.5,8.2-15.3l0.8,0.6c-3,3.7-5.6,9.5-8.1,15.1
				C394.5,301.8,393.2,305,391.8,307.4z"/>
		</g>
		<path class="st40" d="M432.4,320c-1.2-12.4-9.3-21.1-20.7-21.5v0c-0.1,0-0.3,0-0.4,0c-0.1,0-0.3,0-0.4,0v0
			c-11.4,0.4-19.5,9.1-20.7,21.5c-0.7,7.6,5.3,13.6,20.7,13.9v0c0.1,0,0.3,0,0.4,0c0.1,0,0.3,0,0.4,0v0
			C427.1,333.7,433.1,327.6,432.4,320z"/>
		<path class="st41" d="M432.4,320c-1.2-12.4-9.3-21.1-20.7-21.5v0c-0.1,0-0.3,0-0.4,0c-0.1,0-0.3,0-0.4,0v0c-0.4,0-0.7,0-1.1,0.1
			c9.4,0.9,16,9,17,20.4c0.6,7.2-4.6,13-18,13.2v0c-0.1,0-0.2,0-0.4,0c-0.1,0-0.2,0-0.4,0v0c-12.3-0.2-17.7-5.1-18-11.5
			c-0.3,7.3,5.8,13,20.8,13.2v0c0.1,0,0.3,0,0.4,0c0.1,0,0.3,0,0.4,0v0C427.1,333.7,433.1,327.6,432.4,320z"/>
		<g>
			<polygon class="st37" points="403.6,320.3 396.9,320.2 396.7,318.4 403.4,318.3 			"/>
			<polygon class="st37" points="425.8,320.3 419.5,320.2 419.4,318.4 425.6,318.3 			"/>
		</g>
		<path class="st42" d="M399.6,280.1c-5.1,6.6-7.2,10.1-10.6,7.8c-3.4-2.2-4.5-4.9,0.6-11.5s12-10.1,15.4-7.9
			C408.3,270.9,404.7,273.5,399.6,280.1z"/>
	</g>
</g>
<g>
	<rect x="67.7" y="612.8" class="st0" width="73.5" height="73.5"/>
	<g>
		<g>
			<g>
				<g>
					<g>
						<path class="st1" d="M69.9,678.4c-0.1,0.5,0.3,1,0.8,1h43.1c0.5,0,0.7-0.4,0.4-0.8L78.6,628c-0.3-0.4-0.6-0.4-0.7,0.2
							L69.9,678.4z"/>
					</g>
				</g>
				<g>
					<g>
						<path class="st1" d="M139,678.4c0.1,0.5-0.3,1-0.8,1H95c-0.6,0-0.7-0.4-0.4-0.8l35.7-50.6c0.3-0.4,0.6-0.4,0.7,0.2L139,678.4z
							"/>
					</g>
				</g>
			</g>
		</g>
		<g>
			<path class="st1" d="M104.1,615.7c0.2-0.5,0.6-0.5,0.8,0l27.7,62.8c0.2,0.5,0,0.9-0.6,0.9H77c-0.5,0-0.8-0.4-0.6-0.9L104.1,615.7
				z"/>
		</g>
		<ellipse class="st1" cx="104.5" cy="679.4" rx="34.6" ry="4.9"/>
		<g>
			<path class="st2" d="M105.3,655.9c-0.5,1-1.2,1-1.7,0l-5-10.7c-0.1-0.2-0.1-0.6,0-0.8l5-10.7c0.5-1,1.2-1,1.7,0l4.3,9.3
				c0.5,1,0.5,2.6,0,3.6L105.3,655.9z"/>
		</g>
		<g>
			<g>
				<g>
					<g>
						<path class="st2" d="M83.4,656.5c0.7,0.8,1.5,0.7,1.8-0.4l1.5-5.3c0-0.1,0-0.3-0.1-0.4l-3.5-4.2c-0.7-0.8-1.5-0.7-1.8,0.4
							l-1.1,3.6c-0.3,1.1,0,2.6,0.7,3.5L83.4,656.5z"/>
					</g>
				</g>
			</g>
			<g>
				<g>
					<g>
						<path class="st2" d="M125.6,656.5c-0.7,0.8-1.5,0.7-1.8-0.4l-1.5-5.3c0-0.1,0-0.3,0.1-0.4l3.5-4.2c0.7-0.8,1.5-0.7,1.8,0.4
							l1.1,3.6c0.3,1.1,0,2.6-0.7,3.5L125.6,656.5z"/>
					</g>
				</g>
			</g>
		</g>
	</g>
</g>
<g>
	<rect x="146.2" y="612.8" class="st0" width="73.5" height="73.5"/>
	<g>
		<g>
			<g>
				<g>
					<g>
						<path class="st43" d="M148.5,678.4c-0.1,0.5,0.3,1,0.8,1h43.1c0.6,0,0.7-0.4,0.4-0.8L157.2,628c-0.3-0.4-0.6-0.4-0.7,0.2
							L148.5,678.4z"/>
					</g>
				</g>
				<g>
					<g>
						<path class="st43" d="M217.5,678.4c0.1,0.5-0.3,1-0.8,1h-43.1c-0.6,0-0.7-0.4-0.4-0.8l35.7-50.6c0.3-0.4,0.6-0.4,0.7,0.2
							L217.5,678.4z"/>
					</g>
				</g>
			</g>
		</g>
		<g>
			<path class="st43" d="M182.6,615.7c0.2-0.5,0.6-0.5,0.8,0l27.7,62.8c0.2,0.5,0,0.9-0.6,0.9h-54.9c-0.6,0-0.8-0.4-0.6-0.9
				L182.6,615.7z"/>
		</g>
		<ellipse class="st43" cx="183" cy="679.4" rx="34.6" ry="4.9"/>
		<g>
			<path class="st1" d="M183.8,655.9c-0.5,1-1.2,1-1.7,0l-5-10.7c-0.1-0.2-0.1-0.6,0-0.8l5-10.7c0.5-1,1.2-1,1.7,0l4.3,9.3
				c0.5,1,0.5,2.6,0,3.6L183.8,655.9z"/>
		</g>
		<g>
			<g>
				<g>
					<g>
						<path class="st1" d="M161.9,656.5c0.7,0.8,1.5,0.7,1.8-0.4l1.5-5.3c0-0.1,0-0.3-0.1-0.4l-3.5-4.2c-0.7-0.8-1.5-0.7-1.8,0.4
							l-1.1,3.6c-0.3,1.1,0,2.6,0.7,3.5L161.9,656.5z"/>
					</g>
				</g>
			</g>
			<g>
				<g>
					<g>
						<path class="st1" d="M204.1,656.5c-0.7,0.8-1.5,0.7-1.8-0.4l-1.5-5.3c0-0.1,0-0.3,0.1-0.4l3.5-4.2c0.7-0.8,1.5-0.7,1.8,0.4
							l1.1,3.6c0.3,1.1,0,2.6-0.7,3.5L204.1,656.5z"/>
					</g>
				</g>
			</g>
		</g>
	</g>
</g>
<g>
	<rect x="224.8" y="612.8" class="st0" width="73.5" height="73.5"/>
	<g>
		<g>
			<g>
				<g>
					<g>
						<path class="st4" d="M227,678.4c-0.1,0.5,0.3,1,0.8,1H271c0.5,0,0.7-0.4,0.4-0.8L235.7,628c-0.3-0.4-0.6-0.4-0.7,0.2
							L227,678.4z"/>
					</g>
				</g>
				<g>
					<g>
						<path class="st4" d="M296,678.4c0.1,0.5-0.3,1-0.8,1h-43.1c-0.6,0-0.7-0.4-0.4-0.8l35.7-50.6c0.3-0.4,0.6-0.4,0.7,0.2
							L296,678.4z"/>
					</g>
				</g>
			</g>
		</g>
		<g>
			<path class="st4" d="M261.1,615.7c0.2-0.5,0.6-0.5,0.8,0l27.7,62.8c0.2,0.5,0,0.9-0.6,0.9H234c-0.6,0-0.8-0.4-0.6-0.9
				L261.1,615.7z"/>
		</g>
		<ellipse class="st4" cx="261.5" cy="679.4" rx="34.6" ry="4.9"/>
		<g>
			<path class="st1" d="M262.3,655.9c-0.5,1-1.2,1-1.7,0l-5-10.7c-0.1-0.2-0.1-0.6,0-0.8l5-10.7c0.5-1,1.2-1,1.7,0l4.3,9.3
				c0.5,1,0.5,2.6,0,3.6L262.3,655.9z"/>
		</g>
		<g>
			<g>
				<g>
					<g>
						<path class="st1" d="M240.4,656.5c0.7,0.8,1.5,0.7,1.8-0.4l1.5-5.3c0-0.1,0-0.3-0.1-0.4l-3.5-4.2c-0.7-0.8-1.5-0.7-1.8,0.4
							l-1.1,3.6c-0.3,1.1,0,2.6,0.7,3.5L240.4,656.5z"/>
					</g>
				</g>
			</g>
			<g>
				<g>
					<g>
						<path class="st1" d="M282.6,656.5c-0.7,0.8-1.5,0.7-1.8-0.4l-1.5-5.3c0-0.1,0-0.3,0.1-0.4l3.5-4.2c0.7-0.8,1.5-0.7,1.8,0.4
							l1.1,3.6c0.3,1.1,0,2.6-0.7,3.5L282.6,656.5z"/>
					</g>
				</g>
			</g>
		</g>
	</g>
</g>
<g>
	<rect x="146.7" y="342" class="st0" width="73.5" height="73.5"/>
	<g>
		<g>
			<path class="st2" d="M176.2,351.7c30.8,27.2,13.7,50.7,9.4,57.3c-4.4,6.6-25.5-17.6-30.7-26.3c-5.2-8.6-7.9-21.6-2.6-29.6
				C157.5,345.2,169.4,345.7,176.2,351.7z"/>
			<path class="st2" d="M190.6,351.7c-30.8,27.2-13.7,50.7-9.4,57.3c4.4,6.6,25.5-17.6,30.7-26.3c5.2-8.6,7.9-21.6,2.6-29.6
				C209.4,345.2,197.4,345.7,190.6,351.7z"/>
		</g>
		<path class="st44" d="M162,358.6c-3.4,4.3-2.4,10.1-5.8,7.9c-3.4-2.2-1.8-7.7,0.8-11.1c2.5-3.2,8.5-4.4,11.9-2.1
			C172.2,355.4,165.3,354.2,162,358.6z"/>
	</g>
</g>
<g>
	<rect x="-9.9" y="342" class="st0" width="73.5" height="73.5"/>
	<g>
		<g>
			<polygon class="st27" points="9.4,381.6 -8,370.2 -1.5,355.3 55.1,355 61.7,370.2 44.3,381.6 			"/>
			<polygon class="st26" points="39.8,355.3 55.1,355 61.7,370.2 44.3,381.6 			"/>
			<polygon class="st2" points="9.4,381.6 -8,370.2 27.9,412.4 61.7,370.2 44.3,381.6 			"/>
			<polygon class="st26" points="27.9,412.4 61.7,370.2 44.3,381.6 			"/>
			<polygon class="st45" points="12.7,362.6 -1.5,355.1 12.7,345.1 41,345.1 55.2,355.1 41,362.6 			"/>
		</g>
		
			<rect x="17.5" y="368.3" transform="matrix(0.6628 -0.7488 0.7488 0.6628 -268.1852 142.0993)" class="st45" width="12.4" height="1"/>
		
			<rect x="44.1" y="363.4" transform="matrix(0.2021 -0.9794 0.9794 0.2021 -316.2751 339.6594)" class="st2" width="12.4" height="1"/>
		
			<rect x="46.6" y="369.4" transform="matrix(0.2021 -0.9794 0.9794 0.2021 -320.1566 346.8951)" class="st2" width="12.4" height="1"/>
		
			<rect x="15.6" y="373" transform="matrix(0.6633 -0.7483 0.7483 0.6633 -271.0341 144.4954)" class="st45" width="18.8" height="1"/>
		
			<rect x="16.3" y="352.4" transform="matrix(0.9263 -0.3768 0.3768 0.9263 -130.9805 36.2084)" class="st17" width="21.6" height="1"/>
		
			<rect x="12.1" y="353.2" transform="matrix(0.9215 -0.3885 0.3885 0.9215 -135.9847 34.8018)" class="st17" width="11.9" height="1"/>
	</g>
</g>
<g>
	<rect x="70.1" y="342" class="st0" width="73.5" height="73.5"/>
	<g>
		<polygon class="st3" points="89.4,381.6 72,370.2 78.5,355.3 135.1,355 141.7,370.2 124.3,381.6 		"/>
		<polygon class="st24" points="119.8,355.3 135.1,355 141.7,370.2 124.3,381.6 		"/>
		<polygon class="st4" points="89.4,381.6 72,370.2 107.9,412.4 141.7,370.2 124.3,381.6 		"/>
		<polygon class="st24" points="107.9,412.4 141.7,370.2 124.3,381.6 		"/>
		<polygon class="st31" points="92.7,362.6 78.5,355.1 92.7,345.1 121,345.1 135.2,355.1 121,362.6 		"/>
		
			<rect x="97.5" y="368.3" transform="matrix(0.6628 -0.7488 0.7488 0.6628 -241.213 201.9996)" class="st31" width="12.4" height="1"/>
		
			<rect x="124.1" y="363.4" transform="matrix(0.2021 -0.9794 0.9794 0.2021 -252.4449 418.0083)" class="st3" width="12.4" height="1"/>
		
			<rect x="126.6" y="369.4" transform="matrix(0.2021 -0.9794 0.9794 0.2021 -256.3263 425.2439)" class="st3" width="12.4" height="1"/>
		
			<rect x="95.6" y="373" transform="matrix(0.6633 -0.7483 0.7483 0.6633 -244.1008 204.3614)" class="st31" width="18.8" height="1"/>
		
			<rect x="96.3" y="352.4" transform="matrix(0.9263 -0.3768 0.3768 0.9263 -125.0851 66.3499)" class="st17" width="21.6" height="1"/>
		
			<rect x="92.1" y="353.2" transform="matrix(0.9215 -0.3885 0.3885 0.9215 -129.7008 65.8812)" class="st17" width="11.9" height="1"/>
	</g>
</g>
<g>
	<rect x="-88.9" y="342" class="st0" width="73.5" height="73.5"/>
	<g>
		<polygon class="st1" points="-69.6,381.6 -87,370.2 -80.5,355.3 -23.9,355 -17.3,370.2 -34.7,381.6 		"/>
		<polygon class="st29" points="-39.2,355.3 -23.9,355 -17.3,370.2 -34.7,381.6 		"/>
		<polygon class="st29" points="-69.6,381.6 -87,370.2 -51.1,412.4 -17.3,370.2 -34.7,381.6 		"/>
		<polygon class="st28" points="-51.1,412.4 -17.3,370.2 -34.7,381.6 		"/>
		<polygon class="st30" points="-66.3,362.6 -80.5,355.1 -66.3,345.1 -38,345.1 -23.8,355.1 -38,362.6 		"/>
		
			<rect x="-61.5" y="368.3" transform="matrix(0.6628 -0.7488 0.7488 0.6628 -294.8202 82.9477)" class="st30" width="12.4" height="1"/>
		
			<rect x="-34.9" y="363.4" transform="matrix(0.2021 -0.9794 0.9794 0.2021 -379.3076 262.2899)" class="st1" width="12.4" height="1"/>
		
			<rect x="-32.4" y="369.4" transform="matrix(0.2021 -0.9794 0.9794 0.2021 -383.1891 269.5256)" class="st1" width="12.4" height="1"/>
		
			<rect x="-63.4" y="373" transform="matrix(0.6633 -0.7483 0.7483 0.6633 -297.6309 85.3777)" class="st30" width="18.8" height="1"/>
		
			<rect x="-62.7" y="352.4" transform="matrix(0.9263 -0.3768 0.3768 0.9263 -136.8023 6.4435)" class="st17" width="21.6" height="1"/>
		
			<rect x="-66.9" y="353.2" transform="matrix(0.9215 -0.3885 0.3885 0.9215 -142.19 4.1108)" class="st17" width="11.9" height="1"/>
	</g>
</g>
<g>
	<rect x="223.2" y="342" class="st0" width="73.5" height="73.5"/>
	<g>
		<path class="st40" d="M250.2,410.5c-0.2,0-0.3-0.1-0.5-0.2l-3-2.6c-0.3-0.3-0.4-0.7-0.1-1.1c0.3-0.3,0.7-0.4,1.1-0.1l2.4,2
			l3.5-4.6c0.2-0.3,0.7-0.4,1.1-0.1c0.3,0.2,0.4,0.7,0.1,1l-3.9,5.3C250.7,410.4,250.5,410.5,250.2,410.5
			C250.3,410.5,250.3,410.5,250.2,410.5z"/>
		<g>
			<path class="st40" d="M240,389.1c-0.2,0-0.4-0.1-0.6-0.2c-0.3-0.3-0.3-0.8,0-1.1l3.5-3.2c0.2-0.2,0.5-0.2,0.7-0.2l9.6,3.1
				c0.4,0.1,0.6,0.5,0.5,0.9c-0.1,0.4-0.5,0.6-0.9,0.5l-9.2-2.9l-3.2,2.9C240.4,389.1,240.2,389.1,240,389.1z"/>
			<path class="st40" d="M243.5,385.9C243.5,385.9,243.5,385.9,243.5,385.9l-4.9-0.2c-0.4,0-0.7-0.4-0.7-0.8s0.4-0.7,0.8-0.7
				l3.2,0.1l-2-2.4c-0.3-0.3-0.2-0.8,0.1-1.1c0.3-0.3,0.8-0.2,1.1,0.1l3.1,3.7c0.2,0.2,0.2,0.5,0.1,0.8
				C244,385.8,243.8,385.9,243.5,385.9z"/>
		</g>
		<path class="st38" d="M274.8,377.9c0.4-5.7,3.7-28.5-5.9-30.9c-13.8-3.5-34.7-5.3-38.7,0.4s-6.1,21.1-1,25.9
			c5.1,4.8,20.8,5.7,24.8,4.8c-12.5,20.6-5.2,32.3,17.2,31.1c8.7-0.4,16-5.1,19.8-8.8c2.2-2.2,4.7-5.6,0.3-4.1
			C280.6,400.1,273.7,392.4,274.8,377.9z"/>
		<path class="st40" d="M256.5,368.9C256.5,368.9,256.5,368.9,256.5,368.9c-0.2,0-0.3-0.1-0.4-0.2l-6.6-7.3l-5.8,7.1
			c-0.1,0.1-0.3,0.2-0.5,0.2c-0.2,0-0.3-0.1-0.4-0.3l-3.7-9.1l-6.3,6.9c-0.2,0.2-0.5,0.2-0.7,0c-0.2-0.2-0.2-0.5,0-0.7l6.9-7.5
			c0.1-0.1,0.3-0.2,0.5-0.2s0.3,0.1,0.4,0.3l3.7,9l5.6-6.9c0.1-0.1,0.2-0.2,0.4-0.2c0.1,0,0.3,0.1,0.4,0.2l6.6,7.3l5.8-5.4
			c0.1-0.1,0.3-0.1,0.4-0.1c0.1,0,0.3,0.1,0.4,0.2l3,4.5c0.2,0.2,0.1,0.5-0.1,0.7c-0.2,0.2-0.5,0.1-0.7-0.1l-2.6-4l-5.8,5.4
			C256.7,368.9,256.6,368.9,256.5,368.9z"/>
		<g>
			
				<ellipse transform="matrix(7.599494e-02 -0.9971 0.9971 7.599494e-02 -110.7876 593.3188)" class="st36" cx="264.7" cy="356.4" rx="1.4" ry="1.4"/>
			
				<ellipse transform="matrix(7.599494e-02 -0.9971 0.9971 7.599494e-02 -134.6274 561.131)" class="st36" cx="235.4" cy="353.2" rx="1.4" ry="1.4"/>
		</g>
		<g>
			<path class="st40" d="M270.6,388.6c-0.2,0-0.5-0.1-0.6-0.3c-0.2-0.3-0.2-0.8,0.2-1l5.5-4l0.7-4.4c0.1-0.4,0.4-0.7,0.9-0.6
				c0.4,0.1,0.7,0.4,0.6,0.9l-0.7,4.7c0,0.2-0.1,0.4-0.3,0.5l-5.7,4.2C270.9,388.6,270.7,388.6,270.6,388.6z"/>
			<path class="st40" d="M281,385.4c0,0-0.1,0-0.2,0l-4.7-1c-0.3-0.1-0.5-0.3-0.6-0.6c-0.1-0.3,0-0.6,0.3-0.8l3.9-2.9
				c0.3-0.2,0.8-0.2,1,0.2c0.2,0.3,0.2,0.8-0.2,1l-2.6,1.9l3.1,0.6c0.4,0.1,0.7,0.5,0.6,0.9C281.7,385.1,281.4,385.4,281,385.4z"/>
		</g>
		<path class="st40" d="M267.6,414.4c-0.3,0-0.6-0.2-0.7-0.5c-0.2-0.4,0-0.8,0.4-1l3.6-1.5l-1.1-4c-0.1-0.4,0.1-0.8,0.5-0.9
			c0.4-0.1,0.8,0.1,0.9,0.5l1.3,4.6c0.1,0.4-0.1,0.8-0.4,0.9l-4.2,1.8C267.8,414.4,267.7,414.4,267.6,414.4z"/>
	</g>
</g>
<g>
	<rect x="65.8" y="29.4" class="st0" width="73.5" height="73.5"/>
	<g>
		<path class="st1" d="M90.5,35.8c0-1.4,3.3-3.1,6.7-3.5s19.8-5.4,27.2,11.5c7.8,17.9,2.7,23.4,0,25.9c-2.7,2.4-6.5,2.4-6,4.7
			C116.7,74.5,90,68.2,90.5,35.8z"/>
		<path class="st1" d="M114.7,35.8c0-1.4-3.3-3.1-6.7-3.5c-3.3-0.3-19.8-5.4-27.2,11.5c-7.8,17.9-2.7,23.4,0,25.9s6.5,2.4,6,4.7
			C88.5,74.5,115.2,68.2,114.7,35.8z"/>
		<g>
			<path class="st46" d="M96.3,78.3c-12.4,4.4-14.5,7.7-16,5.8c-1.5-1.9,6.3-10.2,10.7-12.6c2.1-1.2,4.8-1,6.3,0.9
				C98.8,74.2,98.6,77.4,96.3,78.3z"/>
			<path class="st46" d="M108.9,78.3c12.4,4.4,14.5,7.7,16,5.8c1.5-1.9-6.3-10.2-10.7-12.6c-2.1-1.2-4.8-1-6.3,0.9
				C106.5,74.2,106.6,77.4,108.9,78.3z"/>
		</g>
		<g>
			<path class="st46" d="M102.8,68.1C102.8,68.1,102.7,68.1,102.8,68.1c-8.6,0-8.6,1.8-12.3,17.8c-1,4.4-0.3,10.4,3.9,14.8
				c1.6,1.7,1.8-5.9,8.4-5.9c0,0,0,0,0.1,0V68.1z"/>
			<path class="st46" d="M102.5,68.1C102.5,68.1,102.5,68.1,102.5,68.1c8.6,0,8.6,1.8,12.3,17.8c1,4.4,0.3,10.4-3.9,14.8
				c-1.6,1.7-1.8-5.9-8.4-5.9c0,0,0,0-0.1,0V68.1z"/>
		</g>
		<g>
			<g>
				<g>
					<path class="st40" d="M95.1,70.4L86,92.9c-0.2,0.5,0.1,1,0.6,1.1c0,0,11.8,2.3,15.9,2.3C106.7,96.3,117,68.1,95.1,70.4z"/>
				</g>
				<g>
					<path class="st40" d="M109.8,70.4l9.1,22.6c0.2,0.5-0.1,1-0.6,1.1c0,0-11.8,2.3-15.9,2.3S88,68.1,109.8,70.4z"/>
				</g>
			</g>
		</g>
		<g>
			<path class="st46" d="M102.8,35c-12.2,0-19.6,4.6-22.2,18.1c-2,10.6,5.7,19.5,22.2,19.5V35z"/>
			<path class="st46" d="M102.5,35c12.2,0,19.6,4.6,22.2,18.1c2,10.6-5.7,19.5-22.2,19.5V35z"/>
		</g>
		<g>
			<circle class="st12" cx="90.7" cy="58" r="2.6"/>
			<circle class="st12" cx="114.5" cy="58" r="2.6"/>
		</g>
		<path class="st1" d="M107.8,33.4c2.6,1,3.8,6.2,1.7,10.2c-2.2,4-14.2,11.8-29.3,9.1c0.5-6.1,2-14.6,10.8-17.6
			S106.2,32.8,107.8,33.4z"/>
		<path class="st1" d="M108,34.5c0.3,3.2,2.2,17.8,17.7,19.3C124.5,47.1,121.7,32.8,108,34.5z"/>
	</g>
</g>
<g>
	<rect x="142.1" y="29.2" class="st0" width="73.5" height="73.5"/>
	<g>
		<path class="st12" d="M189.9,37.9c0-1.4-1.2-3.6-5-5.4c-3.8-1.9-17-4.4-27,9c-8.8,11.8-5,18.5-1.5,22.6c2.4,2.8,7.7,4.8,5.3,8.7
			C163.4,72.8,190.4,70.9,189.9,37.9z"/>
		<path class="st12" d="M178.2,41c0-1.4,1.2-3.6,5-5.4c3.8-1.9,8.7-5.6,16.8,6c8.4,12,5,18.5,1.5,22.6c-2.4,2.8-7.7,4.8-5.3,8.7
			C194.5,72.8,177.7,73.9,178.2,41z"/>
		<g>
			<path class="st47" d="M172.7,78.4c-12.4,4.4-14.5,7.7-16,5.8S163,74,167.4,71.5c2.1-1.2,4.8-1,6.3,0.9
				C175.2,74.4,175,77.6,172.7,78.4z"/>
			<path class="st47" d="M185.3,78.4c12.4,4.4,14.5,7.7,16,5.8c1.5-1.9-6.3-10.2-10.7-12.6c-2.1-1.2-4.8-1-6.3,0.9
				S183,77.6,185.3,78.4z"/>
		</g>
		<g>
			<path class="st18" d="M179.2,68.2C179.2,68.2,179.1,68.2,179.2,68.2c-8.6,0-8.6,1.8-12.3,17.8c-1,4.4-0.3,10.4,3.9,14.8
				c1.6,1.7,1.8-5.9,8.4-5.9c0,0,0,0,0.1,0V68.2z"/>
			<path class="st18" d="M178.9,68.2C178.9,68.2,178.9,68.2,178.9,68.2c8.6,0,8.6,1.8,12.3,17.8c1,4.4,0.3,10.4-3.9,14.8
				c-1.6,1.7-1.8-5.9-8.4-5.9c0,0,0,0-0.1,0V68.2z"/>
		</g>
		<g>
			<g>
				<g>
					<path class="st2" d="M171,70.5l-5.5,15.9c-0.2,0.5,0.1,1,0.7,1.1c0,0,9.5,1.6,12.9,1.6C182.5,89.1,188.9,68.9,171,70.5z"/>
				</g>
				<g>
					<path class="st2" d="M187,70.5l5.5,15.9c0.2,0.5-0.1,1-0.7,1.1c0,0-9.5,1.6-12.9,1.6S169.1,68.9,187,70.5z"/>
				</g>
			</g>
		</g>
		<g>
			<path class="st47" d="M179.2,35.1c-12.2,0-19.6,4.6-22.2,18.1c-2,10.6,5.7,19.5,22.2,19.5V35.1z"/>
			<path class="st47" d="M178.9,35.1c12.2,0,19.6,4.6,22.2,18.1c2,10.6-5.7,19.5-22.2,19.5V35.1z"/>
		</g>
		<g>
			<circle class="st12" cx="167.1" cy="58.2" r="2.6"/>
			<circle class="st12" cx="190.8" cy="58.2" r="2.6"/>
		</g>
		<path class="st12" d="M186.9,35.5c0,2.9-1.3,12.1-7.5,17.5c1.2-3.1,1.2-5.6,1.2-6.2c-6.2,7.3-20.8,9.4-24.7,8.9
			C156.9,49.4,161.2,27.6,186.9,35.5z"/>
		<path class="st12" d="M185.4,34.1c0,2.8,2,13.9,8.5,18.7c-0.5-1-1.2-4.3-1.2-5.9c2.5,5.3,6.5,7.9,9.3,8.8
			C202.7,48.5,195.9,33.4,185.4,34.1z"/>
		<ellipse class="st47" cx="179" cy="69.8" rx="6.8" ry="6.2"/>
	</g>
</g>
<g>
	<rect x="-10" y="29" class="st0" width="73.5" height="73.5"/>
	<g>
		<g>
			<path class="st47" d="M20.5,78.7c-12.4,4.4-14.5,7.7-16,5.8s6.3-10.2,10.7-12.6c2.1-1.2,4.8-1,6.3,0.9S22.8,77.8,20.5,78.7z"/>
			<path class="st47" d="M33.1,78.7c12.4,4.4,14.5,7.7,16,5.8s-6.3-10.2-10.7-12.6c-2.1-1.2-4.8-1-6.3,0.9S30.8,77.8,33.1,78.7z"/>
		</g>
		<g>
			<path class="st12" d="M26.9,68.5C26.9,68.5,26.9,68.5,26.9,68.5c-8.6,0-8.6,1.8-12.3,17.8c-1,4.4-0.3,10.4,3.9,14.8
				c1.6,1.7,1.8-5.9,8.4-5.9c0,0,0,0,0.1,0V68.5z"/>
			<path class="st12" d="M26.6,68.5C26.7,68.5,26.7,68.5,26.6,68.5c8.6,0,8.6,1.8,12.3,17.8c1,4.4,0.3,10.4-3.9,14.8
				c-1.6,1.7-1.8-5.9-8.4-5.9c0,0,0,0-0.1,0V68.5z"/>
		</g>
		<g>
			<g>
				<g>
					<path class="st2" d="M18.7,70.7l-5.5,15.9c-0.2,0.5,0.1,1,0.7,1.1c0,0,9.5,1.6,12.9,1.6S36.6,69.1,18.7,70.7z"/>
				</g>
				<g>
					<path class="st2" d="M34.7,70.7l5.5,15.9c0.2,0.5-0.1,1-0.7,1.1c0,0-9.5,1.6-12.9,1.6S16.8,69.1,34.7,70.7z"/>
				</g>
			</g>
		</g>
		<ellipse class="st47" cx="26.7" cy="70" rx="5" ry="4.6"/>
		<polygon class="st2" points="18,69.7 12,73.2 16.2,78.8 19.8,71.2 		"/>
		<polygon class="st2" points="35.8,69.7 41.8,73.2 37.7,78.8 34,71.2 		"/>
		<g>
			<path class="st47" d="M26.9,35.4C14.7,35.4,7.3,40,4.8,53.5C2.7,64.1,10.5,73,26.9,73V35.4z"/>
			<path class="st47" d="M26.6,35.4c12.2,0,19.6,4.6,22.2,18.1c2,10.6-5.7,19.5-22.2,19.5V35.4z"/>
		</g>
		<g>
			<circle class="st12" cx="14.9" cy="55.9" r="2.6"/>
			<circle class="st12" cx="38.6" cy="55.9" r="2.6"/>
		</g>
		<path class="st9" d="M4.6,55.8c-2.4-5-1.6-12.2,0.2-18.2c0.6,0.7,1.7,3.5,2.5,4.5c1-4.2,3-8.7,4.6-11c0.5,3.2,1.1,6.2,1.1,6.2
			c2.5-3.7,5.2-5.8,8-7.2c-0.5,1.5-0.5,4.5-0.5,4.5c3-3,7.5-4,11.1-4.2c-1,0.8-2.4,3.5-2.9,5c4.1-2,8.9-3,13.4-3
			c-1,1.5-2.2,3.8-2.5,5.2c2.9-1.8,5.2-3.8,5.9-4.5c1,3.3,2.4,6.8,2.7,10.5c1-1.5,1.6-3.5,1.7-5c3.2,6.5,1.6,12.8-1.1,15.8
			c-1.3-3.2-4.2-6.5-5.3-7.7c-0.3,3.2-1.9,5.5-1.9,5.5c-0.3-3.2-5.2-8.2-6.2-8.7c-1,3.3-4,7-5.2,7.5c-1.3-4.7-4.5-7.8-5.6-8.3
			c0.8,2.5-1,6.5-1.1,7.3c-1.7-2.5-4.3-5.7-5.4-5.8c0.5,1.5,0.3,4.7,0.3,5.8c-4,1-8.1,0-9.4-1.2c-0.2,1.7-0.8,4.2,0,5.8
			c-1.3-1.3-2.3-3-2.7-5.3C5.9,51.5,5.4,53.5,4.6,55.8z"/>
		<g>
			<path class="st12" d="M21.1,64.2H4.8c-2.2,0-4.1-1.8-4.1-4.1V47.4c0-2.2,1.8-4.1,4.1-4.1h16.3c2.2,0,4.1,1.8,4.1,4.1v12.7
				C25.1,62.3,23.3,64.2,21.1,64.2z M4.8,45.3c-1.2,0-2.1,0.9-2.1,2.1v12.7c0,1.2,0.9,2.1,2.1,2.1h16.3c1.2,0,2.1-0.9,2.1-2.1V47.4
				c0-1.2-0.9-2.1-2.1-2.1H4.8z"/>
			<path class="st12" d="M48.7,64.2H32.5c-2.2,0-4.1-1.8-4.1-4.1V47.4c0-2.2,1.8-4.1,4.1-4.1h16.3c2.2,0,4.1,1.8,4.1,4.1v12.7
				C52.8,62.3,51,64.2,48.7,64.2z M32.5,45.3c-1.2,0-2.1,0.9-2.1,2.1v12.7c0,1.2,0.9,2.1,2.1,2.1h16.3c1.2,0,2.1-0.9,2.1-2.1V47.4
				c0-1.2-0.9-2.1-2.1-2.1H32.5z"/>
		</g>
		<rect x="23.8" y="53.2" class="st12" width="5.8" height="2"/>
	</g>
</g>
<g>
	<rect x="-88.2" y="29" class="st0" width="73.5" height="73.5"/>
	<g>
		<g>
			<path class="st46" d="M-58.3,78.7c-12.4,4.4-14.5,7.7-16,5.8c-1.5-1.9,6.3-10.2,10.7-12.6c2.1-1.2,4.8-1,6.3,0.9
				S-56,77.8-58.3,78.7z"/>
			<path class="st46" d="M-45.7,78.7c12.4,4.4,14.5,7.7,16,5.8S-36,74.2-40.4,71.8c-2.1-1.2-4.8-1-6.3,0.9S-48,77.8-45.7,78.7z"/>
		</g>
		<g>
			<path class="st12" d="M-51.9,68.5C-51.9,68.5-51.9,68.5-51.9,68.5c-8.6,0-8.6,1.8-12.3,17.8c-1,4.4-0.3,10.4,3.9,14.8
				c1.6,1.7,1.8-5.9,8.4-5.9c0,0,0,0,0.1,0V68.5z"/>
			<path class="st12" d="M-52.2,68.5C-52.2,68.5-52.1,68.5-52.2,68.5c8.6,0,8.6,1.8,12.3,17.8c1,4.4,0.3,10.4-3.9,14.8
				c-1.6,1.7-1.8-5.9-8.4-5.9c0,0,0,0-0.1,0V68.5z"/>
		</g>
		<g>
			<g>
				<g>
					<path class="st4" d="M-60.1,70.7l-5.5,15.9c-0.2,0.5,0.1,1,0.7,1.1c0,0,9.5,1.6,12.9,1.6C-48.6,89.3-42.2,69.1-60.1,70.7z"/>
				</g>
				<g>
					<path class="st4" d="M-44.1,70.7l5.5,15.9c0.2,0.5-0.1,1-0.7,1.1c0,0-9.5,1.6-12.9,1.6C-55.6,89.3-62,69.1-44.1,70.7z"/>
				</g>
			</g>
		</g>
		<ellipse class="st46" cx="-52.1" cy="70" rx="5" ry="4.6"/>
		<polygon class="st4" points="-60.8,69.7 -66.8,73.2 -62.7,78.8 -59,71.2 		"/>
		<polygon class="st4" points="-43,69.7 -37,73.2 -41.2,78.8 -44.8,71.2 		"/>
		<g>
			<path class="st46" d="M-51.9,35.4c-12.2,0-19.6,4.6-22.2,18.1c-2,10.6,5.7,19.5,22.2,19.5V35.4z"/>
			<path class="st46" d="M-52.2,35.4c12.2,0,19.6,4.6,22.2,18.1C-28,64.1-35.7,73-52.2,73V35.4z"/>
		</g>
		<g>
			<circle class="st12" cx="-63.9" cy="55.9" r="2.6"/>
			<circle class="st12" cx="-40.2" cy="55.9" r="2.6"/>
		</g>
		<path class="st1" d="M-74.2,55.8c-2.4-5-1.6-12.2,0.2-18.2c0.6,0.7,1.7,3.5,2.5,4.5c1-4.2,3-8.7,4.6-11c0.5,3.2,1.1,6.2,1.1,6.2
			c2.5-3.7,5.2-5.8,8-7.2c-0.5,1.5-0.5,4.5-0.5,4.5c3-3,7.5-4,11.1-4.2c-1,0.8-2.4,3.5-2.9,5c4.1-2,8.9-3,13.4-3
			c-1,1.5-2.2,3.8-2.5,5.2c2.9-1.8,5.2-3.8,5.9-4.5c1,3.3,2.4,6.8,2.7,10.5c1-1.5,1.6-3.5,1.7-5c3.2,6.5,1.6,12.8-1.1,15.8
			c-1.3-3.2-4.2-6.5-5.3-7.7c-0.3,3.2-1.9,5.5-1.9,5.5c-0.3-3.2-5.2-8.2-6.2-8.7c-1,3.3-4,7-5.2,7.5c-1.3-4.7-4.5-7.8-5.6-8.3
			c0.8,2.5-1,6.5-1.1,7.3c-1.7-2.5-4.3-5.7-5.4-5.8c0.5,1.5,0.3,4.7,0.3,5.8c-4,1-8.1,0-9.4-1.2c-0.2,1.7-0.8,4.2,0,5.8
			c-1.3-1.3-2.3-3-2.7-5.3C-73,51.5-73.4,53.5-74.2,55.8z"/>
	</g>
</g>
<g>
	<rect x="301.7" y="428.2" class="st0" width="73.5" height="73.5"/>
	<g>
		<polygon class="st25" points="323.1,488.3 322.9,497 315.9,496.8 315.9,499.1 326.9,499.6 327.9,491 		"/>
		<polygon class="st25" points="349,489.1 349.6,497.7 342.6,498.1 342.8,500.4 353.8,500 353.8,487.3 		"/>
		<path class="st26" d="M371.4,485.3c0,1-4.3,9-5.3,9c-9.3-0.1-6-6.7-15.7-6.7c-9.9,0-9.9,0.3-19.8,0.3c-9.9,0-9.9,0.6-19.8,0.6
			c-0.7,0-1.2-0.5-1.2-1.2c0-8.3,0.7-5.3,0.7-13.5c0-8.3-3.7-10.7-4.4-18.7c1.2-3,6.5-4.3,9-7.3c2.8,0,5.6-0.6,15.6-0.4
			c9.9,0.2,10.2-0.6,20.1-0.6c4.6,0,10.2,0.3,19.3,0.3c1,0,1,5,1,6c0,8.4-0.4-0.4-0.4,7.8c0,8.1,1.2,5.1,1.2,13.2
			C371.8,482.1,371.4,477.1,371.4,485.3z"/>
		<path class="st2" d="M367.1,492.6c0,1-0.8,1.8-1.8,1.8c-9.3-0.1-9.5-1.5-19.2-1.5c-9.9,0-9.9,0.3-19.8,0.3
			c-9.9,0-9.9,0.6-19.8,0.6c-0.7,0-1.2-0.5-1.2-1.2c0-8.3,0.7-4.3,0.7-12.5c0-8.3-0.5-2.3-0.5-10.5c0-8.3,0.7-6.3,0.6-14.7
			c10.1,0.2,10.1-0.1,20.1,0.1c9.9,0.2,10.2-0.6,20.1-0.6c4.6,0,10.2-0.2,19.3-0.2c1,0,1.4,2.5,1.4,3.5c0,8.4-0.8,4.3-0.8,12.5
			c0,8.1,1.2,2.1,1.2,10.2C367.4,488.5,367.1,484.4,367.1,492.6z"/>
		<path class="st26" d="M354.8,447.1c0,0.4-4.5,5.2-4.9,5.2c-4.2,0-2.7-3.1-7.1-3.1c-4.5,0-4.5,0.1-9,0.1c-4.5,0-4.5,0.3-9,0.3
			c-0.3,0-0.5-0.2-0.5-0.5c0-3.8,0.3-2.4,0.3-6.2c0-3.8-1.7-4.9-2-8.5c0.5-1.4,5.5-3.1,6.6-4.5c1.3,0,2.5-0.3,7.1-0.2
			c4.5,0.1,4.6-0.3,9.2-0.3c2.1,0,4.6,0.1,8.8,0.2c0.5,0,0.5,2.3,0.5,2.7c0,3.8-0.2-0.2-0.2,3.6c0,3.7,0.5,2.3,0.5,6
			C354.9,445.7,354.8,443.4,354.8,447.1z"/>
		<path class="st2" d="M350.3,451.6c0,0.4-0.4,0.8-0.8,0.8c-4.2,0-4.3-0.7-8.7-0.7c-4.5,0-4.5,0.1-9,0.1c-4.5,0-4.5,0.3-9,0.3
			c-0.3,0-0.5-0.2-0.5-0.5c0-3.8,0.3-1.9,0.3-5.7c0-3.8-0.2-1-0.2-4.8c0-3.8,0.3-2.9,0.3-6.7c4.6,0.1,4.6,0,9.1,0
			c4.5,0.1,4.6-0.3,9.2-0.3c2.1,0,4.6-0.1,8.8-0.1c0.5,0,0.6,1.2,0.6,1.6c0,3.8-0.4,1.9-0.4,5.7c0,3.7,0.5,1,0.5,4.6
			C350.4,449.7,350.3,447.9,350.3,451.6z"/>
		<polygon class="st25" points="329.8,444.6 326.9,444.5 326.8,440.4 329.7,440.2 		"/>
		<polygon class="st27" points="353.6,464 352.8,468.6 319.5,468.7 317.9,464.1 		"/>
		<polygon class="st27" points="353.6,475.1 352.8,479.8 319.5,479.9 317.9,475.3 		"/>
		<polygon class="st25" points="346.6,444.6 343.7,444.5 343.6,440.4 346.5,440.2 		"/>
		<polygon class="st25" points="312.8,451.1 312.8,444 309.8,443.5 309.8,434.7 311.9,434.6 311.8,440.8 316.9,441 317.6,434.4 
			319.8,434.4 319.8,443.1 316.1,444 316.1,451 		"/>
		<polygon class="st25" points="360.4,451.1 360.4,444 357.4,443.5 357.4,434.7 359.6,434.6 359.4,440.8 364.6,441 365.3,434.4 
			367.4,434.4 367.4,443.1 363.8,444 363.8,451 		"/>
		<polygon class="st27" points="331.8,458.8 327.4,459.8 330.9,461 		"/>
		<polygon class="st27" points="355.4,487.6 351.1,488.6 354.6,489.8 		"/>
		<polygon class="st27" points="313.6,459.3 312.4,461.6 316.1,461.6 		"/>
		<polygon class="st27" points="320.1,484.3 318.9,486.6 322.6,486.6 		"/>
		<polygon class="st27" points="366.3,464.6 361.9,465.6 365.4,466.8 		"/>
		<polygon class="st27" points="309.9,465.6 309.3,467 313.8,468.3 		"/>
	</g>
</g>
<g>
	<rect x="380.2" y="425.9" class="st0" width="73.5" height="73.5"/>
	<g>
		<circle class="st14" cx="397.1" cy="459.9" r="14.5"/>
		<circle class="st14" cx="435.4" cy="445.7" r="15"/>
		<circle class="st14" cx="438.3" cy="463.8" r="13"/>
		<circle class="st14" cx="406.3" cy="473.3" r="9.4"/>
		<circle class="st14" cx="424.6" cy="467.6" r="14.2"/>
		<circle class="st14" cx="422.3" cy="439.1" r="11.4"/>
		<circle class="st14" cx="422.3" cy="448.6" r="11.4"/>
		<circle class="st14" cx="403.5" cy="445.6" r="17.7"/>
		<g>
			<path class="st1" d="M409.3,461.5c0.2-0.5,0.9-0.9,1.5-0.9h24.1c0.5,0,0.7,0.4,0.4,0.8l-9.7,12c-0.3,0.4-0.2,1,0.2,1.3l8.7,4.9
				c0.5,0.3,0.5,0.7,0,1.1l-24,16.3c-0.5,0.3-0.7,0.1-0.5-0.4l4.2-11.4c0.2-0.5,0-1.2-0.5-1.4l-11.5-6.3c-0.5-0.3-0.7-0.9-0.4-1.4
				L409.3,461.5z"/>
		</g>
		<circle class="st14" cx="406.9" cy="455.2" r="14.6"/>
		<circle class="st14" cx="428" cy="458.6" r="10.2"/>
		<path class="st7" d="M398.9,439.9c-2.8,3.9-3.9,5.9-6.1,4.4c-2.2-1.6-3.1-3.3-0.3-7.2c2.8-3.9,6.8-5.7,9-4.1
			C403.8,434.6,401.7,436.1,398.9,439.9z"/>
		<g>
			<polygon class="st15" points="409.2,453.1 401.5,453.1 401.3,451 409,450.9 			"/>
			<polygon class="st15" points="434.7,453.1 427.5,453.1 427.3,451 434.5,450.9 			"/>
		</g>
	</g>
</g>
<g>
	<rect x="315.1" y="530.5" class="st0" width="73.5" height="73.5"/>
	<g>
		<polygon class="st24" points="330.5,535.5 384.1,560 330.5,584.5 		"/>
		<polygon class="st4" points="330.5,535.5 381.9,559 330.5,582.5 		"/>
		<path class="st18" d="M330.2,599.6c-0.8,0-1.5-0.7-1.5-1.5v-62.6c0-0.8,0.7-1.5,1.5-1.5s1.5,0.7,1.5,1.5v62.6
			C331.7,598.9,331,599.6,330.2,599.6z"/>
		<path class="st18" d="M341.7,600.6h-21.4c-0.8,0-1.5-0.7-1.5-1.5s0.7-1.5,1.5-1.5h21.4c0.8,0,1.5,0.7,1.5,1.5
			S342.5,600.6,341.7,600.6z"/>
		<path class="st14" d="M342.1,598.6h-22.5c-0.3,0-0.5-0.2-0.5-0.5s0.2-0.5,0.5-0.5h22.5c0.3,0,0.5,0.2,0.5,0.5
			S342.4,598.6,342.1,598.6z"/>
	</g>
</g>
<g>
	<rect x="150.2" y="530.5" class="st0" width="73.5" height="73.5"/>
	<g>
		<polygon class="st26" points="165.7,535.5 219.3,560 165.7,584.5 		"/>
		<polygon class="st43" points="165.7,535.5 217.1,559 165.7,582.5 		"/>
		<path class="st18" d="M165.1,599.6c-0.8,0-1.5-0.7-1.5-1.5v-62.6c0-0.8,0.7-1.5,1.5-1.5s1.5,0.7,1.5,1.5v62.6
			C166.6,598.9,166,599.6,165.1,599.6z"/>
		<path class="st18" d="M176.6,600.6h-21.4c-0.8,0-1.5-0.7-1.5-1.5s0.7-1.5,1.5-1.5h21.4c0.8,0,1.5,0.7,1.5,1.5
			S177.4,600.6,176.6,600.6z"/>
		<path class="st14" d="M177.1,598.6h-22.5c-0.3,0-0.5-0.2-0.5-0.5s0.2-0.5,0.5-0.5h22.5c0.3,0,0.5,0.2,0.5,0.5
			S177.4,598.6,177.1,598.6z"/>
	</g>
</g>
<g>
	<rect x="232.7" y="530.5" class="st0" width="73.5" height="73.5"/>
	<g>
		<polygon class="st29" points="248.2,535.5 301.8,560 248.2,584.5 		"/>
		<polygon class="st1" points="248.2,535.5 299.6,559 248.2,582.5 		"/>
		<path class="st18" d="M247.6,599.6c-0.8,0-1.5-0.7-1.5-1.5v-62.6c0-0.8,0.7-1.5,1.5-1.5s1.5,0.7,1.5,1.5v62.6
			C249.1,598.9,248.5,599.6,247.6,599.6z"/>
		<path class="st18" d="M259.1,600.6h-21.4c-0.8,0-1.5-0.7-1.5-1.5s0.7-1.5,1.5-1.5h21.4c0.8,0,1.5,0.7,1.5,1.5
			S259.9,600.6,259.1,600.6z"/>
		<path class="st14" d="M259.6,598.6h-22.5c-0.3,0-0.5-0.2-0.5-0.5s0.2-0.5,0.5-0.5h22.5c0.3,0,0.5,0.2,0.5,0.5
			S259.9,598.6,259.6,598.6z"/>
	</g>
</g>
<g>
	<rect x="470.5" y="26" class="st0" width="73.5" height="73.5"/>
	<g>
		<g>
			<circle class="st43" cx="507.2" cy="62.8" r="29.5"/>
			<path class="st12" d="M507.2,93C490.6,93,477,79.4,477,62.8s13.6-30.3,30.3-30.3s30.3,13.6,30.3,30.3S523.9,93,507.2,93z
				 M507.2,34c-15.9,0-28.8,12.9-28.8,28.8s12.9,28.8,28.8,28.8S536,78.6,536,62.8S523.1,34,507.2,34z"/>
		</g>
		<g>
			<path class="st12" d="M506.1,56.8l-3.3,0.8l-0.9-3.4l5.4-1.6h2.8v19h-4.1V56.8z"/>
		</g>
	</g>
</g>
<g>
	<rect x="549.8" y="26" class="st0" width="73.5" height="73.5"/>
	<g>
		<g>
			<circle class="st4" cx="586.6" cy="62.8" r="29.5"/>
			<path class="st12" d="M586.6,93c-16.7,0-30.3-13.6-30.3-30.3s13.6-30.3,30.3-30.3c16.7,0,30.3,13.6,30.3,30.3S603.3,93,586.6,93z
				 M586.6,34c-15.9,0-28.8,12.9-28.8,28.8s12.9,28.8,28.8,28.8c15.9,0,28.8-12.9,28.8-28.8S602.4,34,586.6,34z"/>
		</g>
		<g>
			<path class="st12" d="M579.5,68.3l6.3-5.1c2.3-1.9,3.3-3,3.3-4.5c0-1.6-1.1-2.5-2.5-2.5c-1.5,0-2.5,0.8-3.9,2.5l-2.9-2.3
				c1.9-2.5,3.7-3.9,7-3.9c3.9,0,6.5,2.3,6.5,5.8v0.1c0,3.2-1.6,4.7-5,7.3l-3.1,2.4h8.2v3.6h-14V68.3z"/>
		</g>
	</g>
</g>
<g>
	<rect x="549.4" y="106.1" class="st0" width="73.5" height="73.5"/>
	<g>
		<g>
			<rect x="560.1" y="116.8" class="st48" width="52.1" height="52.1"/>
			<path class="st12" d="M613,169.6h-53.6V116H613V169.6z M560.9,168.1h50.6v-50.6h-50.6V168.1z"/>
		</g>
		<g>
			<path class="st12" d="M573.3,149.4l2-2.4c1.4,1.1,2.8,1.8,4.5,1.8c1.4,0,2.2-0.5,2.2-1.4v0c0-0.8-0.5-1.3-3.1-1.9
				c-3.1-0.8-5-1.6-5-4.6v0c0-2.8,2.2-4.6,5.3-4.6c2.2,0,4.1,0.7,5.6,1.9l-1.7,2.5c-1.3-0.9-2.7-1.5-4-1.5c-1.3,0-2,0.6-2,1.3v0
				c0,1,0.7,1.3,3.3,2c3.1,0.8,4.8,1.9,4.8,4.6v0c0,3-2.3,4.7-5.6,4.7C577.5,151.9,575.1,151.1,573.3,149.4z"/>
			<path class="st12" d="M589.3,136.4h6.2c3.6,0,5.8,2.2,5.8,5.3v0c0,3.5-2.7,5.3-6.1,5.3h-2.5v4.6h-3.3V136.4z M595.3,144.1
				c1.7,0,2.7-1,2.7-2.3v0c0-1.5-1-2.3-2.7-2.3h-2.6v4.6H595.3z"/>
		</g>
	</g>
</g>
<g>
	<rect x="471.3" y="107.4" class="st0" width="73.5" height="73.5"/>
	<g>
		<rect x="476.2" y="112.3" class="st49" width="63.6" height="63.6"/>
		<path class="st12" d="M540.6,176.7h-65.1v-65.1h65.1V176.7z M477,175.2h62.1v-62.1H477V175.2z"/>
	</g>
</g>
<g>
	<rect x="630.9" y="107.1" class="st0" width="73.5" height="73.5"/>
	<g>
		<g>
			<rect x="641.6" y="117.8" class="st48" width="52.1" height="52.1"/>
			<path class="st12" d="M694.5,170.6h-53.6V117h53.6V170.6z M642.4,169.1H693v-50.6h-50.6V169.1z"/>
		</g>
		<g>
			<path class="st12" d="M655.4,150.4l2-2.4c1.4,1.1,2.8,1.8,4.5,1.8c1.4,0,2.2-0.5,2.2-1.4v0c0-0.8-0.5-1.3-3.1-1.9
				c-3.1-0.8-5-1.6-5-4.6v0c0-2.8,2.2-4.6,5.3-4.6c2.2,0,4.1,0.7,5.6,1.9l-1.7,2.5c-1.3-0.9-2.7-1.5-4-1.5s-2,0.6-2,1.3v0
				c0,1,0.7,1.3,3.3,2c3.1,0.8,4.8,1.9,4.8,4.6v0c0,3-2.3,4.7-5.6,4.7C659.5,152.9,657.2,152.1,655.4,150.4z"/>
			<path class="st12" d="M671.4,137.4h3.3v12.2h7.6v3h-10.9V137.4z"/>
		</g>
	</g>
</g>
<g>
	<rect x="470.5" y="191.4" class="st0" width="73.5" height="73.5"/>
	<g>
		<g>
			<rect x="481.2" y="202.1" class="st48" width="52.1" height="52.1"/>
			<path class="st12" d="M534.1,255h-53.6v-53.6h53.6V255z M482,253.5h50.6v-50.6H482V253.5z"/>
		</g>
		<g>
			<g>
				<path class="st12" d="M493.3,221.8h11.6v3h-8.2v3.2h7.3v3h-7.3v5.9h-3.3V221.8z"/>
				<path class="st12" d="M508.6,221.8h7c1.9,0,3.4,0.5,4.4,1.5c0.8,0.8,1.3,2,1.3,3.5v0c0,2.5-1.3,4-3.3,4.7l3.7,5.4h-3.9l-3.3-4.9
					h0h-2.6v4.9h-3.3V221.8z M515.3,229.2c1.6,0,2.6-0.9,2.6-2.2v0c0-1.4-1-2.2-2.6-2.2h-3.3v4.4H515.3z"/>
			</g>
		</g>
	</g>
</g>
<g>
	<rect x="631.2" y="26" class="st0" width="73.5" height="73.5"/>
	<g>
		<g>
			<circle class="st1" cx="667.9" cy="62.8" r="29.5"/>
			<path class="st12" d="M667.9,93c-16.7,0-30.3-13.6-30.3-30.3s13.6-30.3,30.3-30.3c16.7,0,30.3,13.6,30.3,30.3S684.6,93,667.9,93z
				 M667.9,34c-15.9,0-28.8,12.9-28.8,28.8s12.9,28.8,28.8,28.8c15.9,0,28.8-12.9,28.8-28.8S683.8,34,667.9,34z"/>
		</g>
		<g>
			<g>
				<path class="st12" d="M658.8,52.5l9.1,9.4l9.1-9.4l1.9,1.9l-9.2,9.4l9.2,9.4l-1.9,1.9l-9.1-9.4l-9.1,9.4l-1.9-1.9l9.1-9.4
					l-9.1-9.4L658.8,52.5z"/>
				<path class="st12" d="M658.8,75.4l-2.4-2.4l9.1-9.4l-9.1-9.4l2.4-2.4l9.1,9.3l9.1-9.3l2.4,2.4l-9.2,9.4l9.2,9.4l-2.4,2.4
					l-9.1-9.3L658.8,75.4z M667.9,65l9.1,9.4l1.3-1.3l-9.2-9.3l9.2-9.3L677,53l-9.1,9.4l-9.1-9.4l-1.3,1.3l9.1,9.3l-9.1,9.3l1.3,1.3
					L667.9,65z"/>
			</g>
		</g>
	</g>
</g>
<g>
	<rect x="470.3" y="275.4" class="st0" width="73.5" height="73.5"/>
	<g>
		<g>
			<circle class="st17" cx="507.1" cy="312.1" r="29.5"/>
			<path class="st12" d="M507.1,342.4c-16.7,0-30.3-13.6-30.3-30.3c0-16.7,13.6-30.3,30.3-30.3s30.3,13.6,30.3,30.3
				C537.3,328.8,523.8,342.4,507.1,342.4z M507.1,283.4c-15.9,0-28.8,12.9-28.8,28.8c0,15.9,12.9,28.8,28.8,28.8
				s28.8-12.9,28.8-28.8C535.8,296.3,522.9,283.4,507.1,283.4z"/>
		</g>
		<g>
			<path class="st12" d="M505.9,306.2l-3.3,0.8l-0.9-3.4l5.4-1.6h2.8v19h-4.1V306.2z"/>
		</g>
	</g>
</g>
<g>
	<rect x="550.3" y="275.4" class="st0" width="73.5" height="73.5"/>
	<g>
		<g>
			<circle class="st17" cx="587.1" cy="312.1" r="29.5"/>
			<path class="st12" d="M587.1,342.4c-16.7,0-30.3-13.6-30.3-30.3c0-16.7,13.6-30.3,30.3-30.3c16.7,0,30.3,13.6,30.3,30.3
				C617.4,328.8,603.8,342.4,587.1,342.4z M587.1,283.4c-15.9,0-28.8,12.9-28.8,28.8c0,15.9,12.9,28.8,28.8,28.8
				c15.9,0,28.8-12.9,28.8-28.8C615.9,296.3,602.9,283.4,587.1,283.4z"/>
		</g>
		<g>
			<path class="st12" d="M580,317.7l6.3-5.1c2.3-1.9,3.3-3,3.3-4.5c0-1.6-1.1-2.5-2.5-2.5c-1.5,0-2.5,0.8-3.9,2.5l-2.9-2.3
				c1.9-2.5,3.7-3.9,7-3.9c3.9,0,6.5,2.3,6.5,5.8v0.1c0,3.2-1.6,4.7-5,7.3l-3.1,2.4h8.2v3.6h-14V317.7z"/>
		</g>
	</g>
</g>
<g>
	<rect x="548.9" y="440.7" class="st0" width="73.5" height="73.5"/>
	<g>
		<g>
			
				<rect x="562.7" y="454.5" transform="matrix(0.7071 0.7071 -0.7071 0.7071 509.1638 -274.2796)" class="st17" width="46" height="46"/>
			<path class="st12" d="M585.7,511.1l-33.6-33.6l33.6-33.6l33.6,33.6L585.7,511.1z M554.2,477.5l31.5,31.5l31.5-31.5L585.7,446
				L554.2,477.5z"/>
		</g>
		<g>
			<path class="st12" d="M578.2,477L578.2,477c0-4.4,3.4-7.9,8-7.9c2.7,0,4.4,0.7,6,2.1l-2.1,2.5c-1.2-1-2.2-1.5-4-1.5
				c-2.4,0-4.4,2.2-4.4,4.7v0c0,2.8,1.9,4.8,4.6,4.8c1.2,0,2.3-0.3,3.2-0.9v-2.2H586v-2.9h6.6v6.6c-1.6,1.3-3.7,2.4-6.5,2.4
				C581.4,484.9,578.2,481.5,578.2,477z"/>
		</g>
	</g>
</g>
<g>
	<rect x="548.9" y="191.4" class="st0" width="73.5" height="73.5"/>
	<g>
		<g>
			
				<rect x="562.7" y="205.1" transform="matrix(0.7071 0.7071 -0.7071 0.7071 332.8586 -347.3076)" class="st1" width="46" height="46"/>
			<path class="st12" d="M585.7,261.7l-33.6-33.6l33.6-33.6l33.6,33.6L585.7,261.7z M554.2,228.1l31.5,31.5l31.5-31.5l-31.5-31.5
				L554.2,228.1z"/>
		</g>
		<g>
			<path class="st12" d="M578.2,227.7L578.2,227.7c0-4.4,3.4-7.9,8-7.9c2.7,0,4.4,0.7,6,2.1l-2.1,2.5c-1.2-1-2.2-1.5-4-1.5
				c-2.4,0-4.4,2.2-4.4,4.7v0c0,2.8,1.9,4.8,4.6,4.8c1.2,0,2.3-0.3,3.2-0.9v-2.2H586v-2.9h6.6v6.6c-1.6,1.3-3.7,2.4-6.5,2.4
				C581.4,235.5,578.2,232.2,578.2,227.7z"/>
		</g>
	</g>
</g>
<g>
	<rect x="549.4" y="355.4" class="st0" width="73.5" height="73.5"/>
	<g>
		<g>
			<rect x="560.1" y="366.1" class="st17" width="52.1" height="52.1"/>
			<path class="st12" d="M613,419h-53.6v-53.6H613V419z M560.9,417.5h50.6v-50.6h-50.6V417.5z"/>
		</g>
		<g>
			<path class="st12" d="M573.3,398.8l2-2.4c1.4,1.1,2.8,1.8,4.5,1.8c1.4,0,2.2-0.5,2.2-1.4v0c0-0.8-0.5-1.3-3.1-1.9
				c-3.1-0.8-5-1.6-5-4.6v0c0-2.8,2.2-4.6,5.3-4.6c2.2,0,4.1,0.7,5.6,1.9l-1.7,2.5c-1.3-0.9-2.7-1.5-4-1.5c-1.3,0-2,0.6-2,1.3v0
				c0,1,0.7,1.3,3.3,2c3.1,0.8,4.8,1.9,4.8,4.6v0c0,3-2.3,4.7-5.6,4.7C577.5,401.2,575.1,400.4,573.3,398.8z"/>
			<path class="st12" d="M589.3,385.8h6.2c3.6,0,5.8,2.2,5.8,5.3v0c0,3.5-2.7,5.3-6.1,5.3h-2.5v4.6h-3.3V385.8z M595.3,393.4
				c1.7,0,2.7-1,2.7-2.3v0c0-1.5-1-2.3-2.7-2.3h-2.6v4.6H595.3z"/>
		</g>
	</g>
</g>
<g>
	<rect x="630.9" y="356.4" class="st0" width="73.5" height="73.5"/>
	<g>
		<g>
			<rect x="641.6" y="367.1" class="st17" width="52.1" height="52.1"/>
			<path class="st12" d="M694.5,420h-53.6v-53.6h53.6V420z M642.4,418.5H693v-50.6h-50.6V418.5z"/>
		</g>
		<g>
			<path class="st12" d="M655.4,399.8l2-2.4c1.4,1.1,2.8,1.8,4.5,1.8c1.4,0,2.2-0.5,2.2-1.4v0c0-0.8-0.5-1.3-3.1-1.9
				c-3.1-0.8-5-1.6-5-4.6v0c0-2.8,2.2-4.6,5.3-4.6c2.2,0,4.1,0.7,5.6,1.9l-1.7,2.5c-1.3-0.9-2.7-1.5-4-1.5s-2,0.6-2,1.3v0
				c0,1,0.7,1.3,3.3,2c3.1,0.8,4.8,1.9,4.8,4.6v0c0,3-2.3,4.7-5.6,4.7C659.5,402.2,657.2,401.4,655.4,399.8z"/>
			<path class="st12" d="M671.4,386.8h3.3v12.2h7.6v3h-10.9V386.8z"/>
		</g>
	</g>
</g>
<g>
	<rect x="470.5" y="440.7" class="st0" width="73.5" height="73.5"/>
	<g>
		<g>
			<rect x="481.2" y="451.4" class="st17" width="52.1" height="52.1"/>
			<path class="st12" d="M534.1,504.3h-53.6v-53.6h53.6V504.3z M482,502.8h50.6v-50.6H482V502.8z"/>
		</g>
		<g>
			<path class="st12" d="M493.3,471.1h11.6v3h-8.2v3.2h7.3v3h-7.3v5.9h-3.3V471.1z"/>
			<path class="st12" d="M508.6,471.1h7c1.9,0,3.4,0.5,4.4,1.5c0.8,0.8,1.3,2,1.3,3.5v0c0,2.5-1.3,4-3.3,4.7l3.7,5.4h-3.9l-3.3-4.9
				h0h-2.6v4.9h-3.3V471.1z M515.3,478.5c1.6,0,2.6-0.9,2.6-2.2v0c0-1.4-1-2.2-2.6-2.2h-3.3v4.4H515.3z"/>
		</g>
	</g>
</g>
<g>
	<rect x="632" y="275.4" class="st0" width="73.5" height="73.5"/>
	<g>
		<g>
			<circle class="st17" cx="668.7" cy="312.1" r="29.5"/>
			<path class="st12" d="M668.7,342.4c-16.7,0-30.3-13.6-30.3-30.3s13.6-30.3,30.3-30.3s30.3,13.6,30.3,30.3
				S685.4,342.4,668.7,342.4z M668.7,283.4c-15.9,0-28.8,12.9-28.8,28.8s12.9,28.8,28.8,28.8s28.8-12.9,28.8-28.8
				S684.6,283.4,668.7,283.4z"/>
		</g>
		<g>
			<g>
				<path class="st12" d="M659.5,301.8l9.1,9.4l9.1-9.4l1.9,1.9l-9.2,9.4l9.2,9.3l-1.9,1.9l-9.1-9.4l-9.1,9.4l-1.9-1.9l9.1-9.3
					l-9.1-9.4L659.5,301.8z"/>
				<path class="st12" d="M659.5,324.8l-2.4-2.4l9.1-9.4l-9.1-9.4l2.4-2.4l9.1,9.3l9.1-9.3l2.4,2.4l-9.2,9.4l9.2,9.4l-2.4,2.4
					l-9.1-9.3L659.5,324.8z M668.7,314.4l9.1,9.4l1.3-1.3l-9.2-9.3l9.2-9.3l-1.3-1.3l-9.1,9.4l-9.1-9.4l-1.3,1.3l9.1,9.3l-9.1,9.3
					l1.3,1.3L668.7,314.4z"/>
			</g>
		</g>
	</g>
</g>
<g>
	<rect x="470.3" y="525.4" class="st0" width="73.5" height="73.5"/>
	<g>
		<circle class="st2" cx="507.1" cy="562.1" r="29.5"/>
		<g>
			<path class="st17" d="M505.9,556.2l-3.3,0.8l-0.9-3.4l5.4-1.6h2.8v19h-4.1V556.2z"/>
		</g>
	</g>
</g>
<g>
	<rect x="550.3" y="525.4" class="st0" width="73.5" height="73.5"/>
	<g>
		<circle class="st4" cx="587.1" cy="562.1" r="29.5"/>
		<g>
			<path class="st17" d="M580,567.7l6.3-5.1c2.3-1.9,3.3-3,3.3-4.5c0-1.6-1.1-2.5-2.5-2.5c-1.5,0-2.5,0.8-3.9,2.5l-2.9-2.3
				c1.9-2.5,3.7-3.9,7-3.9c3.9,0,6.5,2.3,6.5,5.8v0.1c0,3.2-1.6,4.7-5,7.3l-3.1,2.4h8.2v3.6h-14V567.7z"/>
		</g>
	</g>
</g>
<g>
	<rect x="548.9" y="690.7" class="st0" width="73.5" height="73.5"/>
	<g>
		
			<rect x="562.7" y="704.5" transform="matrix(0.7071 0.7071 -0.7071 0.7071 685.9406 -201.0563)" class="st1" width="46" height="46"/>
		<g>
			<path class="st17" d="M578.2,727L578.2,727c0-4.4,3.4-7.9,8-7.9c2.7,0,4.4,0.7,6,2.1l-2.1,2.5c-1.2-1-2.2-1.5-4-1.5
				c-2.4,0-4.4,2.2-4.4,4.7v0c0,2.8,1.9,4.8,4.6,4.8c1.2,0,2.3-0.3,3.2-0.9v-2.2H586v-2.9h6.6v6.6c-1.6,1.3-3.7,2.4-6.5,2.4
				C581.4,734.9,578.2,731.5,578.2,727z"/>
		</g>
	</g>
</g>
<g>
	<rect x="549.4" y="605.4" class="st0" width="73.5" height="73.5"/>
	<g>
		<rect x="560.1" y="616.1" class="st14" width="52.1" height="52.1"/>
		<g>
			<path class="st17" d="M573.3,648.8l2-2.4c1.4,1.1,2.8,1.8,4.5,1.8c1.4,0,2.2-0.5,2.2-1.4v0c0-0.8-0.5-1.3-3.1-1.9
				c-3.1-0.8-5-1.6-5-4.6v0c0-2.8,2.2-4.6,5.3-4.6c2.2,0,4.1,0.7,5.6,1.9l-1.7,2.5c-1.3-0.9-2.7-1.5-4-1.5c-1.3,0-2,0.6-2,1.3v0
				c0,1,0.7,1.3,3.3,2c3.1,0.8,4.8,1.9,4.8,4.6v0c0,3-2.3,4.7-5.6,4.7C577.5,651.2,575.1,650.4,573.3,648.8z"/>
			<path class="st17" d="M589.3,635.8h6.2c3.6,0,5.8,2.2,5.8,5.3v0c0,3.5-2.7,5.3-6.1,5.3h-2.5v4.6h-3.3V635.8z M595.3,643.4
				c1.7,0,2.7-1,2.7-2.3v0c0-1.5-1-2.3-2.7-2.3h-2.6v4.6H595.3z"/>
		</g>
	</g>
</g>
<g>
	<rect x="471.3" y="606.7" class="st0" width="73.5" height="73.5"/>
	<rect x="476.5" y="611.9" class="st14" width="63.2" height="63.2"/>
</g>
<g>
	<rect x="630.9" y="606.4" class="st0" width="73.5" height="73.5"/>
	<g>
		<rect x="641.6" y="617.1" class="st14" width="52.1" height="52.1"/>
		<g>
			<path class="st17" d="M655.4,649.8l2-2.4c1.4,1.1,2.8,1.8,4.5,1.8c1.4,0,2.2-0.5,2.2-1.4v0c0-0.8-0.5-1.3-3.1-1.9
				c-3.1-0.8-5-1.6-5-4.6v0c0-2.8,2.2-4.6,5.3-4.6c2.2,0,4.1,0.7,5.6,1.9l-1.7,2.5c-1.3-0.9-2.7-1.5-4-1.5s-2,0.6-2,1.3v0
				c0,1,0.7,1.3,3.3,2c3.1,0.8,4.8,1.9,4.8,4.6v0c0,3-2.3,4.7-5.6,4.7C659.5,652.2,657.2,651.4,655.4,649.8z"/>
			<path class="st17" d="M671.4,636.8h3.3v12.2h7.6v3h-10.9V636.8z"/>
		</g>
	</g>
</g>
<g>
	<rect x="470.5" y="690.7" class="st0" width="73.5" height="73.5"/>
	<g>
		<rect x="481.2" y="701.4" class="st14" width="52.1" height="52.1"/>
		<g>
			<path class="st17" d="M493.3,721.1h11.6v3h-8.2v3.2h7.3v3h-7.3v5.9h-3.3V721.1z"/>
			<path class="st17" d="M508.6,721.1h7c1.9,0,3.4,0.5,4.4,1.5c0.8,0.8,1.3,2,1.3,3.5v0c0,2.5-1.3,4-3.3,4.7l3.7,5.4h-3.9l-3.3-4.9
				h0h-2.6v4.9h-3.3V721.1z M515.3,728.5c1.6,0,2.6-0.9,2.6-2.2v0c0-1.4-1-2.2-2.6-2.2h-3.3v4.4H515.3z"/>
		</g>
	</g>
</g>
<g>
	<rect x="632" y="525.4" class="st0" width="73.5" height="73.5"/>
	<g>
		<circle class="st1" cx="668.7" cy="562.1" r="29.5"/>
		<g>
			<g>
				<path class="st17" d="M659.5,551.8l9.1,9.3l9.1-9.3l1.9,1.9l-9.2,9.4l9.2,9.3l-1.9,1.9l-9.1-9.4l-9.1,9.4l-1.9-1.9l9.1-9.3
					l-9.1-9.4L659.5,551.8z"/>
				<path class="st17" d="M659.5,574.8l-2.4-2.4l9.1-9.4l-9.1-9.4l2.4-2.4l9.1,9.3l9.1-9.3l2.4,2.4l-9.2,9.4l9.2,9.4l-2.4,2.4
					l-9.1-9.3L659.5,574.8z M668.7,564.4l9.1,9.4l1.3-1.3l-9.2-9.3l9.2-9.3l-1.3-1.3l-9.1,9.4l-9.1-9.4l-1.3,1.3l9.1,9.3l-9.1,9.3
					l1.3,1.3L668.7,564.4z"/>
			</g>
		</g>
	</g>
</g>
<g>
	<rect x="471.3" y="356.4" class="st0" width="73.5" height="73.5"/>
	<g>
		<rect x="476.2" y="361.3" class="st17" width="63.6" height="63.6"/>
		<path class="st12" d="M540.6,425.7h-65.1v-65.1h65.1V425.7z M477,424.2h62.1v-62.1H477V424.2z"/>
	</g>
</g>
</svg>
