<?xml version="1.0" encoding="utf-8"?>
<!-- Generator: Adobe Illustrator 19.2.1, SVG Export Plug-In . SVG Version: 6.00 Build 0)  -->
<svg version="1.1" id="Layer_1" xmlns="http://www.w3.org/2000/svg" xmlns:xlink="http://www.w3.org/1999/xlink" x="0px" y="0px"
	 viewBox="0 0 1402 792" style="enable-background:new 0 0 1402 792;" xml:space="preserve">
<style type="text/css">
	.st0{fill:#212121;}
	.st1{fill:none;}
	.st2{fill:#FEC358;}
	.st3{fill:#E66924;}
	.st4{fill:#5FC3CE;}
	.st5{fill:#99D8E2;}
	.st6{fill:#D2EDF3;}
	.st7{fill:#FFE781;}
	.st8{fill:#EAEAEA;}
	.st9{fill:#FFFFFF;}
	.st10{fill:#D1D2D3;}
	.st11{fill:#9E9E9E;}
	.st12{fill:#AAA887;}
	.st13{fill:#D4D3B0;}
	.st14{fill:#ECEAC3;}
	.st15{fill:#5B7132;}
	.st16{fill:#69883A;}
	.st17{fill:#78A340;}
	.st18{opacity:0.5;}
	.st19{fill:#95C93F;}
	.st20{fill:#76A440;}
	.st21{opacity:0.3;fill:#95C93F;enable-background:new    ;}
	.st22{fill:#F59261;}
	.st23{fill:#CD5827;}
	.st24{fill:#FBC6AF;}
	.st25{fill:#309FA5;}
	.st26{fill:#E19C29;}
	.st27{fill:#9B6727;}
	.st28{fill:#FEEDA4;}
	.st29{fill:#EC6D24;}
	.st30{fill:#533215;}
	.st31{fill:#3F3B3C;}
	.st32{fill:#F8E260;}
	.st33{fill:#FFFEF0;}
	.st34{fill:#F6905D;}
	.st35{fill:#3D2313;}
	.st36{fill:#FFCD81;}
	.st37{fill:#682110;}
	.st38{fill:#231F20;}
	.st39{fill:#FFE8B0;}
	.st40{fill:#FCEFCB;}
	.st41{fill:#E5C195;}
	.st42{fill:#4D4D4D;}
	.st43{fill:#737373;}
	.st44{fill:#AB4B25;}
	.st45{fill:#969696;}
	.st46{fill:#B7B7B8;}
	.st47{fill:#919191;}
	.st48{fill:#1E6767;}
	.st49{fill:#82351A;}
	.st50{fill:#BBBDBF;}
	.st51{fill:#6E6F71;}
</style>
<rect x="-18.4" y="-15.1" class="st0" width="1438.7" height="822.1"/>
<g>
	<rect x="350.5" y="276.3" class="st1" width="73.5" height="73.5"/>
	<g>
		<g>
			<path class="st2" d="M387.3,348.8c-18.2,0-33-11.5-33-30.1c0-10.2,8.3-34.1,11.4-25.5c3.7,10,13.3,23.8,21.6,23.8
				c7.2,0,16.7-13.8,19.3-25.6c2.2-9.7,13.7,16.1,13.7,27.3C420.2,337.3,405.5,348.8,387.3,348.8z"/>
			<g>
				<path class="st2" d="M407.9,307.4c-3.3-10.3-9.4-19.7-10.2-20.8c-0.8-1.1-2.5-2.9-3.7-0.4c-1.2,2.5-5.1,17.4-9.1,26.7
					C382.1,319.3,411,316.9,407.9,307.4z"/>
				<path class="st2" d="M365.9,303.5c5-13.3,13-23.4,13.9-24.5s2.5-2.9,3.7-0.4c1.2,2.5,11.1,31.6,15.1,40.9
					C401.4,325.9,362.4,312.9,365.9,303.5z"/>
			</g>
		</g>
		<g>
			<path class="st3" d="M384.9,344.6c11.1,0,20-6.4,20-16.7c0-5.7-5-18.9-6.9-14.2c-2.2,5.6-8.1,13.2-13.1,13.2
				c-4.4,0-10.1-7.7-11.7-14.2c-1.3-5.4-8.3,8.9-8.3,15.2C364.9,338.2,373.9,344.6,384.9,344.6z"/>
			<g>
				<path class="st3" d="M393.4,321.7c-1.6-9.8-7.5-18.2-8.2-19.3c-0.7-1-1.8-2.7-3-0.3c-2,4.1-6,10-8.6,22.4
					C372.1,331.3,394.9,330.9,393.4,321.7z"/>
			</g>
		</g>
	</g>
</g>
<g>
	<rect x="443.3" y="276.3" class="st1" width="73.5" height="73.5"/>
	<g>
		<path class="st4" d="M513,332c0,1-4.3,13.8-5.3,13.8c-9.3-0.1-6-11.4-15.7-11.4c-9.9,0-9.9,0.3-19.8,0.3s-9.9,0.6-19.8,0.6
			c-0.7,0-1.2-0.6-1.2-1.3c0-8.8,0.7-8.8,0.7-17.6c0-8.8-3.7-18.9-4.4-27.4c1.2-3.2,6.5-4.6,9-7.8c2.8,0,5.6-0.6,15.6-0.5
			c9.9,0.2,10.2-0.7,20.1-0.6c4.6,0,10.2,0.3,19.3,0.4c1,0,1,5.3,1,6.4c0,8.9-0.4,3.9-0.4,12.6c0,8.6,1.2,8.6,1.2,17.2
			C513.4,325.4,513,323.3,513,332z"/>
		<path class="st5" d="M508.7,344.1c0,1-0.8,1.9-1.8,1.9c-9.3-0.1-9.5-1.6-19.2-1.6c-9.9,0-9.9,0.3-19.8,0.3s-9.9,0.6-19.8,0.6
			c-0.7,0-1.2-0.6-1.2-1.3c0-8.8,0.7-8.8,0.7-17.6c0-8.8-0.5-8.8-0.5-17.6c0-8.8,0.7-10.9,0.6-19.9c10.1,0.2,10.1-0.1,20.1,0.1
			c9.9,0.2,10.2-0.7,20.1-0.6c4.6,0,10.2-0.3,19.3-0.2c1,0,1.4,2.7,1.4,3.8c0,8.9-0.8,8.8-0.8,17.5c0,8.6,1.2,8.6,1.2,17.2
			C509,335.4,508.7,335.3,508.7,344.1z"/>
		<g>
			<polygon class="st4" points="469.6,312.3 461.9,312.2 461.7,310.2 469.4,310.1 			"/>
			<polygon class="st4" points="495.1,312.3 487.9,312.2 487.7,310.2 494.9,310.1 			"/>
		</g>
		
			<rect x="453.9" y="293.7" transform="matrix(0.6628 -0.7488 0.7488 0.6628 -65.1413 443.7162)" class="st6" width="12.4" height="1"/>
		
			<rect x="450.6" y="299.9" transform="matrix(0.6633 -0.7483 0.7483 0.6633 -69.8909 445.3746)" class="st6" width="18.8" height="1"/>
		<rect x="452.4" y="337" transform="matrix(0.6633 -0.7483 0.7483 0.6633 -97.1332 459.19)" class="st6" width="18.8" height="1"/>
		
			<rect x="489.1" y="322.6" transform="matrix(0.6582 -0.7529 0.7529 0.6582 -73.3748 484.5398)" class="st6" width="15.6" height="1"/>
		
			<rect x="484.6" y="327.2" transform="matrix(0.6649 -0.7469 0.7469 0.6649 -77.6841 482.1647)" class="st6" width="27.8" height="1"/>
	</g>
</g>
<g>
	<rect x="257.6" y="276.3" class="st1" width="73.5" height="73.5"/>
	<g>
		<g>
			<path class="st2" d="M278.6,281.9c0.2-0.5,0.9-0.9,1.5-0.9h43.3c0.6,0,0.7,0.4,0.4,0.8l-17.6,21.9c-0.3,0.4-0.2,1,0.2,1.3
				l16.4,9.3c0.5,0.3,0.5,0.7,0,1.1L280,344.5c-0.5,0.3-0.7,0.1-0.5-0.4l7.8-21.1c0.2-0.5,0-1.2-0.5-1.4L265.5,310
				c-0.5-0.3-0.7-0.9-0.4-1.4L278.6,281.9z"/>
		</g>
		<path class="st7" d="M298.6,288.5h-34.2c-0.3,0-0.5-0.2-0.5-0.5s0.2-0.5,0.5-0.5h34.2c0.3,0,0.5,0.2,0.5,0.5
			S298.9,288.5,298.6,288.5z"/>
		<path class="st7" d="M303.8,292.8h-34.2c-0.3,0-0.5-0.2-0.5-0.5s0.2-0.5,0.5-0.5h34.2c0.3,0,0.5,0.2,0.5,0.5
			S304.1,292.8,303.8,292.8z"/>
		<path class="st7" d="M287.7,328.3h-17.1c-0.3,0-0.5-0.2-0.5-0.5s0.2-0.5,0.5-0.5h17.1c0.3,0,0.5,0.2,0.5,0.5
			S288,328.3,287.7,328.3z"/>
		<path class="st7" d="M292.8,332.5h-17.1c-0.3,0-0.5-0.2-0.5-0.5s0.2-0.5,0.5-0.5h17.1c0.3,0,0.5,0.2,0.5,0.5
			S293.1,332.5,292.8,332.5z"/>
	</g>
</g>
<g>
	<rect x="536.1" y="276.3" class="st1" width="73.5" height="73.5"/>
	<g>
		<path class="st8" d="M602.2,306.1c1,16.7-8.2,33.5,3,28.3c4.3-2,0.3,4.2-1.7,5.7c-14,10.7-32,8.7-40,6.3c-20-5.8-25-21.1-25-38
			s13.7-30.7,30.7-30.7S601.3,290.5,602.2,306.1z"/>
		<path class="st9" d="M567.1,304.8c0,7.7-7.4,12.7-14.5,12.7c-7.1,0-11.2-4.9-11.2-12.7c0-7.7,7.7-14,14.8-14
			S567.1,297.1,567.1,304.8z"/>
		<path class="st10" d="M572,322.5c1.7,2.6,0.3,5.9-2.2,7.4c-2.4,1.5-4.9,0.8-6.6-1.8c-1.7-2.6-0.4-6.4,2-7.9
			C567.6,318.7,570.3,319.9,572,322.5z"/>
		<path class="st9" d="M598.1,303.5c0-7.7-7.4-12.7-14.5-12.7c-7.1,0-11.2,4.9-11.2,12.7c0,7.7,7.7,14,14.8,14
			S598.1,311.2,598.1,303.5z"/>
		<g>
			<circle class="st11" cx="578.6" cy="305.5" r="1.6"/>
			<circle class="st11" cx="547.5" cy="305.5" r="1.6"/>
		</g>
	</g>
</g>
<g>
	<rect x="164.8" y="276.3" class="st1" width="73.5" height="73.5"/>
	<g>
		<path class="st12" d="M236.3,346.3c0,1.3-0.9,2.3-2,2.3c-10.5-0.1-10.7-2-21.7-2c-11.2,0-11.2,0.3-22.4,0.3
			c-11.2,0-11.2,0.8-22.4,0.8c-0.7,0-1.3-0.7-1.3-1.5c0-10.7,0.8-10.7,0.8-21.4c0-10.7-0.6-10.7-0.6-21.4c0-10.8,0.7-13.3,0.7-24.2
			c11.4,0.2,10.6-1.7,21.9-1.5c11.2,0.2,12.3,0.8,23.5,0.9c5.2,0.1,11.5-0.3,21.8-0.2c1.1,0,1.6,3.3,1.6,4.6
			c0,10.8-0.9,10.7-0.9,21.3c0,10.5,1.3,10.5,1.3,21C236.7,335.7,236.3,335.6,236.3,346.3z"/>
		<path class="st13" d="M235.3,346.4c0,1.2-0.9,2.1-1.9,2.1c-10.1-0.1-10.3-1.8-20.9-1.8c-10.8,0-10.8,0.3-21.6,0.3
			c-10.8,0-10.8,0.7-21.6,0.7c-0.7,0-1.3-0.6-1.3-1.4c0-9.9,0.8-9.9,0.8-19.8c0-9.9-0.5-9.9-0.5-19.8s0.7-12.3,0.7-22.3
			c11.1,0.2,11.4-3.3,22.3-3.1c10.8,0.2,11,4.9,21.3,1.7c5-1.5,10.8-2,21.3,0.7c1.1,0.3,1.5,3,1.5,4.2c0,10-0.9,9.9-0.9,19.7
			c0,9.7,1.3,9.7,1.3,19.4C235.7,336.7,235.3,336.6,235.3,346.4z"/>
		<path class="st14" d="M199.1,334.3c3.7-1.7,10.7-10,17.3-9.3c6.7,0.7,20.3,11.7,14,9C224.1,331.3,216.4,323.3,199.1,334.3z"/>
		<path class="st14" d="M173.1,321.3c3.4-1.5,9.9-9.3,16.1-8.7s18.9,10.8,13,8.4C196.3,318.5,189.2,311.1,173.1,321.3z"/>
		<path class="st14" d="M195.4,299.9c3-3.7,11.5-10,18.7-9.3c7.2,0.7,12.9,5.3,15.1,9C223.4,295.6,214.1,288.9,195.4,299.9z"/>
		<path class="st14" d="M202.7,309.8c-2.9,0.3-7.4,3-10,5.1c0.8,0.1,1.6,0.2,2.4,0.2c4.2-2.2,9.8-4.6,19.6,1.1
			C211.7,314.1,207.1,309.4,202.7,309.8z"/>
		<path class="st14" d="M180.4,291.4c-0.6,0-0.6,1,0,1C181,292.4,181,291.4,180.4,291.4z"/>
		<path class="st14" d="M174.1,291.9c-2.6,0-2.6,4,0,4C176.6,295.9,176.6,291.9,174.1,291.9z"/>
		<path class="st14" d="M184.4,301.4c-1.9,0-1.9,3,0,3S186.3,301.4,184.4,301.4z"/>
		<path class="st14" d="M182.4,328.3c-1.3,0-1.3,2,0,2S183.7,328.3,182.4,328.3z"/>
		<path class="st14" d="M176.4,338.8c-0.6,0-0.6,1,0,1C177,339.8,177,338.8,176.4,338.8z"/>
		<path class="st14" d="M189.7,327.1c-0.6,0-0.6,1,0,1C190.4,328.1,190.4,327.1,189.7,327.1z"/>
		<path class="st14" d="M219.7,316.3c-1.3,0-1.3,2,0,2S221,316.3,219.7,316.3z"/>
		<path class="st14" d="M212.7,304.6c-1.3,0-1.3,2,0,2S214,304.6,212.7,304.6z"/>
		<path class="st14" d="M203.4,304.6c-1.3,0-1.3,2,0,2S204.7,304.6,203.4,304.6z"/>
		<path class="st14" d="M207.4,301.9c-1.3,0-1.3,2,0,2S208.7,301.9,207.4,301.9z"/>
		<path class="st14" d="M223.7,283.3c-1.3,0-1.3,2,0,2S225,283.3,223.7,283.3z"/>
		<path class="st14" d="M232.1,287.9c-1.3,0-1.3,2,0,2C233.3,289.9,233.3,287.9,232.1,287.9z"/>
		<path class="st14" d="M228.4,313.1c-0.6,0-0.6,1,0,1C229,314.1,229,313.1,228.4,313.1z"/>
		<path class="st14" d="M223.7,305.8c-1.9,0-1.9,3,0,3C225.7,308.8,225.7,305.8,223.7,305.8z"/>
		<path class="st14" d="M214.1,337.9c-1.3,0-1.3,2,0,2C215.3,339.9,215.3,337.9,214.1,337.9z"/>
		<path class="st14" d="M201.4,338.6c-1.3,0-1.3,2,0,2S202.7,338.6,201.4,338.6z"/>
		<path class="st14" d="M228.7,337.1c-1.9,0-1.9,3,0,3C230.7,340.1,230.7,337.1,228.7,337.1z"/>
		<path class="st14" d="M223.4,333.6c-1.3,0-1.3,2,0,2S224.7,333.6,223.4,333.6z"/>
	</g>
</g>
<g>
	<rect x="629" y="276.3" class="st1" width="73.5" height="73.5"/>
	<g>
		<path class="st15" d="M701.2,335.5c-0.4-4.4-3-7.4-6.7-7.6l0,0h-0.1h-0.1l0,0c-3.7,0.1-6.3,3.2-6.7,7.6c-0.2,2.7,1.7,4.8,6.7,4.9
			l0,0h0.1h0.1l0,0C699.5,340.3,701.5,338.1,701.2,335.5z"/>
		<path class="st16" d="M644.2,335.5c-0.4-4.4-3-7.4-6.7-7.6l0,0h-0.1h-0.1l0,0c-3.7,0.1-6.3,3.2-6.7,7.6c-0.2,2.7,1.7,4.8,6.7,4.9
			l0,0h0.1h0.1l0,0C642.5,340.3,644.5,338.1,644.2,335.5z"/>
		<path class="st17" d="M701.2,316.7c-2-22.7-15.5-38.5-34.7-39.3l0,0c-0.2,0-0.5,0-0.7,0s-0.5,0-0.7,0l0,0
			c-19.2,0.8-32.7,16.6-34.7,39.3c-1.2,13.8,8.9,24.9,34.7,25.3l0,0c0.2,0,0.5,0,0.7,0s0.5,0,0.7,0l0,0
			C692.2,341.6,702.4,330.5,701.2,316.7z"/>
		<path class="st16" d="M701.2,316.7c-2-22.7-15.5-38.5-34.7-39.3l0,0c-0.2,0-0.5,0-0.7,0s-0.5,0-0.7,0l0,0c-0.6,0-1.2,0.1-1.8,0.1
			c15.8,1.6,26.8,16.4,28.6,37.3c1.1,13.1-7.7,23.7-30.2,24.1l0,0c-0.2,0-0.4,0-0.6,0s-0.4,0-0.6,0l0,0
			c-20.7-0.4-29.8-9.4-30.2-21.1c-0.6,13.3,9.7,23.8,34.8,24.2l0,0c0.2,0,0.5,0,0.7,0s0.5,0,0.7,0l0,0
			C692.2,341.6,702.4,330.5,701.2,316.7z"/>
		<g class="st18">
			<path class="st19" d="M665.6,299.9c-4.5,0-7.7-0.9-7.9-0.9h-0.1l-0.1-0.2c-3.5-3.8-9.3-11.4-10.4-15.7l1-0.3
				c1,3.9,6.5,11.3,10.1,15.2c1.1,0.3,8.3,1.9,16.1-0.3c8.9-7.3,9.8-13.4,9.8-13.5l1,0.1c0,0.3-0.9,6.6-10.2,14.2l-0.2,0.1
				C671.3,299.6,668.2,299.9,665.6,299.9z"/>
			<path class="st19" d="M669.4,325.2c-11.5,0-22.6-2.6-23.3-2.7H646l-0.1-0.1c-6-5-11.2-11.5-12.8-16.3l0.9-0.3
				c1.6,4.6,6.5,10.9,12.4,15.8c1.9,0.4,26.3,5.8,39.2,0c9.1-5.9,12.7-12.3,12.8-12.4l0.9,0.5c-0.2,0.3-3.8,6.7-13.2,12.8
				C681.4,324.5,675.3,325.2,669.4,325.2z"/>
			<path class="st19" d="M685.7,321c-3.6-11.4-12.2-23.1-12.3-23.2l0.8-0.6c0.1,0.1,8.7,11.9,12.4,23.5L685.7,321z"/>
			<path class="st19" d="M646.3,322.2l-0.9-0.5c1.4-2.4,2.7-5.5,4.2-8.8c2.5-5.7,5.1-11.5,8.2-15.3l0.8,0.6c-3,3.7-5.6,9.5-8.1,15.1
				C649,316.6,647.7,319.8,646.3,322.2z"/>
		</g>
		<path class="st19" d="M686.9,334.8c-1.2-12.4-9.3-21.1-20.7-21.5l0,0c-0.1,0-0.3,0-0.4,0c-0.1,0-0.3,0-0.4,0l0,0
			c-11.4,0.4-19.5,9.1-20.7,21.5c-0.7,7.6,5.3,13.6,20.7,13.9l0,0c0.1,0,0.3,0,0.4,0c0.1,0,0.3,0,0.4,0l0,0
			C681.6,348.5,687.6,342.4,686.9,334.8z"/>
		<path class="st20" d="M686.9,334.8c-1.2-12.4-9.3-21.1-20.7-21.5l0,0c-0.1,0-0.3,0-0.4,0c-0.1,0-0.3,0-0.4,0l0,0
			c-0.4,0-0.7,0-1.1,0.1c9.4,0.9,16,9,17,20.4c0.6,7.2-4.6,13-18,13.2l0,0c-0.1,0-0.2,0-0.4,0c-0.1,0-0.2,0-0.4,0l0,0
			c-12.3-0.2-17.7-5.1-18-11.5c-0.3,7.3,5.8,13,20.8,13.2l0,0c0.1,0,0.3,0,0.4,0c0.1,0,0.3,0,0.4,0l0,0
			C681.6,348.5,687.6,342.4,686.9,334.8z"/>
		<g>
			<polygon class="st16" points="658.1,335.1 651.4,335 651.2,333.2 657.9,333.1 			"/>
			<polygon class="st16" points="680.3,335.1 674,335 673.9,333.2 680.1,333.1 			"/>
		</g>
		<path class="st21" d="M654.1,294.9c-5.1,6.6-7.2,10.1-10.6,7.8c-3.4-2.2-4.5-4.9,0.6-11.5c5.1-6.6,12-10.1,15.4-7.9
			C662.8,285.7,659.2,288.3,654.1,294.9z"/>
	</g>
</g>
<g>
	<rect x="814.6" y="276.3" class="st1" width="73.5" height="73.5"/>
	<g>
		<g>
			<polygon class="st22" points="833.9,315.9 816.5,304.5 823,289.6 879.6,289.3 886.2,304.5 868.8,315.9 			"/>
			<polygon class="st23" points="864.3,289.6 879.6,289.3 886.2,304.5 868.8,315.9 			"/>
			<polygon class="st3" points="833.9,315.9 816.5,304.5 852.4,346.7 886.2,304.5 868.8,315.9 			"/>
			<polygon class="st23" points="852.4,346.7 886.2,304.5 868.8,315.9 			"/>
			<polygon class="st24" points="837.2,296.9 823,289.4 837.2,279.4 865.5,279.4 879.7,289.4 865.5,296.9 			"/>
		</g>
		
			<rect x="842" y="302.6" transform="matrix(0.6628 -0.7488 0.7488 0.6628 59.0313 737.3627)" class="st24" width="12.4" height="1"/>
		
			<rect x="868.6" y="297.8" transform="matrix(0.2021 -0.9794 0.9794 0.2021 405.9044 1094.7841)" class="st3" width="12.4" height="1"/>
		
			<rect x="871.1" y="303.8" transform="matrix(0.2021 -0.9794 0.9794 0.2021 402.0233 1102.0199)" class="st3" width="12.4" height="1"/>
		
			<rect x="840.2" y="307.4" transform="matrix(0.6633 -0.7483 0.7483 0.6633 55.6374 739.4166)" class="st24" width="18.8" height="1"/>
		
			<rect x="840.8" y="286.7" transform="matrix(0.9263 -0.3768 0.3768 0.9263 -45.4597 342.0639)" class="st9" width="21.6" height="1"/>
		
			<rect x="836.6" y="287.6" transform="matrix(0.9215 -0.3885 0.3885 0.9215 -45.7288 349.9599)" class="st9" width="11.9" height="1"/>
	</g>
</g>
<g>
	<rect x="721.8" y="276.3" class="st1" width="73.5" height="73.5"/>
	<g>
		<polygon class="st5" points="741.1,315.9 723.7,304.5 730.2,289.6 786.8,289.3 793.4,304.5 776,315.9 		"/>
		<polygon class="st25" points="771.5,289.6 786.8,289.3 793.4,304.5 776,315.9 		"/>
		<polygon class="st4" points="741.1,315.9 723.7,304.5 759.6,346.7 793.4,304.5 776,315.9 		"/>
		<polygon class="st25" points="759.6,346.7 793.4,304.5 776,315.9 		"/>
		<polygon class="st6" points="744.4,296.9 730.2,289.4 744.4,279.4 772.7,279.4 786.9,289.4 772.7,296.9 		"/>
		
			<rect x="749.2" y="302.6" transform="matrix(0.6628 -0.7488 0.7488 0.6628 27.7291 667.8448)" class="st6" width="12.4" height="1"/>
		
			<rect x="775.8" y="297.8" transform="matrix(0.2021 -0.9794 0.9794 0.2021 331.8332 1003.8613)" class="st5" width="12.4" height="1"/>
		
			<rect x="778.3" y="303.8" transform="matrix(0.2021 -0.9794 0.9794 0.2021 327.9522 1011.0972)" class="st5" width="12.4" height="1"/>
		
			<rect x="747.3" y="307.4" transform="matrix(0.6633 -0.7483 0.7483 0.6633 24.3802 669.9448)" class="st6" width="18.8" height="1"/>
		
			<rect x="748" y="286.7" transform="matrix(0.9263 -0.3768 0.3768 0.9263 -52.3011 307.0839)" class="st9" width="21.6" height="1"/>
		
			<rect x="743.8" y="287.6" transform="matrix(0.9215 -0.3885 0.3885 0.9215 -53.0197 313.8971)" class="st9" width="11.9" height="1"/>
	</g>
</g>
<g>
	<rect x="907.5" y="276.3" class="st1" width="73.5" height="73.5"/>
	<g>
		<polygon class="st2" points="926.8,315.9 909.4,304.5 915.9,289.6 972.5,289.3 979.1,304.5 961.7,315.9 		"/>
		<polygon class="st26" points="957.2,289.6 972.5,289.3 979.1,304.5 961.7,315.9 		"/>
		<polygon class="st26" points="926.8,315.9 909.4,304.5 945.3,346.7 979.1,304.5 961.7,315.9 		"/>
		<polygon class="st27" points="945.3,346.7 979.1,304.5 961.7,315.9 		"/>
		<polygon class="st28" points="930.1,296.9 915.9,289.4 930.1,279.4 958.4,279.4 972.6,289.4 958.4,296.9 		"/>
		
			<rect x="934.9" y="302.6" transform="matrix(0.6628 -0.7488 0.7488 0.6628 90.3337 806.8807)" class="st28" width="12.4" height="1"/>
		
			<rect x="961.5" y="297.8" transform="matrix(0.2021 -0.9794 0.9794 0.2021 479.9755 1185.7064)" class="st2" width="12.4" height="1"/>
		
			<rect x="964" y="303.8" transform="matrix(0.2021 -0.9794 0.9794 0.2021 476.0944 1192.9424)" class="st2" width="12.4" height="1"/>
		
			<rect x="933" y="307.4" transform="matrix(0.6633 -0.7483 0.7483 0.6633 86.8944 808.8882)" class="st28" width="18.8" height="1"/>
		
			<rect x="933.7" y="286.7" transform="matrix(0.9263 -0.3768 0.3768 0.9263 -38.6182 377.0439)" class="st9" width="21.6" height="1"/>
		
			<rect x="929.5" y="287.6" transform="matrix(0.9215 -0.3885 0.3885 0.9215 -38.4378 386.0228)" class="st9" width="11.9" height="1"/>
	</g>
</g>
<g>
	<g>
		<rect x="1186.5" y="276.3" class="st1" width="73.5" height="73.5"/>
		<g>
			<g>
				<g>
					<g>
						<g>
							<path class="st2" d="M1188.7,341.9c-0.1,0.5,0.3,1,0.8,1h43.1c0.5,0,0.7-0.4,0.4-0.8l-35.6-50.6c-0.3-0.4-0.6-0.4-0.7,0.2
								L1188.7,341.9z"/>
						</g>
					</g>
					<g>
						<g>
							<path class="st2" d="M1257.8,341.9c0.1,0.5-0.3,1-0.8,1h-43.2c-0.6,0-0.7-0.4-0.4-0.8l35.7-50.6c0.3-0.4,0.6-0.4,0.7,0.2
								L1257.8,341.9z"/>
						</g>
					</g>
				</g>
			</g>
			<g>
				<path class="st2" d="M1222.9,279.2c0.2-0.5,0.6-0.5,0.8,0l27.7,62.8c0.2,0.5,0,0.9-0.6,0.9h-55c-0.5,0-0.8-0.4-0.6-0.9
					L1222.9,279.2z"/>
			</g>
			<ellipse class="st2" cx="1223.3" cy="342.9" rx="34.6" ry="4.9"/>
			<g>
				<path class="st3" d="M1224.1,319.4c-0.5,1-1.2,1-1.7,0l-5-10.7c-0.1-0.2-0.1-0.6,0-0.8l5-10.7c0.5-1,1.2-1,1.7,0l4.3,9.3
					c0.5,1,0.5,2.6,0,3.6L1224.1,319.4z"/>
			</g>
			<g>
				<g>
					<g>
						<g>
							<path class="st3" d="M1202.2,320c0.7,0.8,1.5,0.7,1.8-0.4l1.5-5.3c0-0.1,0-0.3-0.1-0.4l-3.5-4.2c-0.7-0.8-1.5-0.7-1.8,0.4
								l-1.1,3.6c-0.3,1.1,0,2.6,0.7,3.5L1202.2,320z"/>
						</g>
					</g>
				</g>
				<g>
					<g>
						<g>
							<path class="st3" d="M1244.4,320c-0.7,0.8-1.5,0.7-1.8-0.4l-1.5-5.3c0-0.1,0-0.3,0.1-0.4l3.5-4.2c0.7-0.8,1.5-0.7,1.8,0.4
								l1.1,3.6c0.3,1.1,0,2.6-0.7,3.5L1244.4,320z"/>
						</g>
					</g>
				</g>
			</g>
		</g>
	</g>
	<g>
		<rect x="1093.7" y="276.3" class="st1" width="73.5" height="73.5"/>
		<g>
			<g>
				<g>
					<g>
						<g>
							<path class="st29" d="M1096,341.9c-0.1,0.5,0.3,1,0.8,1h43.1c0.6,0,0.7-0.4,0.4-0.8l-35.6-50.6c-0.3-0.4-0.6-0.4-0.7,0.2
								L1096,341.9z"/>
						</g>
					</g>
					<g>
						<g>
							<path class="st29" d="M1165,341.9c0.1,0.5-0.3,1-0.8,1h-43.1c-0.6,0-0.7-0.4-0.4-0.8l35.7-50.6c0.3-0.4,0.6-0.4,0.7,0.2
								L1165,341.9z"/>
						</g>
					</g>
				</g>
			</g>
			<g>
				<path class="st29" d="M1130.1,279.2c0.2-0.5,0.6-0.5,0.8,0l27.7,62.8c0.2,0.5,0,0.9-0.6,0.9h-54.9c-0.6,0-0.8-0.4-0.6-0.9
					L1130.1,279.2z"/>
			</g>
			<ellipse class="st29" cx="1130.5" cy="342.9" rx="34.6" ry="4.9"/>
			<g>
				<path class="st2" d="M1131.3,319.4c-0.5,1-1.2,1-1.7,0l-5-10.7c-0.1-0.2-0.1-0.6,0-0.8l5-10.7c0.5-1,1.2-1,1.7,0l4.3,9.3
					c0.5,1,0.5,2.6,0,3.6L1131.3,319.4z"/>
			</g>
			<g>
				<g>
					<g>
						<g>
							<path class="st2" d="M1109.4,320c0.7,0.8,1.5,0.7,1.8-0.4l1.5-5.3c0-0.1,0-0.3-0.1-0.4l-3.5-4.2c-0.7-0.8-1.5-0.7-1.8,0.4
								l-1.1,3.6c-0.3,1.1,0,2.6,0.7,3.5L1109.4,320z"/>
						</g>
					</g>
				</g>
				<g>
					<g>
						<g>
							<path class="st2" d="M1151.6,320c-0.7,0.8-1.5,0.7-1.8-0.4l-1.5-5.3c0-0.1,0-0.3,0.1-0.4l3.5-4.2c0.7-0.8,1.5-0.7,1.8,0.4
								l1.1,3.6c0.3,1.1,0,2.6-0.7,3.5L1151.6,320z"/>
						</g>
					</g>
				</g>
			</g>
		</g>
	</g>
	<g>
		<rect x="1000.8" y="276.3" class="st1" width="73.5" height="73.5"/>
		<g>
			<g>
				<g>
					<g>
						<g>
							<path class="st4" d="M1003,341.9c-0.1,0.5,0.3,1,0.8,1h43.2c0.5,0,0.7-0.4,0.4-0.8l-35.7-50.6c-0.3-0.4-0.6-0.4-0.7,0.2
								L1003,341.9z"/>
						</g>
					</g>
					<g>
						<g>
							<path class="st4" d="M1072,341.9c0.1,0.5-0.3,1-0.8,1h-43.1c-0.6,0-0.7-0.4-0.4-0.8l35.7-50.6c0.3-0.4,0.6-0.4,0.7,0.2
								L1072,341.9z"/>
						</g>
					</g>
				</g>
			</g>
			<g>
				<path class="st4" d="M1037.1,279.2c0.2-0.5,0.6-0.5,0.8,0l27.7,62.8c0.2,0.5,0,0.9-0.6,0.9h-55c-0.6,0-0.8-0.4-0.6-0.9
					L1037.1,279.2z"/>
			</g>
			<ellipse class="st4" cx="1037.5" cy="342.9" rx="34.6" ry="4.9"/>
			<g>
				<path class="st2" d="M1038.3,319.4c-0.5,1-1.2,1-1.7,0l-5-10.7c-0.1-0.2-0.1-0.6,0-0.8l5-10.7c0.5-1,1.2-1,1.7,0l4.3,9.3
					c0.5,1,0.5,2.6,0,3.6L1038.3,319.4z"/>
			</g>
			<g>
				<g>
					<g>
						<g>
							<path class="st2" d="M1016.4,320c0.7,0.8,1.5,0.7,1.8-0.4l1.5-5.3c0-0.1,0-0.3-0.1-0.4l-3.5-4.2c-0.7-0.8-1.5-0.7-1.8,0.4
								l-1.1,3.6c-0.3,1.1,0,2.6,0.7,3.5L1016.4,320z"/>
						</g>
					</g>
				</g>
				<g>
					<g>
						<g>
							<path class="st2" d="M1058.6,320c-0.7,0.8-1.5,0.7-1.8-0.4l-1.5-5.3c0-0.1,0-0.3,0.1-0.4l3.5-4.2c0.7-0.8,1.5-0.7,1.8,0.4
								l1.1,3.6c0.3,1.1,0,2.6-0.7,3.5L1058.6,320z"/>
						</g>
					</g>
				</g>
			</g>
		</g>
	</g>
</g>
<g>
	<rect x="1186" y="92.7" class="st1" width="73.5" height="73.5"/>
	<g>
		<path class="st30" d="M1223,136.3l-23,23c-0.3,0.3-0.7,0.3-1,0l-6.1-6.1c-0.3-0.3-0.3-0.7,0-1l23-23c0.3-0.3,0.7-0.3,1,0l6.1,6.1
			C1223.3,135.6,1223.3,136,1223,136.3z"/>
		<g>
			<path class="st10" d="M1254.6,119.1c0.1,0.5-0.1,1.3-0.5,1.7l-34.1,34.1c-0.4,0.4-1,0.4-1.4,0l-21.3-21.3c-0.4-0.4-0.4-1,0-1.4
				l34.1-34.1c0.4-0.4,1.1-0.6,1.7-0.5l16.3,4c0.5,0.1,1.1,0.7,1.2,1.2L1254.6,119.1z"/>
		</g>
		<g>
			<path class="st8" d="M1242.1,112.1c0.1,0.5-0.1,1.3-0.5,1.7l-31,31c-0.4,0.4-1,0.4-1.4,0l-8.3-8.3c-0.4-0.4-0.4-1,0-1.4l31-31
				c0.4-0.4,1.1-0.6,1.7-0.5l5.9,1.4c0.5,0.1,1.1,0.7,1.2,1.2L1242.1,112.1z"/>
		</g>
		<path class="st2" d="M1194.8,127.6l29.7,29.7c0.9,0.9,0.9,2.5,0,3.4l0,0c-0.9,0.9-2.5,0.9-3.4,0l-29.7-29.7
			c-0.9-0.9-0.9-2.5,0-3.4l0,0C1192.3,126.7,1193.8,126.7,1194.8,127.6z"/>
	</g>
</g>
<g>
	<rect x="814.6" y="92.7" class="st1" width="73.5" height="73.5"/>
	<g>
		<path class="st9" d="M866.8,116.2v25c0,0-10.1,5.7-11.9,10.5s0.4,6.2,2.6,5.3s13.2-8.3,13.2-11.4c0-3.1-0.4-25-0.4-25
			c4,4.4,7.9,7,10.1,7s1.8,0-1.3-2.2c-3.1-2.2-8.3-8.1-9.7-11.4C868.7,112.4,866.8,113.6,866.8,116.2z"/>
		<path class="st9" d="M849.6,104v13.5c0,0-7.8,4.4-9.1,8.1c-1.4,3.7,0.3,4.7,2,4.1c1.7-0.7,10.1-6.4,10.1-8.8s-0.3-13.5-0.3-13.5
			c3,3.4,6.1,5.4,7.8,5.4c1.7,0,1.4,0-1-1.7c-2.4-1.7-6.4-6.3-7.4-8.8C851.1,101,849.6,101.9,849.6,104z"/>
		<path class="st9" d="M828.1,134.6v10.1c0,0-5.8,3.3-6.8,6.1s0.3,3.5,1.5,3c1.3-0.5,7.6-4.8,7.6-6.6s-0.3-10.1-0.3-10.1
			c2.3,2.5,4.6,4,5.8,4c1.3,0,1,0-0.8-1.3s-4.8-4.7-5.6-6.6C829.3,132.4,828.1,133.1,828.1,134.6z"/>
	</g>
</g>
<g>
	<path class="st31" d="M959.6,116.2v25c0,0-10.1,5.7-11.9,10.5s0.4,6.2,2.6,5.3s13.2-8.3,13.2-11.4c0-3.1-0.4-25-0.4-25
		c4,4.4,7.9,7,10.1,7s1.8,0-1.3-2.2c-3.1-2.2-8.3-8.1-9.7-11.4C961.6,112.4,959.6,113.6,959.6,116.2z"/>
	<path class="st31" d="M942.4,104v13.5c0,0-7.8,4.4-9.1,8.1c-1.4,3.7,0.3,4.7,2,4.1c1.7-0.7,10.1-6.4,10.1-8.8s-0.3-13.5-0.3-13.5
		c3,3.4,6.1,5.4,7.8,5.4c1.7,0,1.4,0-1-1.7c-2.4-1.7-6.4-6.3-7.4-8.8C943.9,101,942.4,101.9,942.4,104z"/>
	<path class="st31" d="M921,134.6v10.1c0,0-5.8,3.3-6.8,6.1s0.3,3.5,1.5,3s7.6-4.8,7.6-6.6s-0.3-10.1-0.3-10.1c2.3,2.5,4.6,4,5.8,4
		c1.3,0,1,0-0.8-1.3s-4.8-4.7-5.6-6.6C922.1,132.4,921,133.1,921,134.6z"/>
</g>
<g>
	<rect x="721.8" y="92.7" class="st1" width="73.5" height="73.5"/>
	<g>
		<g>
			<path class="st3" d="M724,127.6c0,12.4,12.1,40.9,14.3,30.1c0.3-1.2,0.7-2.1,1.2-2.8c-3.5-4-8.5-18.3-8.5-25.7
				c0-16.9,12.4-27.3,27.6-27.3s27.6,10.4,27.6,27.3c0,6.8-3.7,20.2-6.8,23.9c0.7,0.6,1.3,1.4,1.8,2.7c3.3,9.4,12-16.9,12-28.1
				c0-20.5-15.5-33.2-34.6-33.2C739.5,94.4,724,107,724,127.6z"/>
			<path class="st32" d="M731,129.2c0,7.4,5.1,21.8,8.5,25.7c0.9-1.2,2.1-1.8,3.4-2.3c0.3-0.7,0.7-1.2,1.2-1.6
				c-2.6-3.6-6.1-14.4-6.1-20.1c0-13.5,9.2-21.8,20.6-21.8s20.6,8.3,20.6,21.8c0,5.3-2.6,15.5-4.9,18.7c0.8,0.4,1.5,1,2,2
				c1.2,0.3,2.2,0.7,3.1,1.5c3-3.7,6.8-17.1,6.8-23.9c0-16.9-12.4-27.3-27.6-27.3S731,112.3,731,129.2z"/>
			<g>
				<path class="st4" d="M738,130.8c0,5.7,3.5,16.5,6.1,20.1c0.8-0.7,1.8-1.1,2.8-1.6c0.5-1,1.2-1.6,2-2c-0.1-0.2-0.1-0.4-0.2-0.6
					c-0.1,0-0.1,0.1-0.2,0.1c-1.8-2.6-4.2-10.6-4.2-14.8c0-9.9,6.4-16,14.4-16c7.9,0,14.4,6.1,14.4,16c0,3.9-1.8,11.4-3.4,13.8l0,0
					c-0.1,0.2-0.1,0.5-0.2,0.7c1,0.3,1.9,0.8,2.4,2c0.1,0,0.2,0.1,0.4,0.1c0.8,0.2,1.5,0.4,2.2,0.8c2.2-3.2,4.9-13.5,4.9-18.7
					c0-13.5-9.2-21.8-20.6-21.8C747.2,109.1,738,117.4,738,130.8z"/>
			</g>
			<g>
				<circle class="st33" cx="729.7" cy="154.5" r="6.9"/>
				<circle class="st33" cx="746" cy="142.8" r="6.9"/>
				<circle class="st33" cx="747.7" cy="152.4" r="8.5"/>
				<circle class="st33" cx="739.8" cy="157.5" r="6.9"/>
				<circle class="st33" cx="734.9" cy="146.4" r="10.4"/>
			</g>
			<g>
				<circle class="st33" cx="787.5" cy="154.5" r="6.9"/>
				<circle class="st33" cx="771.2" cy="142.8" r="6.9"/>
				<circle class="st33" cx="769.5" cy="152.4" r="8.5"/>
				<circle class="st33" cx="777.4" cy="157.5" r="6.9"/>
				<circle class="st33" cx="782.3" cy="146.4" r="10.4"/>
			</g>
		</g>
		<path class="st9" d="M735.9,145.8c-2,2.7-2.7,4.3-5.1,2.5c-2.4-1.7-3.5-3.3-1.5-6s5.5-3.5,7.9-1.8
			C739.6,142.3,737.8,143.1,735.9,145.8z"/>
		<path class="st9" d="M773.8,145.6c-1.9,2.7-2.6,4.2-4.9,2.6s-3.3-3.1-1.4-5.8c1.9-2.7,5.4-3.6,7.6-1.9
			C777.4,142,775.7,142.9,773.8,145.6z"/>
	</g>
</g>
<g>
	<rect x="1000.3" y="92.7" class="st1" width="73.5" height="73.5"/>
	<g>
		<g>
			<path class="st3" d="M1029.8,102.4c30.8,27.2,13.7,50.7,9.4,57.3c-4.4,6.6-25.5-17.6-30.7-26.3c-5.2-8.6-7.9-21.6-2.6-29.6
				C1011.1,95.9,1023,96.4,1029.8,102.4z"/>
			<path class="st3" d="M1044.2,102.4c-30.8,27.2-13.7,50.7-9.4,57.3c4.4,6.6,25.5-17.6,30.7-26.3c5.2-8.6,7.9-21.6,2.6-29.6
				C1063,95.9,1051,96.4,1044.2,102.4z"/>
		</g>
		<path class="st34" d="M1015.6,109.3c-3.4,4.3-2.4,10.1-5.8,7.9s-1.8-7.7,0.8-11.1c2.5-3.2,8.5-4.4,11.9-2.1
			C1025.8,106.1,1018.9,104.9,1015.6,109.3z"/>
	</g>
</g>
<g>
	<rect x="1093.1" y="92.7" class="st1" width="73.5" height="73.5"/>
	<g>
		<path class="st19" d="M1120.1,161.2c-0.2,0-0.3-0.1-0.5-0.2l-3-2.6c-0.3-0.3-0.4-0.7-0.1-1.1c0.3-0.3,0.7-0.4,1.1-0.1l2.4,2
			l3.5-4.6c0.2-0.3,0.7-0.4,1.1-0.1c0.3,0.2,0.4,0.7,0.1,1l-3.9,5.3C1120.6,161.1,1120.4,161.2,1120.1,161.2
			C1120.2,161.2,1120.2,161.2,1120.1,161.2z"/>
		<g>
			<path class="st19" d="M1109.9,139.8c-0.2,0-0.4-0.1-0.6-0.2c-0.3-0.3-0.3-0.8,0-1.1l3.5-3.2c0.2-0.2,0.5-0.2,0.7-0.2l9.6,3.1
				c0.4,0.1,0.6,0.5,0.5,0.9s-0.5,0.6-0.9,0.5l-9.2-2.9l-3.2,2.9C1110.3,139.8,1110.1,139.8,1109.9,139.8z"/>
			<path class="st19" d="M1113.4,136.6L1113.4,136.6l-4.9-0.2c-0.4,0-0.7-0.4-0.7-0.8s0.4-0.7,0.8-0.7l3.2,0.1l-2-2.4
				c-0.3-0.3-0.2-0.8,0.1-1.1c0.3-0.3,0.8-0.2,1.1,0.1l3.1,3.7c0.2,0.2,0.2,0.5,0.1,0.8C1113.9,136.5,1113.7,136.6,1113.4,136.6z"/>
		</g>
		<path class="st17" d="M1144.7,128.6c0.4-5.7,3.7-28.5-5.9-30.9c-13.8-3.5-34.7-5.3-38.7,0.4s-6.1,21.1-1,25.9s20.8,5.7,24.8,4.8
			c-12.5,20.6-5.2,32.3,17.2,31.1c8.7-0.4,16-5.1,19.8-8.8c2.2-2.2,4.7-5.6,0.3-4.1C1150.5,150.8,1143.6,143.1,1144.7,128.6z"/>
		<path class="st19" d="M1126.4,119.6L1126.4,119.6c-0.2,0-0.3-0.1-0.4-0.2l-6.6-7.3l-5.8,7.1c-0.1,0.1-0.3,0.2-0.5,0.2
			s-0.3-0.1-0.4-0.3l-3.7-9.1l-6.3,6.9c-0.2,0.2-0.5,0.2-0.7,0c-0.2-0.2-0.2-0.5,0-0.7l6.9-7.5c0.1-0.1,0.3-0.2,0.5-0.2
			c0.2,0,0.3,0.1,0.4,0.3l3.7,9l5.6-6.9c0.1-0.1,0.2-0.2,0.4-0.2c0.1,0,0.3,0.1,0.4,0.2l6.6,7.3l5.8-5.4c0.1-0.1,0.3-0.1,0.4-0.1
			s0.3,0.1,0.4,0.2l3,4.5c0.2,0.2,0.1,0.5-0.1,0.7c-0.2,0.2-0.5,0.1-0.7-0.1l-2.6-4l-5.8,5.4
			C1126.6,119.6,1126.5,119.6,1126.4,119.6z"/>
		<g>
			
				<ellipse transform="matrix(7.599556e-02 -0.9971 0.9971 7.599556e-02 941.542 1230.3827)" class="st15" cx="1134.6" cy="107.2" rx="1.4" ry="1.4"/>
			
				<ellipse transform="matrix(7.599556e-02 -0.9971 0.9971 7.599556e-02 917.7149 1198.2386)" class="st15" cx="1105.4" cy="104" rx="1.4" ry="1.4"/>
		</g>
		<g>
			<path class="st19" d="M1140.5,139.3c-0.2,0-0.5-0.1-0.6-0.3c-0.2-0.3-0.2-0.8,0.2-1l5.5-4l0.7-4.4c0.1-0.4,0.4-0.7,0.9-0.6
				c0.4,0.1,0.7,0.4,0.6,0.9l-0.7,4.7c0,0.2-0.1,0.4-0.3,0.5l-5.7,4.2C1140.8,139.3,1140.6,139.3,1140.5,139.3z"/>
			<path class="st19" d="M1150.9,136.1c0,0-0.1,0-0.2,0l-4.7-1c-0.3-0.1-0.5-0.3-0.6-0.6c-0.1-0.3,0-0.6,0.3-0.8l3.9-2.9
				c0.3-0.2,0.8-0.2,1,0.2c0.2,0.3,0.2,0.8-0.2,1l-2.6,1.9l3.1,0.6c0.4,0.1,0.7,0.5,0.6,0.9C1151.6,135.8,1151.3,136.1,1150.9,136.1
				z"/>
		</g>
		<path class="st19" d="M1137.5,165.1c-0.3,0-0.6-0.2-0.7-0.5c-0.2-0.4,0-0.8,0.4-1l3.6-1.5l-1.1-4c-0.1-0.4,0.1-0.8,0.5-0.9
			s0.8,0.1,0.9,0.5l1.3,4.6c0.1,0.4-0.1,0.8-0.4,0.9l-4.2,1.8C1137.7,165.1,1137.6,165.1,1137.5,165.1z"/>
	</g>
</g>
<g>
	<rect x="536.1" y="92.7" class="st1" width="73.5" height="73.5"/>
	<g>
		<path class="st35" d="M583.7,100.9c0-1.4-1.2-3.6-5-5.4c-3.8-1.9-17-4.4-27,9c-8.8,11.8-1.8,21.1-1.8,35.8
			c2.3,1.8,16.3,0.3,20.8-0.5C572.4,139.7,584.2,133.9,583.7,100.9z"/>
		<path class="st35" d="M562.3,100.9c0-1.4,8.8,0.2,12.6-1.6c3.8-1.9,10.3-6.7,19.4,5.2c8.9,11.7,1.8,21.1,1.8,35.8
			c-2.3,1.8-16.3,0.3-20.8-0.5C573.6,139.7,561.8,133.9,562.3,100.9z"/>
		<g>
			<path class="st36" d="M567.6,136.4c-2.1-1.9-5.7-1.9-8.5-0.5c-1.7,0.9-3.7,2.3-5.7,3.9c0.8,2.5,1.3,4.6,3.8,6.1
				c1.9,0.2,6.2-2.1,9.5-3.2C569.8,141.6,569.7,138.2,567.6,136.4z"/>
		</g>
		<path class="st36" d="M577.9,142.4c12.4,4.4,13.3,6.6,14.8,4.7c1.5-1.9-5.1-9.1-9.5-11.6c-2.1-1.2-4.8-1-6.3,0.9
			C575.5,138.3,575.6,141.6,577.9,142.4z"/>
		<g>
			<path class="st37" d="M573,131.2L573,131.2c-8.6,0-8.6,1.8-12.3,17.8c-1,4.4-0.3,10.4,3.9,14.8c1.6,1.7,1.8-5.9,8.4-5.9
				c0,0,0,0,0.1,0L573,131.2L573,131.2z"/>
			<path class="st37" d="M572.7,131.2L572.7,131.2c8.6,0,8.6,1.8,12.3,17.8c1,4.4,0.3,10.4-3.9,14.8c-1.6,1.7-1.8-5.9-8.4-5.9
				c0,0,0,0-0.1,0v-26.7H572.7z"/>
		</g>
		<g>
			<g>
				<g>
					<path class="st38" d="M564.8,133.4l-5.5,15.9c-0.2,0.5,0.1,1,0.7,1.1c0,0,9.5,1.6,12.9,1.6
						C576.4,152.1,582.7,131.8,564.8,133.4z"/>
				</g>
				<g>
					<path class="st38" d="M580.9,133.4l5.5,15.9c0.2,0.5-0.1,1-0.7,1.1c0,0-9.5,1.6-12.9,1.6C569.3,152.1,562.9,131.8,580.9,133.4z
						"/>
				</g>
			</g>
		</g>
		<g>
			<path class="st36" d="M573,98.1c-12.2,0-19.6,4.6-22.2,18.1c-2,10.6,5.7,19.5,22.2,19.5V98.1z"/>
			<path class="st36" d="M572.7,98.1c12.2,0,19.6,4.6,22.2,18.1c2,10.6-5.7,19.5-22.2,19.5V98.1L572.7,98.1z"/>
		</g>
		<g>
			<circle class="st38" cx="561" cy="121.2" r="2.6"/>
			<circle class="st38" cx="584.7" cy="121.2" r="2.6"/>
		</g>
		<path class="st35" d="M580.7,98.5c0,2.9-1.3,12.1-7.5,17.5c1.2-3.1,1.2-5.6,1.2-6.2c-6.2,7.3-20.8,9.4-24.7,8.9
			C550.7,112.3,555,90.6,580.7,98.5z"/>
		<path class="st35" d="M579.2,97.1c0,2.8,2,13.9,8.5,18.7c-0.5-1-1.2-4.3-1.2-5.9c2.5,5.3,6.5,7.9,9.3,8.8
			C596.5,111.5,589.7,96.3,579.2,97.1z"/>
		<g>
			<path class="st3" d="M595.7,154.8c1.7-3.6,4.7-7,4.7-7c0.7-0.8,0.4-1.6-0.7-1.8l-16.2-2.2c-1.1-0.1-2.4,0.5-2.8,1.5l-1.8,3.9
				c-0.5,1-0.2,2.4,0.6,3.2l12,11.1c0.8,0.7,1.6,0.5,1.8-0.6C593.3,163,594,158.4,595.7,154.8z"/>
		</g>
		<g>
			<path class="st3" d="M546.3,131.6c-0.7,1.4-1.1,1.9-1.1,1.9c-0.7,0.8-0.4,1.6,0.7,1.8l4.1,0.6c1.1,0.1,2.3-0.4,2.7-1.2
				c0.4-0.8,0.1-2.1-0.8-2.9l-3.1-2.8c-0.8-0.7-1.6-0.5-1.8,0.6C547.1,129.5,547,130.2,546.3,131.6z"/>
		</g>
		
			<rect x="570.6" y="120.7" transform="matrix(0.4202 -0.9074 0.9074 0.4202 201.5042 602.9347)" class="st38" width="4" height="46.2"/>
		<polygon class="st10" points="593.4,153.6 547.2,132.2 547.3,131.9 593.5,153.3 		"/>
		<polygon class="st10" points="593.8,152.7 547.6,131.3 547.7,131 593.9,152.4 		"/>
		<polygon class="st10" points="593,154.7 546.8,133.3 546.9,133 593.1,154.4 		"/>
		<path class="st36" d="M560.4,142c-3.7-7.8-3.8-9.5-5.3-9.4c-1.5,0.1-3.9,6.4-2.5,10.5c0.5,1.5,2.7,3,4.2,2.9
			C558.3,145.9,561.8,144.9,560.4,142z"/>
		<path class="st36" d="M584.8,144.1c4.6,4.5,7,6.9,8,6.4s0.5-5.1-1.6-7.7c-0.8-0.9-2.3-1.8-3.3-1.3S583.2,142.4,584.8,144.1z"/>
	</g>
</g>
<g>
	<rect x="629" y="92.7" class="st1" width="73.5" height="73.5"/>
	<g>
		<path class="st38" d="M658.5,99.1c0-1.3,3.3-2.9,6.7-3.3c3.3-0.3,19.8-5.1,27.2,10.8c7.8,16.8,1.4,23-1.2,25.3
			c-2.7,2.3-9.2,5.2-17.2,4.2C672.2,136.1,658,129.3,658.5,99.1z"/>
		<path class="st38" d="M682.6,99.1c0-1.3-3.3-2.9-6.7-3.3c-3.3-0.3-20.4-5.6-28.1,10.1c-6.5,13.2-1.8,22.6,0.9,24.9
			c2.7,2.3,7.1,4.6,14.8,5.3C665.2,136.1,683.1,129.3,682.6,99.1z"/>
		<path class="st38" d="M652.2,101.4c0-3.3-0.3-7.5-7-7.7c0.7,1.1,1.1,1.8,1.6,2.6c-2.5-3.1-6.1-3-11.3,1.4c-0.2,4.5,0,9.2,5.9,8.5
			c-1.7,1-3.8,0.3-5.4-0.3C637.8,110,649.5,114.8,652.2,101.4z"/>
		<g>
			<path class="st39" d="M664.4,142.5c-12.1,4.4-14.2,7.7-15.6,5.8c-1.4-1.9,6.2-10.2,10.5-12.6c2.1-1.2,4.7-1,6.2,0.9
				C666.8,138.5,666.7,141.7,664.4,142.5z"/>
			<path class="st39" d="M676.7,142.5c12.1,4.4,14.2,7.7,15.6,5.8c1.4-1.9-6.2-10.2-10.5-12.6c-2.1-1.2-4.7-1-6.2,0.9
				C674.3,138.5,674.5,141.7,676.7,142.5z"/>
		</g>
		<g>
			<path class="st39" d="M671.2,132.3L671.2,132.3c-8.6,0-8.6,1.8-12.3,17.8c-1,4.4-0.3,10.4,3.9,14.8c1.6,1.7,1.8-5.9,8.4-5.9
				c0,0,0,0,0.1,0L671.2,132.3L671.2,132.3z"/>
			<path class="st39" d="M670.9,132.3L670.9,132.3c8.6,0,8.6,1.8,12.3,17.8c1,4.4,0.3,10.4-3.9,14.8c-1.6,1.7-1.8-5.9-8.4-5.9
				c0,0,0,0-0.1,0L670.9,132.3L670.9,132.3z"/>
		</g>
		<g>
			<g>
				<g>
					<path class="st4" d="M664,133.9l-8.7,22.6c-0.2,0.5,0.1,1,0.6,1.1c0,0,11.3,2.3,15.3,2.3C675.2,159.9,685,131.6,664,133.9z"/>
				</g>
				<g>
					<path class="st4" d="M678.1,133.9l8.7,22.6c0.2,0.5-0.1,1-0.6,1.1c0,0-11.3,2.3-15.3,2.3C666.9,159.9,657.1,131.6,678.1,133.9z
						"/>
				</g>
			</g>
		</g>
		<g>
			<path class="st39" d="M670.7,98.5c-12.2,0-19.6,4.6-22.2,18.1c-2,10.6,5.7,19.5,22.2,19.5V98.5z"/>
			<path class="st39" d="M670.4,98.5c12.2,0,19.6,4.6,22.2,18.1c2,10.6-5.7,19.5-22.2,19.5V98.5z"/>
		</g>
		<g>
			<circle class="st38" cx="658.7" cy="121.6" r="2.6"/>
			<circle class="st38" cx="682.4" cy="121.6" r="2.6"/>
		</g>
		<path class="st38" d="M675.7,97c2.6,1,3.8,6.2,1.7,10.2c-2.2,4-14.2,11.8-29.3,9.1c0.5-6.1,2-14.6,10.8-17.6S674.1,96.3,675.7,97z
			"/>
		<path class="st38" d="M675.9,98c0.3,3.2,2.2,17.8,17.7,19.3C692.4,110.6,689.6,96.3,675.9,98z"/>
		<path class="st4" d="M646.2,111c-0.1,0-0.2,0-0.3-0.1c-0.5-0.2-0.8-0.8-0.6-1.3c1.7-4.9,5.3-9.5,6-10.4c0.3-0.4,1-0.5,1.4-0.2
			c0.4,0.3,0.5,1,0.2,1.4c-0.7,0.8-4,5.2-5.7,9.8C647,110.7,646.7,111,646.2,111z"/>
	</g>
</g>
<g>
	<rect x="350.5" y="92.7" class="st1" width="73.5" height="73.5"/>
	<g>
		<path class="st2" d="M375.2,99.1c0-1.4,3.3-3.1,6.7-3.5s19.8-5.4,27.2,11.5c7.8,17.9,2.7,23.4,0,25.9c-2.7,2.4-6.5,2.4-6,4.7
			C401.4,137.8,374.7,131.5,375.2,99.1z"/>
		<path class="st2" d="M399.4,99.1c0-1.4-3.3-3.1-6.7-3.5c-3.3-0.3-19.8-5.4-27.2,11.5c-7.8,17.9-2.7,23.4,0,25.9
			c2.7,2.5,6.5,2.4,6,4.7C373.2,137.8,399.9,131.5,399.4,99.1z"/>
		<g>
			<path class="st40" d="M381,141.6c-12.4,4.4-14.5,7.7-16,5.8s6.3-10.2,10.7-12.6c2.1-1.2,4.8-1,6.3,0.9
				C383.5,137.5,383.3,140.7,381,141.6z"/>
			<path class="st40" d="M393.6,141.6c12.4,4.4,14.5,7.7,16,5.8s-6.3-10.2-10.7-12.6c-2.1-1.2-4.8-1-6.3,0.9
				C391.2,137.5,391.3,140.7,393.6,141.6z"/>
		</g>
		<g>
			<path class="st40" d="M387.5,131.4C387.5,131.4,387.4,131.4,387.5,131.4c-8.6,0-8.6,1.8-12.3,17.8c-1,4.4-0.3,10.4,3.9,14.8
				c1.6,1.7,1.8-5.9,8.4-5.9c0,0,0,0,0.1,0v-26.7H387.5z"/>
			<path class="st40" d="M387.2,131.4L387.2,131.4c8.6,0,8.6,1.8,12.3,17.8c1,4.4,0.3,10.4-3.9,14.8c-1.6,1.7-1.8-5.9-8.4-5.9
				c0,0,0,0-0.1,0L387.2,131.4L387.2,131.4z"/>
		</g>
		<g>
			<g>
				<g>
					<path class="st19" d="M379.8,133.7l-9.1,22.5c-0.2,0.5,0.1,1,0.6,1.1c0,0,11.8,2.3,15.9,2.3
						C391.4,159.6,401.7,131.4,379.8,133.7z"/>
				</g>
				<g>
					<path class="st19" d="M394.5,133.7l9.1,22.6c0.2,0.5-0.1,1-0.6,1.1c0,0-11.8,2.3-15.9,2.3C383,159.7,372.7,131.4,394.5,133.7z"
						/>
				</g>
			</g>
		</g>
		<g>
			<path class="st40" d="M387.5,98.3c-12.2,0-19.6,4.6-22.2,18.1c-2,10.6,5.7,19.5,22.2,19.5V98.3z"/>
			<path class="st40" d="M387.2,98.3c12.2,0,19.6,4.6,22.2,18.1c2,10.6-5.7,19.5-22.2,19.5V98.3z"/>
		</g>
		<g>
			<circle class="st38" cx="375.4" cy="121.3" r="2.6"/>
			<circle class="st38" cx="399.2" cy="121.3" r="2.6"/>
		</g>
		<path class="st2" d="M392.5,96.7c2.6,1,3.8,6.2,1.7,10.2c-2.2,4-14.2,11.8-29.3,9.1c0.5-6.1,2-14.6,10.8-17.6
			C384.5,95.4,390.9,96.1,392.5,96.7z"/>
		<path class="st2" d="M392.7,97.8c0.3,3.2,2.2,17.8,17.7,19.3C409.2,110.4,406.4,96.1,392.7,97.8z"/>
	</g>
</g>
<g>
	<rect x="443.3" y="92.7" class="st1" width="73.5" height="73.5"/>
	<g>
		<path class="st38" d="M491.1,101.4c0-1.4-1.2-3.6-5-5.4c-3.8-1.9-17-4.4-27,9c-8.8,11.8-5,18.5-1.5,22.6c2.4,2.8,7.7,4.8,5.3,8.7
			C464.6,136.3,491.6,134.4,491.1,101.4z"/>
		<path class="st38" d="M479.4,104.5c0-1.4,1.2-3.6,5-5.4c3.8-1.9,8.7-5.6,16.8,6c8.4,12,5,18.5,1.5,22.6c-2.4,2.8-7.7,4.8-5.3,8.7
			C495.7,136.3,478.9,137.4,479.4,104.5z"/>
		<g>
			<path class="st41" d="M473.9,141.9c-12.4,4.4-14.5,7.7-16,5.8s6.3-10.2,10.7-12.7c2.1-1.2,4.8-1,6.3,0.9
				C476.4,137.9,476.2,141.1,473.9,141.9z"/>
			<path class="st41" d="M486.5,141.9c12.4,4.4,14.5,7.7,16,5.8s-6.3-10.2-10.7-12.6c-2.1-1.2-4.8-1-6.3,0.9
				C484,137.9,484.2,141.1,486.5,141.9z"/>
		</g>
		<g>
			<path class="st42" d="M480.4,131.7C480.4,131.7,480.3,131.7,480.4,131.7c-8.6,0-8.6,1.8-12.3,17.8c-1,4.4-0.3,10.4,3.9,14.8
				c1.6,1.7,1.8-5.9,8.4-5.9c0,0,0,0,0.1,0v-26.7H480.4z"/>
			<path class="st42" d="M480.1,131.7L480.1,131.7c8.6,0,8.6,1.8,12.3,17.8c1,4.4,0.3,10.4-3.9,14.8c-1.6,1.7-1.8-5.9-8.4-5.9
				c0,0,0,0-0.1,0v-26.7H480.1z"/>
		</g>
		<g>
			<g>
				<g>
					<path class="st3" d="M472.2,134l-5.5,15.9c-0.2,0.5,0.1,1,0.7,1.1c0,0,9.5,1.6,12.9,1.6C483.7,152.6,490.1,132.4,472.2,134z"/>
				</g>
				<g>
					<path class="st3" d="M488.2,134l5.5,15.9c0.2,0.5-0.1,1-0.7,1.1c0,0-9.5,1.6-12.9,1.6S470.3,132.4,488.2,134z"/>
				</g>
			</g>
		</g>
		<g>
			<path class="st41" d="M480.4,98.6c-12.2,0-19.6,4.6-22.2,18.1c-2,10.6,5.7,19.5,22.2,19.5V98.6z"/>
			<path class="st41" d="M480.1,98.6c12.2,0,19.6,4.6,22.2,18.1c2,10.6-5.7,19.5-22.2,19.5V98.6z"/>
		</g>
		<g>
			<circle class="st38" cx="468.3" cy="121.7" r="2.6"/>
			<circle class="st38" cx="492" cy="121.7" r="2.6"/>
		</g>
		<path class="st38" d="M488.1,99c0,2.9-1.3,12.1-7.5,17.5c1.2-3.1,1.2-5.6,1.2-6.2c-6.2,7.3-20.8,9.4-24.7,8.9
			C458.1,112.9,462.4,91.1,488.1,99z"/>
		<path class="st38" d="M486.6,97.6c0,2.8,2,13.9,8.5,18.7c-0.5-1-1.2-4.3-1.2-5.9c2.5,5.3,6.5,7.9,9.3,8.8
			C503.9,112,497.1,96.9,486.6,97.6z"/>
		<ellipse class="st41" cx="480.2" cy="133.3" rx="6.8" ry="6.2"/>
	</g>
</g>
<g>
	<rect x="257.6" y="92.7" class="st1" width="73.5" height="73.5"/>
	<g>
		<g>
			<path class="st41" d="M288.1,142.4c-12.4,4.4-14.5,7.7-16,5.8s6.3-10.2,10.7-12.6c2.1-1.2,4.8-1,6.3,0.9
				C290.6,138.4,290.4,141.5,288.1,142.4z"/>
			<path class="st41" d="M300.7,142.4c12.4,4.4,14.5,7.7,16,5.8s-6.3-10.2-10.7-12.6c-2.1-1.2-4.8-1-6.3,0.9
				C298.2,138.4,298.4,141.5,300.7,142.4z"/>
		</g>
		<g>
			<path class="st38" d="M294.5,132.2L294.5,132.2c-8.6,0-8.6,1.8-12.3,17.8c-1,4.4-0.3,10.4,3.9,14.8c1.6,1.7,1.8-5.9,8.4-5.9
				c0,0,0,0,0.1,0v-26.7H294.5z"/>
			<path class="st38" d="M294.2,132.2C294.3,132.2,294.3,132.2,294.2,132.2c8.6,0,8.6,1.8,12.3,17.8c1,4.4,0.3,10.4-3.9,14.8
				c-1.6,1.7-1.8-5.9-8.4-5.9c0,0,0,0-0.1,0L294.2,132.2L294.2,132.2z"/>
		</g>
		<g>
			<g>
				<g>
					<path class="st3" d="M286.3,134.4l-5.5,15.9c-0.2,0.5,0.1,1,0.7,1.1c0,0,9.5,1.6,12.9,1.6S304.2,132.8,286.3,134.4z"/>
				</g>
				<g>
					<path class="st3" d="M302.3,134.4l5.5,15.9c0.2,0.5-0.1,1-0.7,1.1c0,0-9.5,1.6-12.9,1.6C290.8,153,284.4,132.8,302.3,134.4z"/>
				</g>
			</g>
		</g>
		<ellipse class="st41" cx="294.3" cy="133.7" rx="5" ry="4.6"/>
		<polygon class="st3" points="285.6,133.4 279.6,136.9 283.8,142.5 287.4,134.9 		"/>
		<polygon class="st3" points="303.4,133.4 309.4,136.9 305.3,142.5 301.6,134.9 		"/>
		<g>
			<path class="st41" d="M294.5,99.1c-12.2,0-19.6,4.6-22.1,18.1c-2.1,10.6,5.7,19.5,22.1,19.5V99.1z"/>
			<path class="st41" d="M294.2,99.1c12.2,0,19.6,4.6,22.2,18.1c2,10.6-5.7,19.5-22.2,19.5C294.2,136.7,294.2,99.1,294.2,99.1z"/>
		</g>
		<g>
			<circle class="st38" cx="282.5" cy="119.6" r="2.6"/>
			<circle class="st38" cx="306.2" cy="119.6" r="2.6"/>
		</g>
		<path class="st35" d="M272.2,119.5c-2.4-5-1.6-12.2,0.2-18.2c0.6,0.7,1.7,3.5,2.5,4.5c1-4.2,3-8.7,4.6-11c0.5,3.2,1.1,6.2,1.1,6.2
			c2.5-3.7,5.2-5.8,8-7.2c-0.5,1.5-0.5,4.5-0.5,4.5c3-3,7.5-4,11.1-4.2c-1,0.8-2.4,3.5-2.9,5c4.1-2,8.9-3,13.4-3
			c-1,1.5-2.2,3.8-2.5,5.2c2.9-1.8,5.2-3.8,5.9-4.5c1,3.3,2.4,6.8,2.7,10.5c1-1.5,1.6-3.5,1.7-5c3.2,6.5,1.6,12.8-1.1,15.8
			c-1.3-3.2-4.2-6.5-5.3-7.7c-0.3,3.2-1.9,5.5-1.9,5.5c-0.3-3.2-5.2-8.2-6.2-8.7c-1,3.3-4,7-5.2,7.5c-1.3-4.7-4.5-7.8-5.6-8.3
			c0.8,2.5-1,6.5-1.1,7.3c-1.7-2.5-4.3-5.7-5.4-5.8c0.5,1.5,0.3,4.7,0.3,5.8c-4,1-8.1,0-9.4-1.2c-0.2,1.7-0.8,4.2,0,5.8
			c-1.3-1.3-2.3-3-2.7-5.3C273.5,115.2,273,117.2,272.2,119.5z"/>
		<g>
			<path class="st38" d="M288.7,127.9h-16.3c-2.2,0-4.1-1.8-4.1-4.1v-12.7c0-2.2,1.8-4.1,4.1-4.1h16.3c2.2,0,4.1,1.8,4.1,4.1v12.7
				C292.7,126,290.9,127.9,288.7,127.9z M272.4,109c-1.2,0-2.1,0.9-2.1,2.1v12.7c0,1.2,0.9,2.1,2.1,2.1h16.3c1.2,0,2.1-0.9,2.1-2.1
				v-12.7c0-1.2-0.9-2.1-2.1-2.1C288.7,109,272.4,109,272.4,109z"/>
			<path class="st38" d="M316.3,127.9h-16.2c-2.2,0-4.1-1.8-4.1-4.1v-12.7c0-2.2,1.8-4.1,4.1-4.1h16.3c2.2,0,4.1,1.8,4.1,4.1v12.7
				C320.4,126,318.6,127.9,316.3,127.9z M300.1,109c-1.2,0-2.1,0.9-2.1,2.1v12.7c0,1.2,0.9,2.1,2.1,2.1h16.3c1.2,0,2.1-0.9,2.1-2.1
				v-12.7c0-1.2-0.9-2.1-2.1-2.1C316.4,109,300.1,109,300.1,109z"/>
		</g>
		<rect x="291.4" y="116.9" class="st38" width="5.8" height="2"/>
	</g>
</g>
<g>
	<rect x="164.8" y="92.7" class="st1" width="73.5" height="73.5"/>
	<g>
		<g>
			<path class="st40" d="M194.7,142.4c-12.4,4.4-14.5,7.7-16,5.8c-1.5-1.9,6.3-10.2,10.7-12.6c2.1-1.2,4.8-1,6.3,0.9
				C197.2,138.4,197,141.5,194.7,142.4z"/>
			<path class="st40" d="M207.3,142.4c12.4,4.4,14.5,7.7,16,5.8s-6.3-10.3-10.7-12.7c-2.1-1.2-4.8-1-6.3,0.9
				C204.8,138.3,205,141.5,207.3,142.4z"/>
		</g>
		<g>
			<path class="st38" d="M201.1,132.2L201.1,132.2c-8.6,0-8.6,1.8-12.3,17.8c-1,4.4-0.3,10.4,3.9,14.8c1.6,1.7,1.8-5.9,8.4-5.9
				c0,0,0,0,0.1,0L201.1,132.2L201.1,132.2z"/>
			<path class="st38" d="M200.8,132.2C200.8,132.2,200.9,132.2,200.8,132.2c8.6,0,8.6,1.8,12.3,17.8c1,4.4,0.3,10.4-3.9,14.8
				c-1.6,1.7-1.8-5.9-8.4-5.9c0,0,0,0-0.1,0v-26.7H200.8z"/>
		</g>
		<g>
			<g>
				<g>
					<path class="st4" d="M192.9,134.4l-5.5,15.9c-0.2,0.5,0.1,1,0.7,1.1c0,0,9.5,1.6,12.9,1.6C204.4,153,210.8,132.8,192.9,134.4z"
						/>
				</g>
				<g>
					<path class="st4" d="M208.9,134.4l5.5,15.9c0.2,0.5-0.1,1-0.7,1.1c0,0-9.5,1.6-12.9,1.6C197.4,153,191,132.8,208.9,134.4z"/>
				</g>
			</g>
		</g>
		<ellipse class="st40" cx="200.9" cy="133.7" rx="5" ry="4.6"/>
		<polygon class="st4" points="192.2,133.4 186.2,136.9 190.3,142.5 194,134.9 		"/>
		<polygon class="st4" points="210,133.4 216,136.9 211.8,142.5 208.2,134.9 		"/>
		<g>
			<path class="st40" d="M201.1,99.1c-12.2,0-19.6,4.6-22.2,18.1c-2,10.6,5.7,19.5,22.2,19.5C201.1,136.7,201.1,99.1,201.1,99.1z"/>
			<path class="st40" d="M200.8,99.1c12.2,0,19.6,4.6,22.2,18.1c2,10.6-5.7,19.5-22.2,19.5V99.1z"/>
		</g>
		<g>
			<circle class="st38" cx="189.1" cy="119.6" r="2.6"/>
			<circle class="st38" cx="212.8" cy="119.6" r="2.6"/>
		</g>
		<path class="st2" d="M178.8,119.5c-2.4-5-1.6-12.2,0.2-18.2c0.6,0.7,1.7,3.5,2.5,4.5c1-4.2,3-8.7,4.6-11c0.5,3.2,1.1,6.2,1.1,6.2
			c2.5-3.7,5.2-5.8,8-7.2c-0.5,1.5-0.5,4.5-0.5,4.5c3-3,7.5-4,11.1-4.2c-1,0.8-2.4,3.5-2.9,5c4.1-2,8.9-3,13.4-3
			c-1,1.5-2.2,3.8-2.5,5.2c2.9-1.8,5.2-3.8,5.9-4.5c1,3.3,2.4,6.8,2.7,10.5c1-1.5,1.6-3.5,1.7-5c3.2,6.5,1.6,12.8-1.1,15.8
			c-1.3-3.2-4.2-6.5-5.3-7.7c-0.3,3.2-1.9,5.5-1.9,5.5c-0.3-3.2-5.2-8.2-6.2-8.7c-1,3.3-4,7-5.2,7.5c-1.3-4.7-4.5-7.8-5.6-8.3
			c0.8,2.5-1,6.5-1.1,7.3c-1.7-2.5-4.3-5.7-5.4-5.8c0.5,1.5,0.3,4.7,0.3,5.8c-4,1-8.1,0-9.4-1.2c-0.2,1.7-0.8,4.2,0,5.8
			c-1.3-1.3-2.3-3-2.7-5.3C180,115.2,179.6,117.2,178.8,119.5z"/>
	</g>
</g>
<g>
	<rect x="814.6" y="184.5" class="st1" width="73.5" height="73.5"/>
	<g>
		<g>
			<path class="st2" d="M884.2,221.3c0,18.2-12.7,33-33.2,33c-11.2,0-37.6-8.3-28.1-11.4c11-3.7,26.2-13.3,26.2-21.6
				c0-7.2-15.2-16.7-28.2-19.3c-10.7-2.2,17.7-13.7,30.1-13.7C871.5,188.3,884.2,203,884.2,221.3z"/>
			<g>
				<path class="st2" d="M839.3,205.3c-6.2,3.3-10.2,7.3-11.1,8.1c-0.9,0.8-2.4,2.2-0.4,3.3c2.1,1.1,11.6,3.6,19.5,7.3
					C852.7,226.4,846.9,201.3,839.3,205.3z"/>
				<path class="st2" d="M839.3,237.2c-6.2-3.3-10.2-7.3-11.1-8.1c-0.9-0.8-2.4-2.2-0.4-3.3c2.1-1.1,11.6-3.6,19.5-7.3
					C852.7,216.1,846.9,241.2,839.3,237.2z"/>
			</g>
		</g>
		<g>
			<path class="st3" d="M878.2,221.3c0,10.1-6.3,18.4-16.5,18.4c-5.6,0-18.6-4.6-14-6.4c5.5-2,13-7.4,13-12c0-4-7.5-9.3-14-10.8
				c-5.3-1.2,8.8-7.6,14.9-7.6C871.9,202.9,878.2,211.1,878.2,221.3z"/>
			<g>
				<path class="st3" d="M859.6,226.4c-2.7-1.7-6.9-4.3-7.3-4.7c-0.4-0.4-1-1-0.2-1.6c1.5-1,4.7-3.1,8.3-4.4
					C862.9,214.9,862.9,228.5,859.6,226.4z"/>
			</g>
		</g>
	</g>
</g>
<g>
	<rect x="721.8" y="184.5" class="st1" width="73.5" height="73.5"/>
	<g>
		<g>
			<path class="st5" d="M791.4,221.3c0,18.2-12.7,33-33.2,33c-11.2,0-37.6-8.3-28.1-11.4c11-3.7,26.2-13.3,26.2-21.6
				c0-7.2-15.2-16.7-28.2-19.3c-10.7-2.2,17.7-13.7,30.1-13.7C778.7,188.3,791.4,203,791.4,221.3z"/>
			<g>
				<path class="st5" d="M746.5,205.3c-6.2,3.3-10.2,7.3-11.1,8.1c-0.9,0.8-2.4,2.2-0.4,3.3c2.1,1.1,11.6,3.6,19.5,7.3
					C759.9,226.4,754.1,201.3,746.5,205.3z"/>
				<path class="st5" d="M746.5,237.2c-6.2-3.3-10.2-7.3-11.1-8.1c-0.9-0.8-2.4-2.2-0.4-3.3c2.1-1.1,11.6-3.6,19.5-7.3
					C759.9,216.1,754.1,241.2,746.5,237.2z"/>
			</g>
		</g>
		<g>
			<path class="st4" d="M785.4,221.3c0,10.1-6.3,18.4-16.5,18.4c-5.6,0-18.6-4.6-14-6.4c5.5-2,13-7.4,13-12c0-4-7.5-9.3-14-10.8
				c-5.3-1.2,8.8-7.6,14.9-7.6C779.1,202.9,785.4,211.1,785.4,221.3z"/>
			<g>
				<path class="st4" d="M766.8,226.4c-2.7-1.7-6.9-4.3-7.3-4.7c-0.4-0.4-1-1-0.2-1.6c1.5-1,4.7-3.1,8.3-4.4
					C770.1,214.9,770.1,228.5,766.8,226.4z"/>
			</g>
		</g>
	</g>
</g>
<g>
	<rect x="907.5" y="184.5" class="st1" width="73.5" height="73.5"/>
	<g>
		<g>
			<path class="st32" d="M977.1,221.2c0,18.2-12.7,33-33.2,33c-11.2,0-37.6-8.3-28.1-11.4c11-3.7,26.2-13.3,26.2-21.6
				c0-7.2-15.2-16.7-28.2-19.3c-10.7-2.2,17.7-13.7,30.1-13.7C964.4,188.3,977.1,203,977.1,221.2z"/>
			<g>
				<path class="st32" d="M932.2,205.3c-6.2,3.3-10.2,7.3-11.1,8.1c-0.9,0.8-2.4,2.2-0.4,3.3c2.1,1.1,11.6,3.6,19.5,7.3
					C945.6,226.4,939.8,201.3,932.2,205.3z"/>
				<path class="st32" d="M932.2,237.2c-6.2-3.3-10.2-7.3-11.1-8.1c-0.9-0.8-2.4-2.2-0.4-3.3c2.1-1.1,11.6-3.6,19.5-7.3
					C945.6,216.1,939.8,241.2,932.2,237.2z"/>
			</g>
		</g>
		<g>
			<path class="st2" d="M971.1,221.2c0,10.1-6.3,18.4-16.5,18.4c-5.6,0-18.6-4.6-14-6.4c5.5-2,13-7.4,13-12c0-4-7.5-9.3-14-10.8
				c-5.3-1.2,8.8-7.6,14.9-7.6C964.8,202.9,971.1,211.1,971.1,221.2z"/>
			<g>
				<path class="st2" d="M952.5,226.4c-2.7-1.7-6.9-4.3-7.3-4.7c-0.4-0.4-1-1-0.2-1.6c1.5-1,4.7-3.1,8.3-4.4
					C955.8,214.9,955.8,228.5,952.5,226.4z"/>
			</g>
		</g>
	</g>
</g>
<g>
	<rect x="1093.7" y="184.5" class="st1" width="73.5" height="73.5"/>
	<g>
		<path class="st2" d="M1112.4,203.5l-5-5c-0.6-0.6-0.6-1.6,0-2.2l5-5c0.6-0.6,1.6-0.6,2.2,0l5,5c0.6,0.6,0.6,1.6,0,2.2l-5,5
			C1114,204.2,1113,204.2,1112.4,203.5z"/>
		<path class="st3" d="M1134.1,249.3l-26.5-26.5c-0.7-0.7-0.7-1.9,0-2.7l26.5-26.5c0.7-0.7,1.9-0.7,2.7,0l26.5,26.5
			c0.7,0.7,0.7,1.9,0,2.7l-26.5,26.5C1136.1,250,1134.9,250,1134.1,249.3z"/>
		<path class="st3" d="M1101.1,250.2l-3.7-3.7c-0.7-0.7-0.7-1.9,0-2.6l3.7-3.7c0.7-0.7,1.9-0.7,2.6,0l3.7,3.7c0.7,0.7,0.7,1.9,0,2.6
			l-3.7,3.7C1103,250.9,1101.9,250.9,1101.1,250.2z"/>
		<path class="st2" d="M1121.4,251.2l-13-13c-0.6-0.6-0.6-1.6,0-2.2l13-13c0.6-0.6,1.6-0.6,2.2,0l13,13c0.6,0.6,0.6,1.6,0,2.2
			l-13,13C1123,251.8,1122,251.8,1121.4,251.2z"/>
	</g>
</g>
<g>
	<rect x="1000.8" y="184.5" class="st1" width="73.5" height="73.5"/>
	<g>
		<path class="st5" d="M1019.5,203.5l-5-5c-0.6-0.6-0.6-1.6,0-2.2l5-5c0.6-0.6,1.6-0.6,2.2,0l5,5c0.6,0.6,0.6,1.6,0,2.2l-5,5
			C1021.1,204.2,1020.1,204.2,1019.5,203.5z"/>
		<path class="st4" d="M1041.2,249.3l-26.5-26.5c-0.7-0.7-0.7-1.9,0-2.7l26.5-26.5c0.7-0.7,1.9-0.7,2.7,0l26.5,26.5
			c0.7,0.7,0.7,1.9,0,2.7l-26.5,26.5C1043.2,250,1042,250,1041.2,249.3z"/>
		<path class="st4" d="M1008.2,250.2l-3.7-3.7c-0.7-0.7-0.7-1.9,0-2.6l3.7-3.7c0.7-0.7,1.9-0.7,2.6,0l3.7,3.7c0.7,0.7,0.7,1.9,0,2.6
			l-3.7,3.7C1010.1,250.9,1009,250.9,1008.2,250.2z"/>
		<path class="st5" d="M1028.5,251.2l-13-13c-0.6-0.6-0.6-1.6,0-2.2l13-13c0.6-0.6,1.6-0.6,2.2,0l13,13c0.6,0.6,0.6,1.6,0,2.2
			l-13,13C1030.1,251.8,1029.1,251.8,1028.5,251.2z"/>
	</g>
</g>
<g>
	<rect x="1186.5" y="184.5" class="st1" width="73.5" height="73.5"/>
	<g>
		<path class="st32" d="M1205.2,203.5l-5-5c-0.6-0.6-0.6-1.6,0-2.2l5-5c0.6-0.6,1.6-0.6,2.2,0l5,5c0.6,0.6,0.6,1.6,0,2.2l-5,5
			C1206.8,204.2,1205.8,204.2,1205.2,203.5z"/>
		<path class="st2" d="M1227,249.3l-26.5-26.5c-0.7-0.7-0.7-1.9,0-2.7l26.5-26.5c0.7-0.7,1.9-0.7,2.7,0l26.5,26.5
			c0.7,0.7,0.7,1.9,0,2.7l-26.5,26.5C1228.9,250,1227.7,250,1227,249.3z"/>
		<path class="st2" d="M1194,250.2l-3.7-3.7c-0.7-0.7-0.7-1.9,0-2.6l3.7-3.7c0.7-0.7,1.9-0.7,2.6,0l3.7,3.7c0.7,0.7,0.7,1.9,0,2.6
			l-3.7,3.7C1195.8,250.9,1194.7,250.9,1194,250.2z"/>
		<path class="st32" d="M1214.3,251.2l-13-13c-0.6-0.6-0.6-1.6,0-2.2l13-13c0.6-0.6,1.6-0.6,2.2,0l13,13c0.6,0.6,0.6,1.6,0,2.2
			l-13,13C1215.8,251.8,1214.9,251.8,1214.3,251.2z"/>
	</g>
</g>
<g>
	<rect x="257.6" y="184.5" class="st1" width="73.5" height="73.5"/>
	<g>
		<path class="st11" d="M329.7,228.8c-2-24.5-15.5-41.5-34.7-42.3l0,0c-0.2,0-0.5,0-0.7,0c-0.2,0-0.5,0-0.7,0l0,0
			c-19.2,0.8-32.7,17.9-34.7,42.3c-1.2,14.9,8.9,26.8,34.7,27.3l0,0c0.2,0,0.5,0,0.7,0c0.2,0,0.5,0,0.7,0l0,0
			C320.8,255.7,331,243.7,329.7,228.8z"/>
		<path class="st43" d="M329.7,228.8c-2-24.5-15.5-41.5-34.7-42.3l0,0c-0.2,0-0.5,0-0.7,0c-0.2,0-0.5,0-0.7,0l0,0
			c-0.6,0-1.2,0.1-1.8,0.1c15.8,1.7,26.8,17.6,28.6,40.2c1.1,14.2-7.7,25.6-30.2,26l0,0c-0.2,0-0.4,0-0.6,0c-0.2,0-0.4,0-0.6,0l0,0
			c-20.7-0.4-29.8-10.1-30.2-22.7c-0.6,14.3,9.7,25.6,34.8,26l0,0c0.2,0,0.5,0,0.7,0c0.2,0,0.5,0,0.7,0l0,0
			C320.8,255.7,331,243.7,329.7,228.8z"/>
		<path class="st10" d="M283.6,205c-5.1,7.1-7.2,10.9-10.6,8.5s-4.5-5.2,0.6-12.4c5.1-7.1,12-10.9,15.4-8.5
			C292.4,195.1,288.8,197.9,283.6,205z"/>
	</g>
</g>
<g>
	<rect x="164.8" y="184.5" class="st1" width="73.5" height="73.5"/>
	<g>
		<g>
			<circle class="st33" cx="181" cy="239" r="14.5"/>
			<circle class="st33" cx="218.5" cy="211.4" r="18.1"/>
			<circle class="st33" cx="218.8" cy="235.9" r="17.8"/>
			<circle class="st33" cx="212.8" cy="197.7" r="11.4"/>
			<circle class="st33" cx="202.3" cy="241.7" r="14.5"/>
			<circle class="st33" cx="191.9" cy="212.1" r="24.6"/>
		</g>
		<path class="st9" d="M186.3,205.9c-4.5,6.3-6.4,9.6-9.7,7.2c-3.4-2.4-4.6-5.1-0.1-11.4s10.9-9.4,14.3-7
			C194.2,197.1,190.8,199.6,186.3,205.9z"/>
	</g>
</g>
<g>
	<rect x="350.5" y="184.5" class="st1" width="73.5" height="73.5"/>
	<g>
		<path class="st42" d="M421,254.2c0,0.6-0.5,1.3-1,1.3c-10.9,0-10.9-0.5-21.8-0.5c-10.9,0-10.9,0.4-21.8,0.4s-10.9-0.7-21.8-0.7
			c-0.5,0-1.5-0.1-1.5-0.6c0-10.4,1.2-10.4,1.2-20.9c0-10.4-0.8-10.4-0.8-20.9c0-10.4-0.1-10.4-0.1-20.9c0-0.6,0.1-1.7,0.6-2.1
			c0.9-0.8,1.1-0.6,2-1.4c0.4-0.4,1.4-0.5,1.9-0.5c14.8,0,14.8-0.1,29.5-0.1c14.7,0,14.8-0.4,29.5-0.4c0.5,0,0.7-0.3,1.2,0
			c0.7,0.5,1.3,1.6,2,2.1c0.5,0.3,1.5,1,1.5,1.5c0,10.6-1.1,10.6-1.1,21.2c0,10.6,0.7,10.6,0.7,21.2S421,243.7,421,254.2z"/>
		<polygon class="st43" points="418.1,240.2 418.6,246.8 421.1,254.8 420.2,255.8 393.9,255.1 378.2,255.4 353.7,255.2 352.9,253.4 
			356.5,240.2 371.9,230.1 		"/>
		<path class="st44" d="M393.9,201.4"/>
		<polygon class="st45" points="402.2,239.8 401.6,244.4 402.6,249.8 392.9,249.8 392.6,239.4 		"/>
		<polygon class="st43" points="357.4,187.3 353.6,189.4 353.2,217.8 353.9,226.8 353.6,244.8 352.9,253.4 356.2,253.8 371.6,218.4 
			361.2,190.8 		"/>
		<path class="st11" d="M418.2,239.3c0,1-0.8,1.8-1.8,1.8c-9.3-0.1-9.5-1.5-19.2-1.5c-9.9,0-9.9,0.3-19.8,0.3
			c-9.9,0-9.9,0.6-19.8,0.6c-0.7,0-1.2-0.5-1.2-1.2c0-8.3,0.7-8.3,0.7-16.5c0-8.3-0.5-8.3-0.5-16.5c0-8.3,0.7-10.3,0.6-18.7
			c10.1,0.2,10.1-0.1,20.1,0.1c9.9,0.2,10.2-0.6,20.1-0.6c4.6,0,10.2-0.2,19.3-0.2c1,0,1.4,2.5,1.4,3.5c0,8.4-0.8,8.3-0.8,16.5
			c0,8.1,1.2,8.1,1.2,16.2C418.5,231.1,418.2,231.1,418.2,239.3z"/>
		<polygon class="st46" points="392.6,239.4 392.6,230.1 393.6,220.1 402.9,219.8 401.9,228.8 402.2,239.8 		"/>
		<polygon class="st46" points="365.6,187.6 365.2,194.3 365.2,201.9 379.9,201.3 387.2,201.3 387.2,195.3 374.6,194.9 375.2,187.6 
					"/>
		<polygon class="st46" points="360.7,231.4 360.6,234.9 364.7,235.8 		"/>
		<polygon class="st46" points="380.6,217.6 379.4,219.9 383.1,219.9 		"/>
		<polygon class="st46" points="370.2,203.3 369.1,205.6 372.7,205.6 		"/>
		<polygon class="st45" points="373.9,241.6 372.7,243.9 376.4,243.9 		"/>
		<polygon class="st46" points="405.7,192.9 401.4,193.9 404.9,195.1 		"/>
		<polygon class="st46" points="378.7,203.9 374.4,204.9 377.9,206.1 		"/>
		<polygon class="st45" points="365.1,248.9 360.7,249.9 364.2,251.1 		"/>
		<polygon class="st46" points="410.9,197.3 410.2,198.6 414.7,199.9 		"/>
		<polygon class="st45" points="385.7,247.9 385.1,249.3 389.6,250.6 		"/>
		<polygon class="st46" points="409.7,219.4 407.9,221.8 410.4,221.8 		"/>
		<polygon class="st45" points="415.6,250.4 413.7,252.8 416.2,252.8 		"/>
	</g>
</g>
<g>
	<rect x="536.1" y="184.5" class="st1" width="73.5" height="73.5"/>
	<g>
		<polygon class="st42" points="557.5,244.6 557.3,253.3 550.3,253.1 550.3,255.4 561.3,255.9 562.3,247.3 		"/>
		<polygon class="st42" points="583.4,245.4 584,254 577,254.4 577.2,256.7 588.2,256.3 588.2,243.6 		"/>
		<path class="st43" d="M605.8,241.6c0,1-4.3,9-5.3,9c-9.3-0.1-6-6.7-15.7-6.7c-9.9,0-9.9,0.3-19.8,0.3c-9.9,0-9.9,0.6-19.8,0.6
			c-0.7,0-1.2-0.5-1.2-1.2c0-8.3,0.7-5.3,0.7-13.5c0-8.3-3.7-10.7-4.4-18.7c1.2-3,6.5-4.3,9-7.3c2.8,0,5.6-0.6,15.6-0.4
			c9.9,0.2,10.2-0.6,20.1-0.6c4.6,0,10.2,0.3,19.3,0.3c1,0,1,5,1,6c0,8.4-0.4-0.4-0.4,7.8c0,8.1,1.2,5.1,1.2,13.2
			C606.2,238.4,605.8,233.4,605.8,241.6z"/>
		<path class="st11" d="M601.5,248.9c0,1-0.8,1.8-1.8,1.8c-9.3-0.1-9.5-1.5-19.2-1.5c-9.9,0-9.9,0.3-19.8,0.3
			c-9.9,0-9.9,0.6-19.8,0.6c-0.7,0-1.2-0.5-1.2-1.2c0-8.3,0.7-4.3,0.7-12.5c0-8.3-0.5-2.3-0.5-10.5c0-8.3,0.7-6.3,0.6-14.7
			c10.1,0.2,10.1-0.1,20.1,0.1c9.9,0.2,10.2-0.6,20.1-0.6c4.6,0,10.2-0.2,19.3-0.2c1,0,1.4,2.5,1.4,3.5c0,8.4-0.8,4.3-0.8,12.5
			c0,8.1,1.2,2.1,1.2,10.2C601.8,244.8,601.5,240.7,601.5,248.9z"/>
		<path class="st43" d="M589.2,203.4c0,0.4-4.5,5.2-4.9,5.2c-4.2,0-2.7-3.1-7.1-3.1c-4.5,0-4.5,0.1-9,0.1s-4.5,0.3-9,0.3
			c-0.3,0-0.5-0.2-0.5-0.5c0-3.8,0.3-2.4,0.3-6.2s-1.7-4.9-2-8.5c0.5-1.4,5.5-3.1,6.6-4.5c1.3,0,2.5-0.3,7.1-0.2
			c4.5,0.1,4.6-0.3,9.2-0.3c2.1,0,4.6,0.1,8.8,0.2c0.5,0,0.5,2.3,0.5,2.7c0,3.8-0.2-0.2-0.2,3.6c0,3.7,0.5,2.3,0.5,6
			C589.3,202,589.2,199.7,589.2,203.4z"/>
		<path class="st11" d="M584.7,207.9c0,0.4-0.4,0.8-0.8,0.8c-4.2,0-4.3-0.7-8.7-0.7c-4.5,0-4.5,0.1-9,0.1s-4.5,0.3-9,0.3
			c-0.3,0-0.5-0.2-0.5-0.5c0-3.8,0.3-1.9,0.3-5.7s-0.2-1-0.2-4.8s0.3-2.9,0.3-6.7c4.6,0.1,4.6,0,9.1,0c4.5,0.1,4.6-0.3,9.2-0.3
			c2.1,0,4.6-0.1,8.8-0.1c0.5,0,0.6,1.2,0.6,1.6c0,3.8-0.4,1.9-0.4,5.7c0,3.7,0.5,1,0.5,4.6C584.8,206,584.7,204.2,584.7,207.9z"/>
		<polygon class="st42" points="564.2,200.9 561.3,200.8 561.2,196.7 564.1,196.5 		"/>
		<polygon class="st46" points="588,220.3 587.2,224.9 553.9,225 552.3,220.4 		"/>
		<polygon class="st46" points="588,231.4 587.2,236.1 553.9,236.2 552.3,231.6 		"/>
		<polygon class="st42" points="581,200.9 578.1,200.8 578,196.7 580.9,196.5 		"/>
		<polygon class="st42" points="547.2,207.4 547.2,200.3 544.2,199.8 544.2,191 546.3,190.9 546.2,197.1 551.3,197.3 552,190.7 
			554.2,190.7 554.2,199.4 550.5,200.3 550.5,207.3 		"/>
		<polygon class="st42" points="594.8,207.4 594.8,200.3 591.8,199.8 591.8,191 594,190.9 593.8,197.1 599,197.3 599.7,190.7 
			601.8,190.7 601.8,199.4 598.2,200.3 598.2,207.3 		"/>
		<polygon class="st46" points="566.2,215.1 561.8,216.1 565.3,217.3 		"/>
		<polygon class="st46" points="589.8,243.9 585.5,244.9 589,246.1 		"/>
		<polygon class="st46" points="548,215.6 546.8,217.9 550.5,217.9 		"/>
		<polygon class="st46" points="554.5,240.6 553.3,242.9 557,242.9 		"/>
		<polygon class="st46" points="600.7,220.9 596.3,221.9 599.8,223.1 		"/>
		<polygon class="st46" points="544.3,221.9 543.7,223.3 548.2,224.6 		"/>
	</g>
</g>
<g>
	<rect x="443.3" y="184.5" class="st1" width="73.5" height="73.5"/>
	<g>
		<g>
			<polygon class="st42" points="464.7,244.8 464.5,253.5 457.5,253.3 457.5,255.7 468.5,256.2 469.5,243.5 			"/>
			<polygon class="st42" points="490.6,245.6 491.2,254.2 484.2,254.6 484.4,257 495.4,256.6 495.4,243.9 			"/>
			<path class="st43" d="M513,237.8c0,1-4.3,13-5.3,13c-9.3-0.1-6-10.7-15.7-10.7c-9.9,0-9.9,0.3-19.8,0.3s-9.9,0.6-19.8,0.6
				c-0.7,0-1.2-0.5-1.2-1.2c0-8.3,0.7-8.3,0.7-16.5c0-8.3-3.7-17.7-4.4-25.7c1.2-3,6.5-4.3,9-7.3c2.8,0,5.6-0.6,15.6-0.4
				c9.9,0.2,10.2-0.6,20.1-0.6c4.6,0,10.2,0.3,19.3,0.3c1,0,1,5,1,6c0,8.4-0.4,3.6-0.4,11.8c0,8.1,1.2,8.1,1.2,16.2
				C513.4,231.7,513,229.6,513,237.8z"/>
			<path class="st11" d="M508.7,249.2c0,1-0.8,1.8-1.8,1.8c-9.3-0.1-9.5-1.5-19.2-1.5c-9.9,0-9.9,0.3-19.8,0.3s-9.9,0.6-19.8,0.6
				c-0.7,0-1.2-0.5-1.2-1.2c0-8.3,0.7-8.3,0.7-16.5c0-8.3-0.5-8.3-0.5-16.5c0-8.3,0.7-10.3,0.6-18.7c10.1,0.2,10.1-0.1,20.1,0.1
				c9.9,0.2,10.2-0.6,20.1-0.6c4.6,0,10.2-0.2,19.3-0.2c1,0,1.4,2.5,1.4,3.5c0,8.4-0.8,8.3-0.8,16.5c0,8.1,1.2,8.1,1.2,16.2
				C509,241,508.7,241,508.7,249.2z"/>
			<polygon class="st42" points="466.3,216.3 461.9,216.1 461.7,209.8 466.2,209.5 			"/>
			<polygon class="st42" points="492.3,216.3 487.9,216.1 487.7,209.8 492.2,209.5 			"/>
			<polygon class="st42" points="477.9,193.3 477.9,188.8 474.9,188.3 474.9,185.8 484.9,185.5 484.9,188 479.9,188.8 479.9,193.2 
							"/>
		</g>
		<polygon class="st46" points="453.5,214.3 449.2,215.3 452.7,216.5 		"/>
		<polygon class="st46" points="502.4,216.7 501.2,219 504.9,219 		"/>
		<polygon class="st46" points="469.9,228.3 468.7,230.7 472.4,230.7 		"/>
		<polygon class="st46" points="478,205.5 476.9,207.8 480.5,207.8 		"/>
		<polygon class="st47" points="490,192.2 488.9,194.5 492.5,194.5 		"/>
		<polygon class="st47" points="511.6,210.1 509,210.5 511.2,213.5 		"/>
		<polygon class="st46" points="473.9,240 469.5,241 473,242.2 		"/>
		<polygon class="st46" points="498.4,231.2 497.2,233.5 500.9,233.5 		"/>
		<polygon class="st46" points="500.5,203 496.2,204 499.7,205.2 		"/>
		<polygon class="st47" points="509.9,190.8 505.5,191.8 509,193 		"/>
		<polygon class="st47" points="512.4,236.9 509.5,237.5 511.8,238.3 		"/>
		<polygon class="st46" points="454.9,233.5 454.2,234.8 458.7,236.2 		"/>
		<polygon class="st46" points="450.9,198.5 450.2,199.8 454.7,201.2 		"/>
		<polygon class="st46" points="498.2,242.8 497.5,244.2 502,245.5 		"/>
		<polygon class="st47" points="469.9,191.5 469.2,192.8 473.7,194.2 		"/>
		<polygon class="st47" points="458.4,191.8 457.2,194.2 460.9,194.2 		"/>
	</g>
</g>
<g>
	<rect x="629" y="184.5" class="st1" width="73.5" height="73.5"/>
	<g>
		<circle class="st11" cx="645.9" cy="218.5" r="14.5"/>
		<circle class="st11" cx="684.2" cy="204.3" r="15"/>
		<circle class="st11" cx="687.1" cy="222.4" r="13"/>
		<circle class="st11" cx="655.1" cy="231.9" r="9.4"/>
		<circle class="st11" cx="673.4" cy="226.2" r="14.2"/>
		<circle class="st11" cx="671.1" cy="197.7" r="11.4"/>
		<circle class="st11" cx="671.1" cy="207.2" r="11.4"/>
		<circle class="st11" cx="652.3" cy="204.2" r="17.7"/>
		<g>
			<path class="st2" d="M658.1,220.1c0.2-0.5,0.9-0.9,1.5-0.9h24.1c0.5,0,0.7,0.4,0.4,0.8l-9.7,12c-0.3,0.4-0.2,1,0.2,1.3l8.7,4.9
				c0.5,0.3,0.5,0.7,0,1.1l-24,16.3c-0.5,0.3-0.7,0.1-0.5-0.4l4.2-11.4c0.2-0.5,0-1.2-0.5-1.4l-11.5-6.3c-0.5-0.3-0.7-0.9-0.4-1.4
				L658.1,220.1z"/>
		</g>
		<circle class="st11" cx="655.7" cy="213.8" r="14.6"/>
		<circle class="st11" cx="676.8" cy="217.2" r="10.2"/>
		<path class="st10" d="M647.7,198.5c-2.8,3.9-3.9,5.9-6.1,4.4c-2.2-1.6-3.1-3.3-0.3-7.2c2.8-3.9,6.8-5.7,9-4.1
			C652.6,193.2,650.5,194.7,647.7,198.5z"/>
		<g>
			<polygon class="st43" points="658,211.7 650.3,211.7 650.1,209.6 657.8,209.5 			"/>
			<polygon class="st43" points="683.5,211.7 676.3,211.7 676.1,209.6 683.3,209.5 			"/>
		</g>
	</g>
</g>
<g>
	<rect x="443.3" y="368.2" class="st1" width="73.5" height="73.5"/>
	<g>
		<polygon class="st48" points="464.7,428.3 464.5,437 457.5,436.8 457.5,439.1 468.5,439.6 469.5,431 		"/>
		<polygon class="st48" points="490.6,429.1 491.2,437.7 484.2,438.1 484.4,440.4 495.4,440 495.4,427.3 		"/>
		<path class="st25" d="M513,425.3c0,1-4.3,9-5.3,9c-9.3-0.1-6-6.7-15.7-6.7c-9.9,0-9.9,0.3-19.8,0.3s-9.9,0.6-19.8,0.6
			c-0.7,0-1.2-0.5-1.2-1.2c0-8.3,0.7-5.3,0.7-13.5c0-8.3-3.7-10.7-4.4-18.7c1.2-3,6.5-4.3,9-7.3c2.8,0,5.6-0.6,15.6-0.4
			c9.9,0.2,10.2-0.6,20.1-0.6c4.6,0,10.2,0.3,19.3,0.3c1,0,1,5,1,6c0,8.4-0.4-0.4-0.4,7.8c0,8.1,1.2,5.1,1.2,13.2
			C513.4,422.1,513,417.1,513,425.3z"/>
		<path class="st4" d="M508.7,432.6c0,1-0.8,1.8-1.8,1.8c-9.3-0.1-9.5-1.5-19.2-1.5c-9.9,0-9.9,0.3-19.8,0.3s-9.9,0.6-19.8,0.6
			c-0.7,0-1.2-0.5-1.2-1.2c0-8.3,0.7-4.3,0.7-12.5c0-8.3-0.5-2.3-0.5-10.5c0-8.3,0.7-6.3,0.6-14.7c10.1,0.2,10.1-0.1,20.1,0.1
			c9.9,0.2,10.2-0.6,20.1-0.6c4.6,0,10.2-0.2,19.3-0.2c1,0,1.4,2.5,1.4,3.5c0,8.4-0.8,4.3-0.8,12.5c0,8.1,1.2,2.1,1.2,10.2
			C509,428.5,508.7,424.4,508.7,432.6z"/>
		<path class="st25" d="M496.4,387.1c0,0.4-4.5,5.2-4.9,5.2c-4.2,0-2.7-3.1-7.1-3.1c-4.5,0-4.5,0.1-9,0.1s-4.5,0.3-9,0.3
			c-0.3,0-0.5-0.2-0.5-0.5c0-3.8,0.3-2.4,0.3-6.2c0-3.8-1.7-4.9-2-8.5c0.5-1.4,5.5-3.1,6.6-4.5c1.3,0,2.5-0.3,7.1-0.2
			c4.5,0.1,4.6-0.3,9.2-0.3c2.1,0,4.6,0.1,8.8,0.2c0.5,0,0.5,2.3,0.5,2.7c0,3.8-0.2-0.2-0.2,3.6c0,3.7,0.5,2.3,0.5,6
			C496.5,385.7,496.4,383.4,496.4,387.1z"/>
		<path class="st4" d="M491.9,391.6c0,0.4-0.4,0.8-0.8,0.8c-4.2,0-4.3-0.7-8.7-0.7c-4.5,0-4.5,0.1-9,0.1s-4.5,0.3-9,0.3
			c-0.3,0-0.5-0.2-0.5-0.5c0-3.8,0.3-1.9,0.3-5.7c0-3.8-0.2-1-0.2-4.8s0.3-2.9,0.3-6.7c4.6,0.1,4.6,0,9.1,0c4.5,0.1,4.6-0.3,9.2-0.3
			c2.1,0,4.6-0.1,8.8-0.1c0.5,0,0.6,1.2,0.6,1.6c0,3.8-0.4,1.9-0.4,5.7c0,3.7,0.5,1,0.5,4.6C492,389.7,491.9,387.9,491.9,391.6z"/>
		<polygon class="st48" points="471.4,384.6 468.5,384.5 468.4,380.4 471.3,380.2 		"/>
		<polygon class="st5" points="495.2,404 494.4,408.6 461.1,408.7 459.5,404.1 		"/>
		<polygon class="st5" points="495.2,415.1 494.4,419.8 461.1,419.9 459.5,415.3 		"/>
		<polygon class="st48" points="488.2,384.6 485.3,384.5 485.2,380.4 488.1,380.2 		"/>
		<polygon class="st48" points="454.4,391.1 454.4,384 451.4,383.5 451.4,374.7 453.5,374.6 453.4,380.8 458.5,381 459.2,374.4 
			461.4,374.4 461.4,383.1 457.7,384 457.7,391 		"/>
		<polygon class="st48" points="502,391.1 502,384 499,383.5 499,374.7 501.2,374.6 501,380.8 506.2,381 506.9,374.4 509,374.4 
			509,383.1 505.4,384 505.4,391 		"/>
		<polygon class="st5" points="473.4,398.8 469,399.8 472.5,401 		"/>
		<polygon class="st5" points="497,427.6 492.7,428.6 496.2,429.8 		"/>
		<polygon class="st5" points="455.2,399.3 454,401.6 457.7,401.6 		"/>
		<polygon class="st5" points="461.7,424.3 460.5,426.6 464.2,426.6 		"/>
		<polygon class="st5" points="507.9,404.6 503.5,405.6 507,406.8 		"/>
		<polygon class="st5" points="451.5,405.6 450.9,407 455.4,408.3 		"/>
	</g>
</g>
<g>
	<rect x="164.8" y="368.2" class="st1" width="73.5" height="73.5"/>
	<g>
		<g>
			<polygon class="st48" points="186.2,428.5 186,437.2 179,437 179,439.4 190,439.9 191,427.2 			"/>
			<polygon class="st48" points="212.1,429.3 212.7,437.9 205.7,438.3 205.9,440.7 216.9,440.3 216.9,427.6 			"/>
			<path class="st25" d="M234.5,421.5c0,1-4.3,13-5.3,13c-9.3-0.1-6-10.7-15.7-10.7c-9.9,0-9.9,0.3-19.8,0.3s-9.9,0.6-19.8,0.6
				c-0.7,0-1.2-0.5-1.2-1.2c0-8.3,0.7-8.3,0.7-16.5c0-8.3-3.7-17.7-4.4-25.7c1.2-3,6.5-4.3,9-7.3c2.8,0,5.6-0.6,15.6-0.4
				c9.9,0.2,10.2-0.6,20.1-0.6c4.6,0,10.2,0.3,19.3,0.3c1,0,1,5,1,6c0,8.4-0.4,3.6-0.4,11.8c0,8.1,1.2,8.1,1.2,16.2
				C234.9,415.4,234.5,413.3,234.5,421.5z"/>
			<path class="st4" d="M230.2,432.9c0,1-0.8,1.8-1.8,1.8c-9.3-0.1-9.5-1.5-19.2-1.5c-9.9,0-9.9,0.3-19.8,0.3s-9.9,0.6-19.8,0.6
				c-0.7,0-1.2-0.5-1.2-1.2c0-8.3,0.7-8.3,0.7-16.5c0-8.3-0.5-8.3-0.5-16.5c0-8.3,0.7-10.3,0.6-18.7c10.1,0.2,10.1-0.1,20.1,0.1
				c9.9,0.2,10.2-0.6,20.1-0.6c4.6,0,10.2-0.2,19.3-0.2c1,0,1.4,2.5,1.4,3.5c0,8.4-0.8,8.3-0.8,16.5c0,8.1,1.2,8.1,1.2,16.2
				C230.5,424.7,230.2,424.7,230.2,432.9z"/>
			<polygon class="st48" points="187.8,400 183.4,399.8 183.2,393.5 187.7,393.2 			"/>
			<polygon class="st48" points="213.8,400 209.4,399.8 209.2,393.5 213.7,393.2 			"/>
			<polygon class="st48" points="199.4,377 199.4,372.5 196.4,372 196.4,369.5 206.4,369.2 206.4,371.7 201.4,372.5 201.4,376.9 			
				"/>
		</g>
		<polygon class="st5" points="223.9,400.4 222.7,402.7 226.4,402.7 		"/>
		<polygon class="st5" points="191.4,412 190.2,414.4 193.9,414.4 		"/>
		<polygon class="st5" points="199.5,389.2 198.4,391.5 202,391.5 		"/>
		<polygon class="st4" points="211.5,375.9 210.4,378.2 214,378.2 		"/>
		<polygon class="st5" points="195.4,423.7 191,424.7 194.5,425.9 		"/>
		<polygon class="st5" points="219.9,414.9 218.7,417.2 222.4,417.2 		"/>
		<polygon class="st5" points="222,386.7 217.7,387.7 221.2,388.9 		"/>
		<polygon class="st4" points="231.4,374.5 227,375.5 230.5,376.7 		"/>
		<polygon class="st5" points="176.4,417.2 175.7,418.5 180.2,419.9 		"/>
		<polygon class="st5" points="172.4,382.2 171.7,383.5 176.2,384.9 		"/>
		<polygon class="st5" points="219.7,426.5 219,427.9 223.5,429.2 		"/>
		<polygon class="st4" points="191.4,375.2 190.7,376.5 195.2,377.9 		"/>
		<polygon class="st4" points="179.9,375.5 178.7,377.9 182.4,377.9 		"/>
	</g>
</g>
<g>
	<rect x="257.6" y="368.2" class="st1" width="73.5" height="73.5"/>
	<g>
		<g>
			<polygon class="st49" points="279,428.5 278.8,437.2 271.8,437 271.8,439.4 282.8,439.9 283.8,427.2 			"/>
			<polygon class="st49" points="304.9,429.3 305.5,437.9 298.5,438.3 298.7,440.7 309.7,440.3 309.7,427.6 			"/>
			<path class="st23" d="M327.3,421.5c0,1-4.3,13-5.3,13c-9.3-0.1-6-10.7-15.7-10.7c-9.9,0-9.9,0.3-19.8,0.3
				c-9.9,0-9.9,0.6-19.8,0.6c-0.7,0-1.2-0.5-1.2-1.2c0-8.3,0.7-8.3,0.7-16.5c0-8.3-3.7-17.7-4.4-25.7c1.2-3,6.5-4.3,9-7.3
				c2.8,0,5.6-0.6,15.6-0.4c9.9,0.2,10.2-0.6,20.1-0.6c4.6,0,10.2,0.3,19.3,0.3c1,0,1,5,1,6c0,8.4-0.4,3.6-0.4,11.8
				c0,8.1,1.2,8.1,1.2,16.2C327.7,415.4,327.3,413.3,327.3,421.5z"/>
			<path class="st3" d="M323,432.9c0,1-0.8,1.8-1.8,1.8c-9.3-0.1-9.5-1.5-19.2-1.5c-9.9,0-9.9,0.3-19.8,0.3c-9.9,0-9.9,0.6-19.8,0.6
				c-0.7,0-1.2-0.5-1.2-1.2c0-8.3,0.7-8.3,0.7-16.5c0-8.3-0.5-8.3-0.5-16.5c0-8.3,0.7-10.3,0.6-18.7c10.1,0.2,10.1-0.1,20.1,0.1
				c9.9,0.2,10.2-0.6,20.1-0.6c4.6,0,10.2-0.2,19.3-0.2c1,0,1.4,2.5,1.4,3.5c0,8.4-0.8,8.3-0.8,16.5c0,8.1,1.2,8.1,1.2,16.2
				C323.3,424.7,323,424.7,323,432.9z"/>
			<polygon class="st49" points="280.6,400 276.2,399.8 276,393.5 280.5,393.2 			"/>
			<polygon class="st49" points="306.6,400 302.2,399.8 302,393.5 306.5,393.2 			"/>
			<polygon class="st49" points="292.2,377 292.2,372.5 289.2,372 289.2,369.5 299.2,369.2 299.2,371.7 294.2,372.5 294.2,376.9 			
				"/>
		</g>
		<g>
			<polygon class="st22" points="316.7,400.4 315.5,402.7 319.2,402.7 			"/>
			<polygon class="st22" points="284.2,412 283,414.4 286.7,414.4 			"/>
			<polygon class="st22" points="292.3,389.2 291.2,391.5 294.8,391.5 			"/>
			<polygon class="st22" points="288.2,423.7 283.8,424.7 287.3,425.9 			"/>
			<polygon class="st22" points="312.7,414.9 311.5,417.2 315.2,417.2 			"/>
			<polygon class="st22" points="314.8,386.7 310.5,387.7 314,388.9 			"/>
			<polygon class="st22" points="269.2,417.2 268.5,418.5 273,419.9 			"/>
			<polygon class="st22" points="265.2,382.2 264.5,383.5 269,384.9 			"/>
			<polygon class="st22" points="312.5,426.5 311.8,427.9 316.3,429.2 			"/>
		</g>
		<g>
			<polygon class="st3" points="304.3,375.9 303.2,378.2 306.8,378.2 			"/>
			<polygon class="st3" points="325.9,393.8 323.3,394.2 325.5,397.2 			"/>
			<polygon class="st3" points="324.2,374.5 319.8,375.5 323.3,376.7 			"/>
			<polygon class="st3" points="326.7,420.6 323.8,421.2 326.1,422 			"/>
			<polygon class="st3" points="284.2,375.2 283.5,376.5 288,377.9 			"/>
			<polygon class="st3" points="272.7,375.5 271.5,377.9 275.2,377.9 			"/>
		</g>
	</g>
</g>
<g>
	<rect x="350.5" y="368.2" class="st1" width="73.5" height="73.5"/>
	<g>
		<polygon class="st27" points="371.9,428.3 371.7,437 364.7,436.8 364.7,439.1 375.7,439.6 376.7,431 		"/>
		<polygon class="st27" points="397.8,429.1 398.4,437.7 391.4,438.1 391.6,440.4 402.6,440 402.6,427.3 		"/>
		<path class="st26" d="M420.2,425.3c0,1-4.3,9-5.3,9c-9.3-0.1-6-6.7-15.7-6.7c-9.9,0-9.9,0.3-19.8,0.3s-9.9,0.6-19.8,0.6
			c-0.7,0-1.2-0.5-1.2-1.2c0-8.3,0.7-5.3,0.7-13.5c0-8.3-3.7-10.7-4.4-18.7c1.2-3,6.5-4.3,9-7.3c2.8,0,5.6-0.6,15.6-0.4
			c9.9,0.2,10.2-0.6,20.1-0.6c4.6,0,10.2,0.3,19.3,0.3c1,0,1,5,1,6c0,8.4-0.4-0.4-0.4,7.8c0,8.1,1.2,5.1,1.2,13.2
			C420.6,422.1,420.2,417.1,420.2,425.3z"/>
		<path class="st2" d="M415.9,432.6c0,1-0.8,1.8-1.8,1.8c-9.3-0.1-9.5-1.5-19.2-1.5c-9.9,0-9.9,0.3-19.8,0.3s-9.9,0.6-19.8,0.6
			c-0.7,0-1.2-0.5-1.2-1.2c0-8.3,0.7-4.3,0.7-12.5c0-8.3-0.5-2.3-0.5-10.5c0-8.3,0.7-6.3,0.6-14.7c10.1,0.2,10.1-0.1,20.1,0.1
			c9.9,0.2,10.2-0.6,20.1-0.6c4.6,0,10.2-0.2,19.3-0.2c1,0,1.4,2.5,1.4,3.5c0,8.4-0.8,4.3-0.8,12.5c0,8.1,1.2,2.1,1.2,10.2
			C416.2,428.5,415.9,424.4,415.9,432.6z"/>
		<path class="st26" d="M403.6,387.1c0,0.4-4.5,5.2-4.9,5.2c-4.2,0-2.7-3.1-7.1-3.1c-4.5,0-4.5,0.1-9,0.1s-4.5,0.3-9,0.3
			c-0.3,0-0.5-0.2-0.5-0.5c0-3.8,0.3-2.4,0.3-6.2s-1.7-4.9-2-8.5c0.5-1.4,5.5-3.1,6.6-4.5c1.3,0,2.5-0.3,7.1-0.2
			c4.5,0.1,4.6-0.3,9.2-0.3c2.1,0,4.6,0.1,8.8,0.2c0.5,0,0.5,2.3,0.5,2.7c0,3.8-0.2-0.2-0.2,3.6c0,3.7,0.5,2.3,0.5,6
			C403.7,385.7,403.6,383.4,403.6,387.1z"/>
		<path class="st2" d="M399.1,391.6c0,0.4-0.4,0.8-0.8,0.8c-4.2,0-4.3-0.7-8.7-0.7c-4.5,0-4.5,0.1-9,0.1s-4.5,0.3-9,0.3
			c-0.3,0-0.5-0.2-0.5-0.5c0-3.8,0.3-1.9,0.3-5.7s-0.2-1-0.2-4.8s0.3-2.9,0.3-6.7c4.6,0.1,4.6,0,9.1,0c4.5,0.1,4.6-0.3,9.2-0.3
			c2.1,0,4.6-0.1,8.8-0.1c0.5,0,0.6,1.2,0.6,1.6c0,3.8-0.4,1.9-0.4,5.7c0,3.7,0.5,1,0.5,4.6C399.2,389.7,399.1,387.9,399.1,391.6z"
			/>
		<polygon class="st27" points="378.6,384.6 375.7,384.5 375.6,380.4 378.5,380.2 		"/>
		<polygon class="st28" points="402.4,404 401.6,408.6 368.3,408.7 366.7,404.1 		"/>
		<polygon class="st28" points="402.4,415.1 401.6,419.8 368.3,419.9 366.7,415.3 		"/>
		<polygon class="st27" points="395.4,384.6 392.5,384.5 392.4,380.4 395.3,380.2 		"/>
		<polygon class="st27" points="361.6,391.1 361.6,384 358.6,383.5 358.6,374.7 360.7,374.6 360.6,380.8 365.7,381 366.4,374.4 
			368.6,374.4 368.6,383.1 364.9,384 364.9,391 		"/>
		<polygon class="st27" points="409.2,391.1 409.2,384 406.2,383.5 406.2,374.7 408.4,374.6 408.2,380.8 413.4,381 414.1,374.4 
			416.2,374.4 416.2,383.1 412.6,384 412.6,391 		"/>
		<polygon class="st28" points="380.6,398.8 376.2,399.8 379.7,401 		"/>
		<polygon class="st28" points="404.2,427.6 399.9,428.6 403.4,429.8 		"/>
		<polygon class="st28" points="362.4,399.3 361.2,401.6 364.9,401.6 		"/>
		<polygon class="st28" points="368.9,424.3 367.7,426.6 371.4,426.6 		"/>
		<polygon class="st28" points="415.1,404.6 410.7,405.6 414.2,406.8 		"/>
		<polygon class="st28" points="358.7,405.6 358.1,407 362.6,408.3 		"/>
	</g>
</g>
<g>
	<rect x="629" y="368.2" class="st1" width="73.5" height="73.5"/>
	<g>
		<g>
			<polygon class="st27" points="650.4,428.5 650.2,437.2 643.2,437 643.2,439.4 654.2,439.9 655.2,427.2 			"/>
			<polygon class="st27" points="676.3,429.3 676.9,437.9 669.9,438.3 670.1,440.7 681.1,440.3 681.1,427.6 			"/>
			<path class="st26" d="M698.7,421.5c0,1-4.3,13-5.3,13c-9.3-0.1-6-10.7-15.7-10.7c-9.9,0-9.9,0.3-19.8,0.3
				c-9.9,0-9.9,0.6-19.8,0.6c-0.7,0-1.2-0.5-1.2-1.2c0-8.3,0.7-8.3,0.7-16.5c0-8.3-3.7-17.7-4.4-25.7c1.2-3,6.5-4.3,9-7.3
				c2.8,0,5.6-0.6,15.6-0.4c9.9,0.2,10.2-0.6,20.1-0.6c4.6,0,10.2,0.3,19.3,0.3c1,0,1,5,1,6c0,8.4-0.4,3.6-0.4,11.8
				c0,8.1,1.2,8.1,1.2,16.2C699.1,415.4,698.7,413.3,698.7,421.5z"/>
			<path class="st2" d="M694.4,432.9c0,1-0.8,1.8-1.8,1.8c-9.3-0.1-9.5-1.5-19.2-1.5c-9.9,0-9.9,0.3-19.8,0.3s-9.9,0.6-19.8,0.6
				c-0.7,0-1.2-0.5-1.2-1.2c0-8.3,0.7-8.3,0.7-16.5c0-8.3-0.5-8.3-0.5-16.5c0-8.3,0.7-10.3,0.6-18.7c10.1,0.2,10.1-0.1,20.1,0.1
				c9.9,0.2,10.2-0.6,20.1-0.6c4.6,0,10.2-0.2,19.3-0.2c1,0,1.4,2.5,1.4,3.5c0,8.4-0.8,8.3-0.8,16.5c0,8.1,1.2,8.1,1.2,16.2
				C694.7,424.7,694.4,424.7,694.4,432.9z"/>
			<polygon class="st27" points="652,400 647.6,399.8 647.4,393.5 651.9,393.2 			"/>
			<polygon class="st27" points="678,400 673.6,399.8 673.4,393.5 677.9,393.2 			"/>
			<polygon class="st27" points="663.6,377 663.6,372.5 660.6,372 660.6,369.5 670.6,369.2 670.6,371.7 665.6,372.5 665.6,376.9 			
				"/>
		</g>
		<g>
			<polygon class="st28" points="688.1,400.4 686.9,402.7 690.6,402.7 			"/>
			<polygon class="st28" points="655.6,412 654.4,414.4 658.1,414.4 			"/>
			<polygon class="st28" points="663.7,389.2 662.6,391.5 666.2,391.5 			"/>
			<polygon class="st28" points="659.6,423.7 655.2,424.7 658.7,425.9 			"/>
			<polygon class="st28" points="684.1,414.9 682.9,417.2 686.6,417.2 			"/>
			<polygon class="st28" points="686.2,386.7 681.9,387.7 685.4,388.9 			"/>
			<polygon class="st28" points="640.6,417.2 639.9,418.5 644.4,419.9 			"/>
			<polygon class="st28" points="636.6,382.2 635.9,383.5 640.4,384.9 			"/>
			<polygon class="st28" points="683.9,426.5 683.2,427.9 687.7,429.2 			"/>
		</g>
		<g>
			<polygon class="st2" points="675.7,375.9 674.6,378.2 678.2,378.2 			"/>
			<polygon class="st2" points="697.3,393.8 694.7,394.2 696.9,397.2 			"/>
			<polygon class="st2" points="695.6,374.5 691.2,375.5 694.7,376.7 			"/>
			<polygon class="st2" points="698.1,420.6 695.2,421.2 697.5,422 			"/>
			<polygon class="st2" points="655.6,375.2 654.9,376.5 659.4,377.9 			"/>
			<polygon class="st2" points="644.1,375.5 642.9,377.9 646.6,377.9 			"/>
		</g>
	</g>
</g>
<g>
	<rect x="536.1" y="368.2" class="st1" width="73.5" height="73.5"/>
	<g>
		<polygon class="st49" points="557.5,428.3 557.3,437 550.3,436.8 550.3,439.1 561.3,439.6 562.3,431 		"/>
		<polygon class="st49" points="583.4,429.1 584,437.7 577,438.1 577.2,440.4 588.2,440 588.2,427.3 		"/>
		<path class="st23" d="M605.8,425.3c0,1-4.3,9-5.3,9c-9.3-0.1-6-6.7-15.7-6.7c-9.9,0-9.9,0.3-19.8,0.3c-9.9,0-9.9,0.6-19.8,0.6
			c-0.7,0-1.2-0.5-1.2-1.2c0-8.3,0.7-5.3,0.7-13.5c0-8.3-3.7-10.7-4.4-18.7c1.2-3,6.5-4.3,9-7.3c2.8,0,5.6-0.6,15.6-0.4
			c9.9,0.2,10.2-0.6,20.1-0.6c4.6,0,10.2,0.3,19.3,0.3c1,0,1,5,1,6c0,8.4-0.4-0.4-0.4,7.8c0,8.1,1.2,5.1,1.2,13.2
			C606.2,422.1,605.8,417.1,605.8,425.3z"/>
		<path class="st3" d="M601.5,432.6c0,1-0.8,1.8-1.8,1.8c-9.3-0.1-9.5-1.5-19.2-1.5c-9.9,0-9.9,0.3-19.8,0.3
			c-9.9,0-9.9,0.6-19.8,0.6c-0.7,0-1.2-0.5-1.2-1.2c0-8.3,0.7-4.3,0.7-12.5c0-8.3-0.5-2.3-0.5-10.5c0-8.3,0.7-6.3,0.6-14.7
			c10.1,0.2,10.1-0.1,20.1,0.1c9.9,0.2,10.2-0.6,20.1-0.6c4.6,0,10.2-0.2,19.3-0.2c1,0,1.4,2.5,1.4,3.5c0,8.4-0.8,4.3-0.8,12.5
			c0,8.1,1.2,2.1,1.2,10.2C601.8,428.5,601.5,424.4,601.5,432.6z"/>
		<path class="st23" d="M589.2,387.1c0,0.4-4.5,5.2-4.9,5.2c-4.2,0-2.7-3.1-7.1-3.1c-4.5,0-4.5,0.1-9,0.1s-4.5,0.3-9,0.3
			c-0.3,0-0.5-0.2-0.5-0.5c0-3.8,0.3-2.4,0.3-6.2c0-3.8-1.7-4.9-2-8.5c0.5-1.4,5.5-3.1,6.6-4.5c1.3,0,2.5-0.3,7.1-0.2
			c4.5,0.1,4.6-0.3,9.2-0.3c2.1,0,4.6,0.1,8.8,0.2c0.5,0,0.5,2.3,0.5,2.7c0,3.8-0.2-0.2-0.2,3.6c0,3.7,0.5,2.3,0.5,6
			C589.3,385.7,589.2,383.4,589.2,387.1z"/>
		<path class="st3" d="M584.7,391.6c0,0.4-0.4,0.8-0.8,0.8c-4.2,0-4.3-0.7-8.7-0.7c-4.5,0-4.5,0.1-9,0.1s-4.5,0.3-9,0.3
			c-0.3,0-0.5-0.2-0.5-0.5c0-3.8,0.3-1.9,0.3-5.7c0-3.8-0.2-1-0.2-4.8s0.3-2.9,0.3-6.7c4.6,0.1,4.6,0,9.1,0c4.5,0.1,4.6-0.3,9.2-0.3
			c2.1,0,4.6-0.1,8.8-0.1c0.5,0,0.6,1.2,0.6,1.6c0,3.8-0.4,1.9-0.4,5.7c0,3.7,0.5,1,0.5,4.6C584.8,389.7,584.7,387.9,584.7,391.6z"
			/>
		<polygon class="st49" points="564.2,384.6 561.3,384.5 561.2,380.4 564.1,380.2 		"/>
		<polygon class="st22" points="588,404 587.2,408.6 553.9,408.7 552.3,404.1 		"/>
		<polygon class="st22" points="588,415.1 587.2,419.8 553.9,419.9 552.3,415.3 		"/>
		<polygon class="st49" points="581,384.6 578.1,384.5 578,380.4 580.9,380.2 		"/>
		<polygon class="st49" points="547.2,391.1 547.2,384 544.2,383.5 544.2,374.7 546.3,374.6 546.2,380.8 551.3,381 552,374.4 
			554.2,374.4 554.2,383.1 550.5,384 550.5,391 		"/>
		<polygon class="st49" points="594.8,391.1 594.8,384 591.8,383.5 591.8,374.7 594,374.6 593.8,380.8 599,381 599.7,374.4 
			601.8,374.4 601.8,383.1 598.2,384 598.2,391 		"/>
		<polygon class="st22" points="566.2,398.8 561.8,399.8 565.3,401 		"/>
		<polygon class="st22" points="589.8,427.6 585.5,428.6 589,429.8 		"/>
		<polygon class="st22" points="548,399.3 546.8,401.6 550.5,401.6 		"/>
		<polygon class="st22" points="554.5,424.3 553.3,426.6 557,426.6 		"/>
		<polygon class="st22" points="600.7,404.6 596.3,405.6 599.8,406.8 		"/>
		<polygon class="st22" points="544.3,405.6 543.7,407 548.2,408.3 		"/>
	</g>
</g>
<g>
	<rect x="721.8" y="368.2" class="st1" width="73.5" height="73.5"/>
	<g>
		<polygon class="st25" points="737.2,373.2 790.8,397.7 737.2,422.2 		"/>
		<polygon class="st4" points="737.2,373.2 788.6,396.7 737.2,420.2 		"/>
		<path class="st42" d="M736.9,437.3c-0.8,0-1.5-0.7-1.5-1.5v-62.6c0-0.8,0.7-1.5,1.5-1.5s1.5,0.7,1.5,1.5v62.6
			C738.4,436.6,737.7,437.3,736.9,437.3z"/>
		<path class="st42" d="M748.4,438.3H727c-0.8,0-1.5-0.7-1.5-1.5s0.7-1.5,1.5-1.5h21.4c0.8,0,1.5,0.7,1.5,1.5
			S749.2,438.3,748.4,438.3z"/>
		<path class="st11" d="M748.8,436.3h-22.5c-0.3,0-0.5-0.2-0.5-0.5s0.2-0.5,0.5-0.5h22.5c0.3,0,0.5,0.2,0.5,0.5
			S749.1,436.3,748.8,436.3z"/>
	</g>
</g>
<g>
	<rect x="814.6" y="368.2" class="st1" width="73.5" height="73.5"/>
	<g>
		<polygon class="st23" points="830.1,373.2 883.7,397.7 830.1,422.2 		"/>
		<polygon class="st29" points="830.1,373.2 881.5,396.7 830.1,420.2 		"/>
		<path class="st42" d="M829.5,437.3c-0.8,0-1.5-0.7-1.5-1.5v-62.6c0-0.8,0.7-1.5,1.5-1.5c0.8,0,1.5,0.7,1.5,1.5v62.6
			C831,436.6,830.4,437.3,829.5,437.3z"/>
		<path class="st42" d="M841,438.3h-21.4c-0.8,0-1.5-0.7-1.5-1.5s0.7-1.5,1.5-1.5H841c0.8,0,1.5,0.7,1.5,1.5S841.8,438.3,841,438.3z
			"/>
		<path class="st11" d="M841.5,436.3H819c-0.3,0-0.5-0.2-0.5-0.5s0.2-0.5,0.5-0.5h22.5c0.3,0,0.5,0.2,0.5,0.5
			S841.8,436.3,841.5,436.3z"/>
	</g>
</g>
<g>
	<rect x="907.5" y="368.2" class="st1" width="73.5" height="73.5"/>
	<g>
		<polygon class="st26" points="923,373.2 976.6,397.7 923,422.2 		"/>
		<polygon class="st2" points="923,373.2 974.4,396.7 923,420.2 		"/>
		<path class="st42" d="M922.4,437.3c-0.8,0-1.5-0.7-1.5-1.5v-62.6c0-0.8,0.7-1.5,1.5-1.5c0.8,0,1.5,0.7,1.5,1.5v62.6
			C923.9,436.6,923.3,437.3,922.4,437.3z"/>
		<path class="st42" d="M933.9,438.3h-21.4c-0.8,0-1.5-0.7-1.5-1.5s0.7-1.5,1.5-1.5h21.4c0.8,0,1.5,0.7,1.5,1.5
			S934.7,438.3,933.9,438.3z"/>
		<path class="st11" d="M934.4,436.3h-22.5c-0.3,0-0.5-0.2-0.5-0.5s0.2-0.5,0.5-0.5h22.5c0.3,0,0.5,0.2,0.5,0.5
			S934.7,436.3,934.4,436.3z"/>
	</g>
</g>
<g>
	<g>
		<rect x="1000.8" y="368.2" class="st1" width="73.5" height="73.5"/>
		<g>
			<g>
				<circle class="st29" cx="1037.5" cy="405" r="29.5"/>
				<path class="st38" d="M1037.5,435.2c-16.6,0-30.2-13.6-30.2-30.2s13.6-30.3,30.3-30.3c16.7,0,30.3,13.6,30.3,30.3
					C1067.9,421.7,1054.2,435.2,1037.5,435.2z M1037.5,376.2c-15.9,0-28.8,12.9-28.8,28.8s12.9,28.8,28.8,28.8
					c15.9,0,28.8-13,28.8-28.8C1066.3,389.2,1053.4,376.2,1037.5,376.2z"/>
			</g>
			<g>
				<path class="st38" d="M1036.4,399l-3.3,0.8l-0.9-3.4l5.4-1.6h2.8v19h-4.1L1036.4,399L1036.4,399z"/>
			</g>
		</g>
	</g>
	<g>
		<rect x="1093.7" y="368.2" class="st1" width="73.5" height="73.5"/>
		<g>
			<g>
				<circle class="st4" cx="1130.5" cy="405" r="29.5"/>
				<path class="st38" d="M1130.5,435.2c-16.7,0-30.3-13.6-30.3-30.3c0-16.7,13.6-30.3,30.3-30.3c16.7,0,30.3,13.6,30.3,30.3
					C1160.8,421.6,1147.2,435.2,1130.5,435.2z M1130.5,376.2c-15.9,0-28.8,12.9-28.8,28.8s12.9,28.8,28.8,28.8s28.8-12.9,28.8-28.8
					S1146.3,376.2,1130.5,376.2z"/>
			</g>
			<g>
				<path class="st38" d="M1123.4,410.5l6.3-5.1c2.3-1.9,3.3-3,3.3-4.5c0-1.6-1.1-2.5-2.5-2.5c-1.5,0-2.5,0.8-3.9,2.5l-2.9-2.3
					c1.9-2.5,3.7-3.9,7-3.9c3.9,0,6.5,2.3,6.5,5.8v0.1c0,3.2-1.6,4.7-5,7.3l-3.1,2.4h8.2v3.6h-14v-3.4H1123.4z"/>
			</g>
		</g>
	</g>
	<g>
		<rect x="1186.5" y="368.2" class="st1" width="73.5" height="73.5"/>
		<g>
			<g>
				<circle class="st2" cx="1223.2" cy="405" r="29.5"/>
				<path class="st38" d="M1223.2,435.2c-16.7,0-30.3-13.6-30.3-30.3c0-16.7,13.6-30.3,30.3-30.3c16.7,0,30.3,13.6,30.3,30.3
					C1253.5,421.6,1239.9,435.2,1223.2,435.2z M1223.2,376.2c-15.9,0-28.8,12.9-28.8,28.8s12.9,28.8,28.8,28.8
					c15.9,0,28.8-12.9,28.8-28.8S1239.1,376.2,1223.2,376.2z"/>
			</g>
			<g>
				<g>
					<path class="st38" d="M1214.1,394.7l9.1,9.4l9.1-9.4l1.9,1.9l-9.2,9.4l9.2,9.4l-1.9,1.9l-9.1-9.4l-9.1,9.4l-1.9-1.9l9.1-9.4
						l-9.1-9.4L1214.1,394.7z"/>
					<path class="st38" d="M1214.1,417.6l-2.4-2.4l9.1-9.4l-9.1-9.4l2.4-2.4l9.1,9.3l9.1-9.3l2.4,2.4l-9.2,9.4l9.2,9.4l-2.4,2.4
						l-9.1-9.3L1214.1,417.6z M1223.2,407.2l9.1,9.4l1.3-1.3l-9.2-9.3l9.2-9.3l-1.3-1.5l-9.1,9.4l-9.1-9.4l-1.3,1.3l9.1,9.3
						l-9.1,9.3l1.3,1.3L1223.2,407.2z"/>
				</g>
			</g>
		</g>
	</g>
</g>
<g>
	<g>
		<rect x="257.6" y="559.2" class="st1" width="73.5" height="73.5"/>
		<g>
			<circle class="st3" cx="294.4" cy="595.9" r="29.5"/>
			<g>
				<path class="st9" d="M293.2,590l-3.3,0.8l-0.9-3.4l5.4-1.6h2.8v19h-4.1V590H293.2z"/>
			</g>
		</g>
	</g>
	<g>
		<rect x="350.5" y="559.2" class="st1" width="73.5" height="73.5"/>
		<g>
			<circle class="st4" cx="387.3" cy="595.9" r="29.5"/>
			<g>
				<path class="st9" d="M380.2,601.5l6.3-5.1c2.3-1.9,3.3-3,3.3-4.5c0-1.6-1.1-2.5-2.5-2.5c-1.5,0-2.5,0.8-3.9,2.5l-2.9-2.3
					c1.9-2.5,3.7-3.9,7-3.9c3.9,0,6.5,2.3,6.5,5.8v0.1c0,3.2-1.6,4.7-5,7.3l-3.1,2.4h8.2v3.6h-14v-3.4H380.2z"/>
			</g>
		</g>
	</g>
	<g>
		<rect x="907.5" y="559.2" class="st1" width="73.5" height="73.5"/>
		<g>
			
				<rect x="921.2" y="573" transform="matrix(0.7071 -0.7071 0.7071 0.7071 -144.8772 842.2485)" class="st2" width="46" height="46"/>
			<g>
				<path class="st9" d="M936.8,595.5L936.8,595.5c0-4.4,3.4-7.9,8-7.9c2.7,0,4.4,0.7,6,2.1l-2.1,2.5c-1.2-1-2.2-1.5-4-1.5
					c-2.4,0-4.4,2.2-4.4,4.7l0,0c0,2.8,1.9,4.8,4.6,4.8c1.2,0,2.3-0.3,3.2-0.9v-2.2h-3.5v-2.9h6.6v6.6c-1.6,1.3-3.7,2.4-6.5,2.4
					C940,603.4,936.8,600,936.8,595.5z"/>
			</g>
		</g>
	</g>
	<g>
		<rect x="629" y="559.2" class="st1" width="73.5" height="73.5"/>
		<g>
			<rect x="639.7" y="569.9" class="st11" width="52.1" height="52.1"/>
			<g>
				<path class="st9" d="M652.9,602.6l2-2.4c1.4,1.1,2.8,1.8,4.5,1.8c1.4,0,2.2-0.5,2.2-1.4l0,0c0-0.8-0.5-1.3-3.1-1.9
					c-3.1-0.8-5-1.6-5-4.6l0,0c0-2.8,2.2-4.6,5.3-4.6c2.2,0,4.1,0.7,5.6,1.9l-1.7,2.5c-1.3-0.9-2.7-1.5-4-1.5s-2,0.6-2,1.3l0,0
					c0,1,0.7,1.3,3.3,2c3.1,0.8,4.8,1.9,4.8,4.6l0,0c0,3-2.3,4.7-5.6,4.7C657.1,605,654.7,604.2,652.9,602.6z"/>
				<path class="st9" d="M668.9,589.6h6.2c3.6,0,5.8,2.2,5.8,5.3l0,0c0,3.5-2.7,5.3-6.1,5.3h-2.5v4.6H669v-15.2H668.9z M674.9,597.2
					c1.7,0,2.7-1,2.7-2.3l0,0c0-1.5-1-2.3-2.7-2.3h-2.6v4.6H674.9z"/>
			</g>
		</g>
	</g>
	<g>
		<rect x="536.1" y="559.2" class="st1" width="73.5" height="73.5"/>
		<rect x="541.3" y="564.4" class="st11" width="63.2" height="63.2"/>
	</g>
	<g>
		<rect x="721.8" y="559.2" class="st1" width="73.5" height="73.5"/>
		<g>
			<rect x="732.5" y="569.9" class="st11" width="52.1" height="52.1"/>
			<g>
				<path class="st9" d="M746.3,602.6l2-2.4c1.4,1.1,2.8,1.8,4.5,1.8c1.4,0,2.2-0.5,2.2-1.4l0,0c0-0.8-0.5-1.3-3.1-1.9
					c-3.1-0.8-5-1.6-5-4.6l0,0c0-2.8,2.2-4.6,5.3-4.6c2.2,0,4.1,0.7,5.6,1.9l-1.7,2.5c-1.3-0.9-2.7-1.5-4-1.5s-2,0.6-2,1.3l0,0
					c0,1,0.7,1.3,3.3,2c3.1,0.8,4.8,1.9,4.8,4.6l0,0c0,3-2.3,4.7-5.6,4.7C750.4,605,748.1,604.2,746.3,602.6z"/>
				<path class="st9" d="M762.3,589.6h3.3v12.2h7.6v3h-10.9L762.3,589.6L762.3,589.6z"/>
			</g>
		</g>
	</g>
	<g>
		<rect x="814.6" y="559.2" class="st1" width="73.5" height="73.5"/>
		<g>
			<rect x="825.3" y="569.9" class="st11" width="52.1" height="52.1"/>
			<g>
				<path class="st9" d="M837.4,589.6H849v3h-8.2v3.2h7.3v3h-7.3v5.9h-3.3L837.4,589.6L837.4,589.6z"/>
				<path class="st9" d="M852.7,589.6h7c1.9,0,3.4,0.5,4.4,1.5c0.8,0.8,1.3,2,1.3,3.5l0,0c0,2.5-1.3,4-3.3,4.7l3.7,5.4h-3.9
					l-3.3-4.9l0,0H856v4.9h-3.3V589.6z M859.4,597c1.6,0,2.6-0.9,2.6-2.2l0,0c0-1.4-1-2.2-2.6-2.2h-3.3v4.4H859.4z"/>
			</g>
		</g>
	</g>
	<g>
		<rect x="443.3" y="559.2" class="st1" width="73.5" height="73.5"/>
		<g>
			<circle class="st2" cx="480" cy="595.9" r="29.5"/>
			<g>
				<g>
					<path class="st9" d="M470.8,585.6l9.1,9.3l9.1-9.3l1.9,1.9l-9.2,9.4l9.2,9.3l-1.9,1.9l-9.1-9.4l-9.1,9.4l-1.9-1.9l9.1-9.3
						l-9.1-9.4L470.8,585.6z"/>
					<path class="st9" d="M470.8,608.6l-2.4-2.4l9.1-9.4l-9.1-9.4l2.4-2.4l9.1,9.3l9.1-9.3l2.4,2.4l-9.2,9.4l9.2,9.4l-2.4,2.4
						l-9.1-9.3L470.8,608.6z M480,598.2l9.1,9.4l1.3-1.3l-9.2-9.3l9.2-9.3l-1.3-1.3l-9.1,9.4l-9.1-9.4l-1.3,1.3l9.1,9.3l-9.1,9.3
						l1.3,1.3L480,598.2z"/>
				</g>
			</g>
		</g>
	</g>
</g>
<g>
	<rect x="164.8" y="559.2" class="st1" width="73.5" height="73.5"/>
	<g>
		<g>
			
				<rect x="178.6" y="573" transform="matrix(0.7071 -0.7071 0.7071 0.7071 -362.4024 317.0997)" class="st9" width="46" height="46"/>
			<path class="st38" d="M201.6,629.6L168,596l33.6-33.6l33.6,33.6L201.6,629.6z M170.1,596l31.5,31.5l31.5-31.5l-31.5-31.5
				L170.1,596z"/>
		</g>
		<g>
			<path class="st38" d="M194.1,595.5L194.1,595.5c0-4.4,3.4-7.9,8-7.9c2.7,0,4.4,0.7,6,2.1l-2.1,2.5c-1.2-1-2.2-1.5-4-1.5
				c-2.4,0-4.4,2.2-4.4,4.7l0,0c0,2.8,1.9,4.8,4.6,4.8c1.2,0,2.3-0.3,3.2-0.9v-2.2h-3.5v-2.9h6.6v6.6c-1.6,1.3-3.7,2.4-6.5,2.4
				C197.3,603.4,194.1,600,194.1,595.5z"/>
		</g>
	</g>
</g>
<g>
	<rect x="257.6" y="462.8" class="st1" width="73.5" height="73.5"/>
	<g>
		<g>
			<rect x="268.3" y="473.5" class="st50" width="52.1" height="52.1"/>
			<path class="st38" d="M321.2,526.3h-53.6v-53.6h53.6V526.3z M269.1,524.8h50.6v-50.6h-50.6V524.8z"/>
		</g>
		<g>
			<path class="st38" d="M281.5,506.1l2-2.4c1.4,1.1,2.8,1.8,4.5,1.8c1.4,0,2.2-0.5,2.2-1.4l0,0c0-0.8-0.5-1.3-3.1-1.9
				c-3.1-0.8-5-1.6-5-4.6l0,0c0-2.8,2.2-4.6,5.3-4.6c2.2,0,4.1,0.7,5.6,1.9l-1.7,2.5c-1.3-0.9-2.7-1.5-4-1.5s-2,0.6-2,1.3l0,0
				c0,1,0.7,1.3,3.3,2c3.1,0.8,4.8,1.9,4.8,4.6l0,0c0,3-2.3,4.7-5.6,4.7C285.7,508.6,283.3,507.8,281.5,506.1z"/>
			<path class="st38" d="M297.5,493.1h6.2c3.6,0,5.8,2.2,5.8,5.3l0,0c0,3.5-2.7,5.3-6.1,5.3h-2.5v4.6h-3.3v-15.2H297.5z
				 M303.5,500.8c1.7,0,2.7-1,2.7-2.3l0,0c0-1.5-1-2.3-2.7-2.3h-2.6v4.6H303.5z"/>
		</g>
	</g>
</g>
<g>
	<rect x="164.8" y="462.8" class="st1" width="73.5" height="73.5"/>
	<g>
		<rect x="169.7" y="467.7" class="st51" width="63.6" height="63.6"/>
		<path class="st38" d="M234.1,532.1H169V467h65.1V532.1z M170.5,530.6h62.1v-62.1h-62.1V530.6z"/>
	</g>
</g>
<g>
	<rect x="350.5" y="462.8" class="st1" width="73.5" height="73.5"/>
	<g>
		<g>
			<rect x="361.2" y="473.5" class="st50" width="52.1" height="52.1"/>
			<path class="st38" d="M414.1,526.3h-53.6v-53.6h53.6V526.3z M362,524.8h50.6v-50.6H362V524.8z"/>
		</g>
		<g>
			<path class="st38" d="M375,506.1l2-2.4c1.4,1.1,2.8,1.8,4.5,1.8c1.4,0,2.2-0.5,2.2-1.4l0,0c0-0.8-0.5-1.3-3.1-1.9
				c-3.1-0.8-5-1.6-5-4.6l0,0c0-2.8,2.2-4.6,5.3-4.6c2.2,0,4.1,0.7,5.6,1.9l-1.7,2.5c-1.3-0.9-2.7-1.5-4-1.5s-2,0.6-2,1.3l0,0
				c0,1,0.7,1.3,3.3,2c3.1,0.8,4.8,1.9,4.8,4.6l0,0c0,3-2.3,4.7-5.6,4.7C379.1,508.6,376.8,507.8,375,506.1z"/>
			<path class="st38" d="M391,493.1h3.3v12.2h7.6v3H391L391,493.1L391,493.1z"/>
		</g>
	</g>
</g>
<g>
	<rect x="443.3" y="462.8" class="st1" width="73.5" height="73.5"/>
	<g>
		<g>
			<rect x="454" y="473.5" class="st50" width="52.1" height="52.1"/>
			<path class="st38" d="M506.9,526.4h-53.6v-53.6h53.6V526.4z M454.8,524.9h50.6v-50.6h-50.6V524.9z"/>
		</g>
		<g>
			<g>
				<path class="st38" d="M466.1,493.2h11.6v3h-8.2v3.2h7.3v3h-7.3v5.9h-3.3v-15.1H466.1z"/>
				<path class="st38" d="M481.4,493.2h7c1.9,0,3.4,0.5,4.4,1.5c0.8,0.8,1.3,2,1.3,3.5l0,0c0,2.5-1.3,4-3.3,4.7l3.7,5.4h-3.9
					l-3.3-4.9l0,0h-2.6v4.9h-3.3V493.2z M488.1,500.6c1.6,0,2.6-0.9,2.6-2.2l0,0c0-1.4-1-2.2-2.6-2.2h-3.3v4.4H488.1z"/>
			</g>
		</g>
	</g>
</g>
<g>
	<rect x="536.1" y="462.8" class="st1" width="73.5" height="73.5"/>
	<g>
		<g>
			
				<rect x="550" y="476.5" transform="matrix(0.7071 -0.7071 0.7071 0.7071 -185.4111 551.4498)" class="st2" width="46" height="46"/>
			<path class="st38" d="M572.9,533.1l-33.6-33.6l33.6-33.6l33.6,33.6L572.9,533.1z M541.4,499.5l31.5,31.5l31.5-31.5L572.9,468
				L541.4,499.5z"/>
		</g>
		<g>
			<path class="st38" d="M565.4,499.1L565.4,499.1c0-4.4,3.4-7.9,8-7.9c2.7,0,4.4,0.7,6,2.1l-2.1,2.5c-1.2-1-2.2-1.5-4-1.5
				c-2.4,0-4.4,2.2-4.4,4.7l0,0c0,2.8,1.9,4.8,4.6,4.8c1.2,0,2.3-0.3,3.2-0.9v-2.2h-3.5v-2.9h6.6v6.6c-1.6,1.3-3.7,2.4-6.5,2.4
				C568.6,506.9,565.4,503.6,565.4,499.1z"/>
		</g>
	</g>
</g>
<g>
	<g>
		<rect x="629" y="462.8" class="st1" width="73.5" height="73.5"/>
		<g>
			<g>
				<circle class="st9" cx="665.8" cy="499.5" r="29.5"/>
				<path class="st38" d="M665.8,529.8c-16.7,0-30.3-13.6-30.3-30.3s13.6-30.3,30.3-30.3c16.7,0,30.3,13.6,30.3,30.3
					C696,516.2,682.5,529.8,665.8,529.8z M665.8,470.8c-15.9,0-28.8,12.9-28.8,28.8c0,15.9,12.9,28.8,28.8,28.8
					c15.9,0,28.8-12.9,28.8-28.8C694.5,483.7,681.6,470.8,665.8,470.8z"/>
			</g>
			<g>
				<path class="st38" d="M664.6,493.6l-3.3,0.8l-0.9-3.4l5.4-1.6h2.8v19h-4.1L664.6,493.6L664.6,493.6z"/>
			</g>
		</g>
	</g>
	<g>
		<rect x="721.8" y="462.8" class="st1" width="73.5" height="73.5"/>
		<g>
			<g>
				<circle class="st9" cx="758.6" cy="499.5" r="29.5"/>
				<path class="st38" d="M758.6,529.8c-16.7,0-30.3-13.6-30.3-30.3s13.6-30.3,30.3-30.3s30.3,13.6,30.3,30.3
					C788.9,516.2,775.3,529.8,758.6,529.8z M758.6,470.8c-15.9,0-28.8,12.9-28.8,28.8c0,15.9,12.9,28.8,28.8,28.8
					c15.9,0,28.8-12.9,28.8-28.8C787.4,483.7,774.4,470.8,758.6,470.8z"/>
			</g>
			<g>
				<path class="st38" d="M751.5,505.1l6.3-5.1c2.3-1.9,3.3-3,3.3-4.5c0-1.6-1.1-2.5-2.5-2.5c-1.5,0-2.5,0.8-3.9,2.5l-2.9-2.3
					c1.9-2.5,3.7-3.9,7-3.9c3.9,0,6.5,2.3,6.5,5.8v0.1c0,3.2-1.6,4.7-5,7.3l-3.1,2.4h8.2v3.6h-14v-3.4H751.5z"/>
			</g>
		</g>
	</g>
	<g>
		<rect x="1000.3" y="462.8" class="st1" width="73.5" height="73.5"/>
		<g>
			<g>
				<rect x="1011" y="473.5" class="st9" width="52.1" height="52.1"/>
				<path class="st38" d="M1063.9,526.4h-53.6v-53.6h53.6V526.4z M1011.8,524.9h50.6v-50.6h-50.6V524.9z"/>
			</g>
			<g>
				<path class="st38" d="M1024.2,506.2l2-2.4c1.4,1.1,2.8,1.8,4.5,1.8c1.4,0,2.2-0.5,2.2-1.4l0,0c0-0.8-0.5-1.3-3.1-1.9
					c-3.1-0.8-5-1.6-5-4.6l0,0c0-2.8,2.2-4.6,5.3-4.6c2.2,0,4.1,0.7,5.6,1.9l-1.7,2.5c-1.3-0.9-2.7-1.5-4-1.5c-1.3,0-2,0.6-2,1.3
					l0,0c0,1,0.7,1.3,3.3,2c3.1,0.8,4.8,1.9,4.8,4.6l0,0c0,3-2.3,4.7-5.6,4.7C1028.4,508.6,1026,507.8,1024.2,506.2z"/>
				<path class="st38" d="M1040.2,493.2h6.2c3.6,0,5.8,2.2,5.8,5.3l0,0c0,3.5-2.7,5.3-6.1,5.3h-2.5v4.6h-3.3L1040.2,493.2
					L1040.2,493.2z M1046.2,500.8c1.7,0,2.7-1,2.7-2.3l0,0c0-1.5-1-2.3-2.7-2.3h-2.6v4.6L1046.2,500.8L1046.2,500.8z"/>
			</g>
		</g>
	</g>
	<g>
		<rect x="1093.1" y="462.8" class="st1" width="73.5" height="73.5"/>
		<g>
			<g>
				<rect x="1103.8" y="473.5" class="st9" width="52.1" height="52.1"/>
				<path class="st38" d="M1156.7,526.4h-53.6v-53.6h53.6V526.4z M1104.6,524.9h50.6v-50.6h-50.6V524.9z"/>
			</g>
			<g>
				<path class="st38" d="M1117.6,506.2l2-2.4c1.4,1.1,2.8,1.8,4.5,1.8c1.4,0,2.2-0.5,2.2-1.4l0,0c0-0.8-0.5-1.3-3.1-1.9
					c-3.1-0.8-5-1.6-5-4.6l0,0c0-2.8,2.2-4.6,5.3-4.6c2.2,0,4.1,0.7,5.6,1.9l-1.7,2.5c-1.3-0.9-2.7-1.5-4-1.5c-1.3,0-2,0.6-2,1.3
					l0,0c0,1,0.7,1.3,3.3,2c3.1,0.8,4.8,1.9,4.8,4.6l0,0c0,3-2.3,4.7-5.6,4.7C1121.7,508.6,1119.4,507.8,1117.6,506.2z"/>
				<path class="st38" d="M1133.6,493.2h3.3v12.2h7.6v3h-10.9V493.2L1133.6,493.2z"/>
			</g>
		</g>
	</g>
	<g>
		<rect x="1186" y="462.8" class="st1" width="73.5" height="73.5"/>
		<g>
			<g>
				<rect x="1196.7" y="473.5" class="st9" width="52.1" height="52.1"/>
				<path class="st38" d="M1249.6,526.4H1196v-53.6h53.6V526.4z M1197.5,524.9h50.6v-50.6h-50.6V524.9z"/>
			</g>
			<g>
				<path class="st38" d="M1208.8,493.2h11.6v3h-8.2v3.2h7.3v3h-7.3v5.9h-3.3L1208.8,493.2L1208.8,493.2z"/>
				<path class="st38" d="M1224.1,493.2h7c1.9,0,3.4,0.5,4.4,1.5c0.8,0.8,1.3,2,1.3,3.5l0,0c0,2.5-1.3,4-3.3,4.7l3.7,5.4h-3.9
					l-3.3-4.9l0,0h-2.6v4.9h-3.3V493.2z M1230.8,500.6c1.6,0,2.6-0.9,2.6-2.2l0,0c0-1.4-1-2.2-2.6-2.2h-3.3v4.4L1230.8,500.6
					L1230.8,500.6z"/>
			</g>
		</g>
	</g>
	<g>
		<rect x="814.6" y="462.8" class="st1" width="73.5" height="73.5"/>
		<g>
			<g>
				<circle class="st9" cx="851.3" cy="499.5" r="29.5"/>
				<path class="st38" d="M851.3,529.8c-16.7,0-30.3-13.6-30.3-30.3c0-16.7,13.6-30.3,30.3-30.3s30.3,13.6,30.3,30.3
					C881.6,516.2,868,529.8,851.3,529.8z M851.3,470.8c-15.9,0-28.8,12.9-28.8,28.8c0,15.9,12.9,28.8,28.8,28.8s28.8-12.9,28.8-28.8
					C880.1,483.7,867.2,470.8,851.3,470.8z"/>
			</g>
			<g>
				<g>
					<path class="st38" d="M842.1,489.2l9.1,9.4l9.1-9.4l1.9,1.9l-9.2,9.4l9.2,9.3l-1.9,1.9l-9.1-9.4l-9.1,9.4l-1.9-1.9l9.1-9.3
						l-9.1-9.4L842.1,489.2z"/>
					<path class="st38" d="M842.1,512.2l-2.4-2.4l9.1-9.4l-9.1-9.4l2.4-2.4l9.1,9.3l9.1-9.3l2.4,2.4l-9.2,9.4l9.2,9.4l-2.4,2.4
						l-9.1-9.3L842.1,512.2z M851.3,501.8l9.1,9.4l1.3-1.3l-9.2-9.3l9.2-9.3l-1.3-1.3l-9.1,9.4l-9.1-9.4l-1.3,1.3l9.1,9.3l-9.1,9.3
						l1.3,1.3L851.3,501.8z"/>
				</g>
			</g>
		</g>
	</g>
	<g>
		<rect x="907.5" y="462.8" class="st1" width="73.5" height="73.5"/>
		<g>
			<rect x="912.4" y="467.7" class="st9" width="63.6" height="63.6"/>
			<path class="st38" d="M976.8,532.1h-65.1V467h65.1V532.1z M913.2,530.6h62.1v-62.1h-62.1V530.6z"/>
		</g>
	</g>
</g>
</svg>
